<svg width="274" height="258" viewBox="0 0 274 258" fill="none" xmlns="http://www.w3.org/2000/svg">
<path d="M118.296 156.508C118.296 156.508 90.1525 -21.761 21.1319 2.21921C-22.1459 17.2534 89.0236 140.203 118.296 156.508Z" fill="#64B3FF"/>
<path d="M121.998 163.744C121.597 163.667 121.243 163.409 121.051 163.008C120.583 162.043 74.0044 65.7492 27.9333 16.8427C27.4263 16.3075 27.455 15.4664 27.9907 14.9598C28.5264 14.4533 29.3682 14.4819 29.8753 15.0172C76.2334 64.22 122.984 160.877 123.452 161.851C123.768 162.511 123.491 163.304 122.831 163.629C122.563 163.753 122.276 163.792 121.998 163.734V163.744Z" fill="#D5F0FF"/>
<path d="M37.356 56.7072C36.7821 56.5925 36.3324 56.1242 36.2846 55.5125C36.2177 54.7766 36.7629 54.1362 37.4995 54.0789L58.6123 52.282L61.2047 28.2541C61.2813 27.5181 61.9413 26.9924 62.6684 27.0689C63.405 27.1549 63.9311 27.8048 63.845 28.5312L61.0134 54.7383L37.71 56.7168C37.5856 56.7263 37.4613 56.7168 37.3465 56.6976L37.356 56.7072Z" fill="#D5F0FF"/>
<path d="M24.3651 29.8114C23.7911 29.6967 23.3415 29.2283 23.2936 28.6166C23.2267 27.8807 23.772 27.2403 24.5086 27.183L38.1118 26.0265L39.7859 10.4953C39.8624 9.75939 40.5225 9.23372 41.2495 9.31018C41.9861 9.38664 42.5123 10.0461 42.4262 10.7725L40.5129 28.4828L24.7286 29.8209C24.6042 29.8305 24.4799 29.8209 24.3651 29.8018V29.8114Z" fill="#D5F0FF"/>
<path d="M53.6956 76.8461C53.0643 76.7218 52.6051 76.1675 52.6146 75.508C52.6338 74.7721 53.246 74.1986 53.9826 74.2177L72.809 74.7243L75.9468 54.5099C76.0616 53.7835 76.7408 53.2865 77.4678 53.4012C78.1948 53.5636 78.6923 54.1944 78.5775 54.9208L75.0762 77.4482L53.9061 76.8843C53.8296 76.8843 53.7626 76.8843 53.6861 76.8652L53.6956 76.8461Z" fill="#D5F0FF"/>
<path d="M69.279 107.526C68.6763 107.411 68.2171 106.885 68.198 106.245C68.1788 105.509 68.7624 104.897 69.499 104.888L91.0326 104.391C91.9223 99.5928 95.4427 80.6495 96.0645 78.6424C96.2845 77.9447 97.0498 77.5528 97.729 77.7631C98.4274 77.9733 98.8291 78.7188 98.6091 79.4261C98.0734 81.1751 94.7061 99.1627 93.4529 105.939L93.252 107L69.5564 107.545C69.4607 107.545 69.3651 107.545 69.2694 107.526H69.279Z" fill="#D5F0FF"/>
<path d="M90.6022 132.252C89.923 132.118 89.4447 131.487 89.5308 130.78C89.6169 130.053 90.2865 129.528 91.0135 129.623L105.908 131.43L108.778 110.546C108.874 109.82 109.553 109.313 110.28 109.409C111.026 109.485 111.514 110.183 111.418 110.909L108.195 134.393L90.6979 132.271C90.6979 132.271 90.6309 132.271 90.6022 132.261V132.252Z" fill="#D5F0FF"/>
<path d="M141.82 163.448C141.82 163.448 168.892 38.3098 242.055 57.8934C277.374 67.346 167.285 155.267 141.82 163.448Z" fill="#64B3FF"/>
<path d="M137.792 168.532C137.572 168.532 137.343 168.465 137.151 168.322C136.683 167.968 136.587 167.299 136.941 166.831C137.458 166.143 189.201 97.8055 233.197 66.5519C233.675 66.2079 234.335 66.3225 234.679 66.8004C235.024 67.2783 234.909 67.9378 234.431 68.2819C190.703 99.3443 139.151 167.423 138.634 168.102C138.424 168.379 138.108 168.523 137.783 168.523L137.792 168.532Z" fill="#D5F0FF"/>
<path d="M220.818 98.0068C220.723 98.0068 220.617 97.9876 220.522 97.9685L202.594 92.7692L204.489 71.8092C204.546 71.2262 205.053 70.777 205.646 70.8439C206.23 70.8917 206.66 71.4078 206.612 72.0004L204.871 91.2113L221.115 95.9136C221.679 96.0761 222.004 96.6687 221.842 97.2326C221.708 97.7009 221.277 97.9972 220.818 97.9972V98.0068Z" fill="#D5F0FF"/>
<path d="M235.196 78.9858C235.101 78.9858 234.996 78.9667 234.9 78.9476L222.751 75.4304L224.033 61.2659C224.08 60.6829 224.597 60.2337 225.19 60.3006C225.774 60.3484 226.204 60.8645 226.156 61.4571L225.037 73.8725L235.503 76.9023C236.067 77.0648 236.392 77.6573 236.23 78.2212C236.096 78.6896 235.665 78.9858 235.206 78.9858H235.196Z" fill="#D5F0FF"/>
<path d="M204.871 111.206C204.814 111.206 204.747 111.206 204.689 111.187L188.034 108.32L188.828 90.141C188.857 89.558 189.364 89.147 189.938 89.1279C190.522 89.1566 190.981 89.6536 190.952 90.2366L190.244 106.552L205.053 109.103C205.627 109.199 206.019 109.753 205.923 110.327C205.837 110.843 205.388 111.206 204.881 111.206H204.871Z" fill="#D5F0FF"/>
<path d="M187.862 132.778C187.786 132.778 187.709 132.778 187.633 132.749L169.17 128.62V127.76C169.266 122.255 169.447 107.651 169.304 106.198C169.246 105.615 169.667 105.089 170.251 105.032C170.844 104.965 171.351 105.405 171.418 105.978C171.59 107.66 171.38 122.771 171.322 126.919L188.102 130.675C188.676 130.809 189.039 131.373 188.905 131.946C188.79 132.443 188.36 132.778 187.872 132.778H187.862Z" fill="#D5F0FF"/>
<path d="M167.295 148.787C167.295 148.787 167.237 148.787 167.209 148.787L153.185 147.707L154.342 128.821C154.38 128.238 154.859 127.789 155.471 127.827C156.054 127.865 156.504 128.362 156.466 128.955L155.442 145.757L167.381 146.674C167.964 146.722 168.404 147.229 168.357 147.812C168.309 148.366 167.85 148.787 167.295 148.787Z" fill="#D5F0FF"/>
<path d="M151.405 192.587C151.405 192.587 96.9278 76.7214 166.95 47.855C200.751 33.919 166.67 170.623 151.405 192.587Z" fill="#64B3FF"/>
<path d="M151.292 199.072C151.117 199.205 150.894 199.292 150.655 199.294C150.068 199.297 149.586 198.824 149.582 198.237C149.575 197.377 149.191 111.66 165.169 60.1135C165.34 59.5497 165.934 59.24 166.498 59.4105C167.062 59.5811 167.371 60.1748 167.2 60.7386C151.319 111.971 151.698 197.366 151.7 198.219C151.701 198.567 151.537 198.872 151.279 199.07L151.292 199.072Z" fill="#D5F0FF"/>
<path d="M174.434 92.6219C174.358 92.68 174.263 92.7287 174.175 92.7716L156.774 99.5263L145.552 81.7228C145.243 81.2248 145.373 80.56 145.885 80.253C146.378 79.9366 147.033 80.0853 147.355 80.5852L157.637 96.906L173.398 90.7787C173.946 90.5651 174.564 90.8384 174.777 91.3852C174.955 91.8386 174.793 92.3354 174.428 92.6143L174.434 92.6219Z" fill="#D5F0FF"/>
<path d="M174.308 68.7784C174.232 68.8365 174.137 68.8852 174.049 68.9281L162.261 73.5108L154.678 61.4783C154.362 60.9861 154.5 60.3155 155.012 60.0085C155.504 59.6921 156.16 59.8408 156.481 60.3407L163.131 70.8847L173.286 66.9371C173.833 66.7234 174.451 66.9968 174.665 67.5435C174.843 67.997 174.68 68.4938 174.316 68.7726L174.308 68.7784Z" fill="#D5F0FF"/>
<path d="M169.778 112.793C169.733 112.827 169.68 112.868 169.622 112.888L154.649 120.723L144.241 105.797C143.91 105.317 144.063 104.682 144.507 104.318C144.988 103.987 145.655 104.103 145.986 104.584L155.331 117.976L168.646 111.012C169.16 110.739 169.808 110.941 170.081 111.455C170.326 111.917 170.189 112.479 169.786 112.787L169.778 112.793Z" fill="#D5F0FF"/>
<path d="M169.363 140.26C169.302 140.306 169.242 140.353 169.163 140.377L151.987 148.307L151.465 147.624C148.198 143.192 139.474 131.478 138.478 130.411C138.078 129.982 138.094 129.309 138.522 128.909C138.953 128.496 139.623 128.537 140.024 128.952C141.182 130.184 150.191 142.318 152.664 145.648L168.276 138.444C168.814 138.202 169.445 138.429 169.687 138.966C169.897 139.431 169.758 139.958 169.371 140.254L169.363 140.26Z" fill="#D5F0FF"/>
<path d="M162.743 165.469C162.743 165.469 162.697 165.504 162.674 165.521L150.876 173.179L140.328 157.47C140.004 156.984 140.111 156.337 140.621 155.995C141.108 155.671 141.767 155.793 142.096 156.287L151.486 170.259L161.529 163.738C162.021 163.422 162.678 163.557 162.994 164.049C163.293 164.519 163.184 165.132 162.743 165.469Z" fill="#D5F0FF"/>
<path d="M143.513 24.4849V38.9552H147.34V45.5499L153.94 38.9552H198.768V24.4849H143.513Z" fill="white"/>
<path d="M143.513 24.4849C143.551 29.3688 143.714 34.1955 143.714 38.9552L143.513 38.7545L147.33 38.7449H147.541V38.9552L147.56 45.55L147.158 45.3875L153.74 38.7736C153.826 38.6876 153.806 38.6971 153.921 38.6971C167.123 38.678 185.739 38.5824 198.758 38.6111L198.414 38.9552L198.462 24.4849L198.758 24.7812C184.983 24.7525 157.279 24.59 143.504 24.4849H143.513ZM143.513 24.4849C157.432 24.3702 185.136 24.2173 199.064 24.1886V24.4849L199.112 38.9552V39.2993C186.016 39.3375 167.218 39.2324 153.931 39.2132L154.113 39.1368L147.493 45.7124L147.091 46.1043V45.5404L147.11 38.9456L147.321 39.1559H143.504L143.303 39.1463V38.9456C143.303 34.0617 143.465 29.235 143.504 24.4753L143.513 24.4849Z" fill="#263238"/>
<path d="M153.175 29.7225V31.6627H152.63V29.7225C152.63 28.9866 152.065 28.3844 151.377 28.3844C150.688 28.3844 150.123 28.9866 150.123 29.7225V31.6627H149.578V29.7225C149.578 28.6616 150.382 27.811 151.377 27.811C152.371 27.811 153.175 28.6712 153.175 29.7225Z" fill="#263238"/>
<path d="M149.578 30.2291L150.123 30.2482V31.6627H149.578V30.2291Z" fill="#263238"/>
<path d="M153.175 30.3724V31.6627H152.63V30.3533L153.175 30.3724Z" fill="#263238"/>
<path d="M153.873 30.9459H148.87V35.0939H153.873V30.9459Z" fill="#263238"/>
<path d="M161.861 30.0092C161.172 31.3855 160.13 32.4369 158.752 33.1155C159.431 31.7392 160.484 30.6974 161.861 30.0092Z" fill="#263238"/>
<path d="M158.752 30.0092C160.13 30.6974 161.182 31.7392 161.861 33.1155C160.484 32.4369 159.441 31.3855 158.752 30.0092Z" fill="#263238"/>
<path d="M162.512 31.5576C161.048 32.045 159.575 32.0546 158.111 31.5576C159.565 31.0606 161.048 31.0701 162.512 31.5576Z" fill="#263238"/>
<path d="M160.311 29.3593C160.799 30.8121 160.809 32.2935 160.311 33.7558C159.814 32.3031 159.824 30.8216 160.311 29.3593Z" fill="#263238"/>
<path d="M169.447 30.0092C168.758 31.3855 167.716 32.4369 166.338 33.1155C167.017 31.7392 168.07 30.6974 169.447 30.0092Z" fill="#263238"/>
<path d="M166.338 30.0092C167.716 30.6974 168.768 31.7392 169.447 33.1155C168.07 32.4369 167.027 31.3855 166.338 30.0092Z" fill="#263238"/>
<path d="M170.098 31.5576C168.644 32.045 167.161 32.0546 165.697 31.5576C167.151 31.0606 168.634 31.0701 170.098 31.5576Z" fill="#263238"/>
<path d="M167.898 29.3593C168.385 30.8121 168.395 32.2935 167.898 33.7558C167.4 32.3031 167.41 30.8216 167.898 29.3593Z" fill="#263238"/>
<path d="M177.033 30.0092C176.345 31.3855 175.302 32.4369 173.924 33.1155C174.604 31.7392 175.656 30.6974 177.033 30.0092Z" fill="#263238"/>
<path d="M173.924 30.0092C175.302 30.6974 176.354 31.7392 177.033 33.1155C175.656 32.4369 174.613 31.3855 173.924 30.0092Z" fill="#263238"/>
<path d="M177.684 31.5576C176.23 32.045 174.747 32.0546 173.283 31.5576C174.737 31.0606 176.22 31.0701 177.684 31.5576Z" fill="#263238"/>
<path d="M175.484 29.3593C175.971 30.8121 175.981 32.2935 175.484 33.7558C174.986 32.3031 174.996 30.8216 175.484 29.3593Z" fill="#263238"/>
<path d="M184.619 30.0092C183.931 31.3855 182.888 32.4369 181.51 33.1155C182.189 31.7392 183.242 30.6974 184.619 30.0092Z" fill="#263238"/>
<path d="M181.51 30.0092C182.888 30.6974 183.94 31.7392 184.619 33.1155C183.242 32.4369 182.199 31.3855 181.51 30.0092Z" fill="#263238"/>
<path d="M185.26 31.5576C183.806 32.045 182.324 32.0546 180.86 31.5576C182.314 31.0606 183.797 31.0701 185.26 31.5576Z" fill="#263238"/>
<path d="M183.069 29.3593C183.557 30.8121 183.567 32.2935 183.069 33.7558C182.572 32.3031 182.582 30.8216 183.069 29.3593Z" fill="#263238"/>
<path d="M192.205 30.0092C191.516 31.3855 190.474 32.4369 189.096 33.1155C189.775 31.7392 190.828 30.6974 192.205 30.0092Z" fill="#263238"/>
<path d="M189.096 30.0092C190.474 30.6974 191.526 31.7392 192.205 33.1155C190.828 32.4369 189.785 31.3855 189.096 30.0092Z" fill="#263238"/>
<path d="M192.846 31.5576C191.383 32.045 189.909 32.0546 188.446 31.5576C189.9 31.0606 191.383 31.0701 192.846 31.5576Z" fill="#263238"/>
<path d="M190.646 29.3593C191.134 30.8121 191.144 32.2935 190.646 33.7558C190.149 32.3031 190.158 30.8216 190.646 29.3593Z" fill="#263238"/>
<path d="M82.9874 199.256L33.262 239.312H36.0649L93.4912 199.256H82.9874Z" fill="#9C5454"/>
<path d="M87.6558 199.256L63.0896 239.312H65.8925L95.9976 199.256H87.6558Z" fill="#9C5454"/>
<path d="M99.6997 199.256L124.275 239.312H121.473L91.3579 199.256H99.6997Z" fill="#9C5454"/>
<path d="M103.995 199.256L153.711 239.312H150.917L93.4912 199.256H103.995Z" fill="#9C5454"/>
<path d="M186.982 184.566V172.848L118.698 170.048L82.6334 73.8406H0L29.2345 184.566L99.0874 204.15H103.469L186.982 184.566Z" fill="#455A64"/>
<path opacity="0.1" d="M0 73.8406H9.45147L39.92 174.77L101.718 192.26L186.982 172.848V184.566L103.469 204.15H99.0874L29.2345 184.566L0 73.8406Z" fill="black"/>
<path d="M149.808 257.529C147.722 256.736 100.857 218.372 99.996 215.781C99.6612 214.797 104.856 207.657 111.38 199.199C112.786 197.373 114.25 195.5 115.752 193.598C125.471 181.259 136.07 168.404 136.07 168.404L167.496 193.98L146.316 218.477L141.667 223.858C141.667 223.858 153.031 246.567 153.672 249.51C154.304 252.445 151.893 258.332 149.808 257.548V257.529Z" fill="#64B3FF"/>
<path d="M149.808 257.529C147.722 256.736 100.857 218.372 99.9962 215.781C99.5944 214.587 107.343 204.284 115.752 193.598L146.316 218.467L141.667 223.848C141.667 223.848 153.032 246.557 153.672 249.501C154.304 252.435 151.893 258.323 149.808 257.539V257.529Z" fill="#EBEBEB"/>
<path d="M149.808 257.529C147.722 256.736 100.857 218.372 99.996 215.781C99.6612 214.797 104.856 207.657 111.38 199.199L141.667 223.848C141.667 223.848 153.031 246.557 153.672 249.501C154.304 252.435 151.893 258.323 149.808 257.539V257.529Z" fill="#3191FF"/>
<path d="M150.669 255.102C142.968 248.478 111.294 222.491 103.182 216.527C103.115 216.479 103.076 216.527 103.143 216.575C110.634 223.303 142.518 249.042 150.563 255.235C150.736 255.369 150.831 255.245 150.669 255.111V255.102Z" fill="#263238"/>
<path d="M152.037 245.343C150.238 243.738 147.694 243.135 145.761 243.413C143.915 243.68 141.849 244.493 140.567 246.165C140.528 246.213 140.614 246.289 140.662 246.242C143.628 243.537 148.641 243.126 151.951 245.439C152.017 245.487 152.094 245.391 152.027 245.343H152.037Z" fill="#263238"/>
<path d="M144.068 227.117C140.959 224.498 136.405 222.625 132.34 223.59C132.187 223.628 132.235 223.848 132.368 223.877C136.415 224.737 140.012 225.865 143.8 227.547C144.068 227.662 144.288 227.308 144.058 227.117H144.068Z" fill="#263238"/>
<path d="M145.723 230.051C142.614 227.432 138.06 225.559 133.995 226.524C133.842 226.562 133.889 226.782 134.023 226.811C138.07 227.671 141.667 228.799 145.455 230.481C145.723 230.596 145.943 230.233 145.713 230.051H145.723Z" fill="#263238"/>
<path d="M147.378 232.985C144.269 230.366 139.715 228.493 135.65 229.458C135.497 229.497 135.544 229.716 135.678 229.745C139.725 230.605 143.322 231.733 147.11 233.415C147.378 233.53 147.598 233.176 147.368 232.985H147.378Z" fill="#263238"/>
<path d="M149.023 235.919C145.914 233.301 141.361 231.427 137.295 232.393C137.142 232.431 137.19 232.651 137.324 232.679C141.37 233.54 144.967 234.667 148.755 236.35C149.023 236.464 149.243 236.111 149.014 235.919H149.023Z" fill="#263238"/>
<path d="M154.342 221.516C153.835 218.897 150.774 218.544 148.669 219.107C145.264 220.025 141.619 222.242 139.227 224.804C139.17 224.871 139.199 224.938 139.256 224.976C139.141 225.253 139.256 225.664 139.61 225.693C143.121 225.979 146.833 226.715 150.324 225.922C152.362 225.454 154.83 224.001 154.352 221.526L154.342 221.516ZM145.005 225.033C143.274 224.938 141.562 224.756 139.83 224.718C141.676 223.609 143.465 222.434 145.417 221.516C146.354 221.076 147.32 220.646 148.306 220.34C149.836 219.863 155.079 219.767 152.591 223.437C151.214 225.463 147.062 225.157 145.005 225.043V225.033Z" fill="#263238"/>
<path d="M130.455 219.576C132.847 222.233 136.31 223.772 139.342 225.559C139.658 225.741 139.983 225.473 140.05 225.177C140.117 225.177 140.184 225.138 140.165 225.052C139.686 221.573 137.984 217.674 135.726 214.959C134.329 213.287 131.622 211.815 129.699 213.66C127.872 215.409 129.058 218.018 130.455 219.576ZM130.025 216.231C130.111 211.796 134.329 214.893 135.315 216.164C135.946 216.986 136.482 217.894 136.998 218.792C138.07 220.665 138.845 222.663 139.725 224.632C138.29 223.667 136.788 222.825 135.315 221.917C133.564 220.828 129.996 218.687 130.034 216.24L130.025 216.231Z" fill="#263238"/>
<path d="M200.126 145.925C197.754 162.373 156.542 209.426 151.778 214.826C151.08 215.619 150.697 216.059 150.697 216.059L117.407 189.842L117.799 189.345L147.866 150.99L59.5979 149.394L93.4338 123.76C93.4338 123.76 96.1315 125.356 101.795 124.601C121.31 121.992 165.315 116.219 175.665 116.755C189.02 117.462 202.307 130.823 200.136 145.915L200.126 145.925Z" fill="#1D2F5F"/>
<path d="M158.666 136.73C157.509 137.877 156.571 139.32 155.567 140.601C154.505 141.958 153.424 143.306 152.362 144.663C152.352 144.672 152.343 144.692 152.333 144.701C152.524 144.3 152.706 143.898 152.907 143.506C153.586 142.149 154.132 140.744 154.926 139.454C154.973 139.377 154.849 139.301 154.801 139.377C153.988 140.658 153.041 141.882 152.333 143.239C151.998 143.879 151.692 144.519 151.396 145.179C151.233 145.542 151.07 145.896 150.927 146.269C150.86 146.431 150.774 146.613 150.726 146.794C150.248 147.425 149.779 148.056 149.32 148.706C148.306 150.139 147.407 151.65 146.383 153.064C146.326 153.141 146.45 153.217 146.507 153.141C147.54 151.812 148.708 150.569 149.76 149.241C150.831 147.893 151.855 146.507 152.859 145.112C153.845 143.755 154.801 142.379 155.787 141.012C156.772 139.636 157.939 138.288 158.752 136.797C158.781 136.749 158.714 136.682 158.666 136.73Z" fill="#121E3F"/>
<path d="M155.299 208.326C153.405 206.673 151.367 205.153 149.377 203.624C147.378 202.085 145.359 200.556 143.341 199.036C139.304 195.997 135.277 192.939 131.192 189.957C128.953 188.322 126.696 186.707 124.361 185.187C124.256 185.12 124.151 185.283 124.237 185.359C128.073 188.638 132.158 191.62 136.195 194.649C140.241 197.689 144.298 200.709 148.382 203.681C150.621 205.306 152.85 206.988 155.184 208.479C155.28 208.537 155.375 208.393 155.289 208.317L155.299 208.326Z" fill="#121E3F"/>
<path d="M83.6379 80.3207C92.7928 97.7443 103.66 116.229 113.963 118.905C123.759 121.457 147.062 97.0657 151.023 88.9704C152.381 86.1795 133.937 73.9553 131.326 76.0102C126.399 79.881 115.628 92.1531 114.087 91.8472C112.49 91.5223 99.4797 79.9002 87.6749 70.1227C80.5289 64.1969 77.2955 68.2589 83.6379 80.3207Z" fill="#F9A97D"/>
<path d="M134.645 47.71L127.595 72.3783C127.308 73.0952 127.652 73.7068 128.37 73.726L141.208 74.1274C141.925 74.1465 142.738 73.5826 143.035 72.8658L150.085 48.1975C150.372 47.4711 150.028 46.8689 149.31 46.8498L136.472 46.4484C135.755 46.4293 134.942 46.9932 134.645 47.71Z" fill="#A6A6A6"/>
<path d="M136.166 47.7482L129.116 72.4165C128.829 73.1334 129.173 73.7451 129.891 73.7642L142.729 74.1656C143.446 74.1847 144.259 73.6208 144.556 72.904L151.606 48.2357C151.893 47.5093 151.549 46.9072 150.831 46.888L137.993 46.4866C137.276 46.4675 136.463 47.0314 136.166 47.7482Z" fill="#DBDBDB"/>
<path d="M139.648 48.9907C139.62 49.5929 139.103 50.0516 138.5 50.0229C137.898 49.9943 137.438 49.4782 137.467 48.876C137.496 48.2739 138.012 47.8151 138.615 47.8438C139.218 47.8725 139.677 48.3886 139.648 48.9907Z" fill="#455A64"/>
<path d="M156.954 75.0162C158.035 67.848 157.212 65.8409 161.345 60.2783C164.052 56.6273 162.885 53.3299 158.618 55.3848C151.644 58.7395 148.306 67.6951 148.038 71.1358L156.954 75.0258V75.0162Z" fill="#F9A97D"/>
<path d="M147.694 93.8066C147.694 93.8066 154.39 85.998 156.303 78.4666C157.623 73.2577 159.24 61.6164 147.847 50.3288C145.149 47.6527 139.4 45.7507 142.222 51.7242C144.231 55.9678 146.785 58.0514 147.493 60.7371C147.493 60.7371 139.897 59.1888 137.314 61.9892C136.166 63.2412 133.095 66.7393 131.096 69.8073C131.096 69.8073 131.651 70.419 132.455 71.0976C132.455 71.0976 130.293 73.9458 130.752 79.365L147.694 93.7971V93.8066Z" fill="#F9A97D"/>
<path d="M156.772 73.2959C155.5 70.7822 152.706 65.5064 148.927 61.9892C144.728 58.0801 135.573 51.6765 132.713 54.8018C130.618 57.0956 133.899 59.8482 133.899 59.8482C133.899 59.8482 129.556 57.9941 128.121 60.4886C126.81 62.7538 129.47 64.7322 129.47 64.7322C129.47 64.7322 126.648 64.0632 125.796 66.4908C124.782 69.4059 130.876 70.333 132.397 74.1752C132.741 75.0354 156.762 73.3054 156.762 73.3054L156.772 73.2959Z" fill="#F9A97D"/>
<path d="M145.532 67.112C143.944 64.952 139.084 60.9569 134.014 59.81C133.899 59.7813 133.813 59.8578 133.918 59.9055C139.237 62.3523 143.685 65.6497 145.493 67.1598C145.522 67.1789 145.551 67.1407 145.532 67.1216V67.112Z" fill="#263238"/>
<path d="M141.456 71.241C139.897 69.511 134.703 65.6211 129.518 64.6366C129.403 64.6175 129.326 64.694 129.432 64.7322C135.085 67.0643 139.524 69.8838 141.418 71.2792C141.447 71.2983 141.475 71.2601 141.456 71.241Z" fill="#263238"/>
<path d="M124.955 79.1834L144.173 99.5508C144.173 99.5508 123.874 122.288 114.346 119.909C104.818 117.529 86.7948 91.7517 81.0167 75.389C77.018 64.0632 83.3222 65.8791 89.9516 71.4321C96.5715 76.9851 113.886 90.7673 114.652 90.557C115.407 90.3563 124.964 79.1834 124.964 79.1834H124.955Z" fill="#3191FF"/>
<path opacity="0.1" d="M118.45 119.698C116.948 120.109 115.561 120.214 114.346 119.909C104.818 117.529 86.7948 91.7517 81.0168 75.389C78.3861 67.9245 80.2228 66.1754 83.6858 67.4466C94.0652 82.844 107.888 103.469 118.45 119.698Z" fill="black"/>
<path d="M137.945 102.934C135.162 100.124 124.189 88.2153 121.989 85.4914C121.836 85.3003 121.922 85.1569 122.104 85.3385C130.646 93.5485 135.458 99.933 138.051 102.829C138.118 102.905 138.012 103.011 137.945 102.944V102.934Z" fill="#263238"/>
<path d="M105.009 135.459C105.009 135.459 41.9003 146.985 41.5751 146.603C41.2881 146.269 48.5202 78.0556 69.939 66.529C73.3351 64.7035 81.5333 63.6235 85.0346 67.1885C95.0122 77.3579 105.841 134.522 105.009 135.449V135.459Z" fill="#64B3FF"/>
<path d="M104.358 129.801L42.2063 140.457C42.4455 138.584 42.7516 136.348 43.1438 133.824L103.21 123.531C103.67 125.911 104.052 128.033 104.358 129.801Z" fill="#ACDEFF"/>
<path d="M102.541 120.195L43.6987 130.279C43.8805 129.16 44.0814 128.013 44.2918 126.828L101.862 116.955C102.101 118.054 102.321 119.144 102.541 120.186V120.195Z" fill="#ACDEFF"/>
<path d="M82.2508 77.5777C78.7304 77.5586 74.2438 71.088 72.9811 66.4239C72.895 66.0989 74.0525 63.2316 75.2865 59.6666C76.0327 57.5066 76.8076 55.0789 77.3529 52.8138L90.7361 59.6953C90.7361 59.6953 88.1914 64.1014 87.2635 68.0582C87.187 68.3928 87.1487 68.7082 87.1391 69.014C87.1391 69.0618 87.1392 69.1096 87.12 69.1765C86.9765 71.0116 85.6659 77.5968 82.2604 77.5777H82.2508Z" fill="#F9A97D"/>
<path d="M90.736 59.7049C90.736 59.7049 88.1914 64.1109 87.2539 68.0774C87.1773 68.4023 87.1295 68.7177 87.1295 69.0236C87.1295 69.0714 87.1295 69.1191 87.1104 69.1765C86.6512 69.1383 86.1633 69.0522 85.6276 68.8993C77.4006 66.7202 77.5441 55.92 77.745 53.024L90.736 59.7049Z" fill="#263238"/>
<path d="M76.7787 37.2348C74.6359 42.2144 75.7169 57.3824 79.0172 61.1099C83.8004 66.5004 92.4483 67.9245 97.241 61.9892C101.89 56.2355 100.13 36.4893 96.3704 33.0199C90.8316 27.9161 79.9452 29.885 76.7787 37.2348Z" fill="#F9A97D"/>
<path d="M90.6402 48.1497C90.6402 48.1497 90.5637 48.207 90.5732 48.2452C90.6976 49.2583 90.6689 50.4339 89.7888 50.8545C89.7601 50.864 89.7697 50.9214 89.7984 50.9118C90.9081 50.6538 90.9272 49.0863 90.6402 48.1497Z" fill="#263238"/>
<path d="M89.6359 47.1747C87.9905 47.2034 88.1627 50.4817 89.6837 50.453C91.1856 50.4244 91.0038 47.1461 89.6359 47.1747Z" fill="#263238"/>
<path d="M96.6098 47.8247C96.6098 47.8247 96.6959 47.8725 96.6959 47.9107C96.715 48.9238 96.9159 50.0899 97.8534 50.3766C97.8821 50.3766 97.8821 50.4339 97.8534 50.4339C96.7246 50.3384 96.4758 48.79 96.6193 47.8247H96.6098Z" fill="#263238"/>
<path d="M97.461 46.716C99.0873 46.5058 99.3934 49.7745 97.882 49.9752C96.3992 50.1663 96.0931 46.8976 97.461 46.716Z" fill="#263238"/>
<path d="M88.2585 45.7411C88.6985 45.6073 89.0812 45.4066 89.5021 45.225C89.9804 45.0243 90.3822 44.9096 90.6787 44.4604C90.8414 44.2214 90.7457 43.8009 90.5257 43.6289C90.0091 43.2179 89.3681 43.323 88.7846 43.5428C88.1532 43.7818 87.7227 44.1259 87.3879 44.7089C87.0627 45.2728 87.6845 45.9227 88.268 45.7411H88.2585Z" fill="#263238"/>
<path d="M98.6474 44.9956C98.1882 44.9478 97.7769 44.8236 97.3273 44.728C96.8203 44.6229 96.4089 44.5846 96.0263 44.1928C95.8254 43.9825 95.8349 43.562 96.0263 43.3421C96.4567 42.8452 97.1072 42.826 97.7195 42.9312C98.3891 43.0459 98.8674 43.3039 99.3171 43.82C99.7475 44.317 99.2501 45.0625 98.6474 44.9956Z" fill="#263238"/>
<path d="M90.0376 57.1912C90.2481 57.4588 90.4394 57.822 90.8029 57.908C91.1473 57.9845 91.5873 57.8889 91.9222 57.8124C91.9508 57.8124 91.9795 57.8411 91.9604 57.8698C91.6447 58.2234 91.0612 58.3859 90.602 58.233C90.1524 58.0896 89.9898 57.6595 89.9324 57.2294C89.9324 57.1721 90.0089 57.1625 90.0376 57.2007V57.1912Z" fill="#263238"/>
<path d="M91.1665 54.1996C91.7788 55.0503 92.6493 55.4899 93.5581 55.6142C93.9694 55.6715 94.3903 55.6619 94.8113 55.6142C94.8974 55.6142 95.1843 55.5473 95.2704 55.5281C95.3852 55.509 95.4522 55.4039 95.4618 55.2892L95.28 53.11C95.5766 53.2343 97.0689 53.8173 97.0211 53.4063C96.6384 50.0325 96.2175 46.2859 95.1269 43.0076C95.0982 42.8929 94.9261 42.9311 94.9452 43.0458C95.1843 46.305 95.9879 49.4973 96.2845 52.766C95.8061 52.6131 95.0313 52.3263 94.6199 52.355C94.5625 52.3741 94.9069 55.012 94.9069 55.0311C93.5963 55.2701 92.5919 54.926 91.2622 54.104C91.1856 54.0467 91.1091 54.1232 91.1761 54.1996H91.1665Z" fill="#263238"/>
<path d="M94.4764 55.4517C94.4764 55.4517 93.7494 56.4361 92.7545 56.7993C92.391 56.9331 91.9892 56.9905 91.5778 56.8758C90.7264 56.656 90.6977 55.8722 90.8508 55.2032C90.9752 54.6488 91.2335 54.171 91.2335 54.171C91.2335 54.171 92.4866 55.337 94.486 55.4517H94.4764Z" fill="#263238"/>
<path d="M92.745 56.7993C92.3815 56.9331 91.9797 56.9905 91.5683 56.8758C90.7169 56.656 90.6882 55.8722 90.8413 55.2032C91.7596 55.2892 92.6684 55.9105 92.745 56.7993Z" fill="#FF9CBD"/>
<path d="M75.3725 50.9405C79.333 51.2463 81.4375 46.544 80.5383 42.74C80.5383 42.74 91.0612 44.2119 91.6256 35.7725C91.6256 35.7725 94.132 39.6147 98.9055 39.7676L99.6039 42.7305C100.685 42.4246 101.862 39.3662 99.2308 36.9385C99.2308 36.9385 99.0777 32.7236 95.9878 30.1717C92.8979 27.6198 89.7985 29.2637 89.7985 29.2637C89.7985 29.2637 87.3399 27.1897 83.456 27.6485C79.5721 28.1168 77.9459 31.6436 77.9459 31.6436C77.9459 31.6436 72.7227 32.5993 71.8043 36.2981C70.886 39.997 72.7896 42.4915 72.7896 42.4915C72.7896 42.4915 71.4695 43.9347 72.1104 47.0983C72.5218 49.1341 74.1767 50.8353 75.363 50.9309L75.3725 50.9405Z" fill="#171717"/>
<path d="M91.3961 35.0175C91.463 35.7056 91.4822 36.4033 91.3961 37.0819C91.3483 37.7605 91.2048 38.4296 91.0039 39.0699C90.5734 40.3411 89.722 41.4593 88.5453 42.0806C87.407 42.7974 86.0007 42.9025 84.6519 43.0268C83.9727 42.9981 83.2839 43.0268 82.5951 42.9599C81.9063 42.8834 81.2271 42.7974 80.5288 42.7305C81.1984 42.9025 81.8872 43.0363 82.5664 43.1893C83.2552 43.304 83.9535 43.3231 84.6519 43.39C86.039 43.3422 87.5122 43.2371 88.7749 42.4916C90.0377 41.7747 90.9752 40.5418 91.3483 39.1655C91.7213 37.7892 91.7118 36.346 91.3769 34.9984L91.3961 35.0175Z" fill="#263238"/>
<path d="M96.7916 39.9396C95.6245 39.5 94.5339 38.9552 93.606 38.2001C93.1372 37.8369 92.7355 37.3877 92.3815 36.9098C92.0084 36.4319 91.7788 35.8776 91.511 35.3041C91.578 35.9254 91.7406 36.5562 92.0658 37.1105C92.3719 37.6744 92.7929 38.181 93.2999 38.5824C93.7973 38.9838 94.3522 39.3184 94.9548 39.5382C95.5479 39.7676 96.1602 39.93 96.7916 39.9492V39.9396Z" fill="#263238"/>
<path d="M88.6313 53.2821C86.6607 53.1866 84.9196 51.7625 84.5082 49.7458C84.0204 47.3564 85.5701 45.0148 87.9617 44.5273C90.3532 44.0399 92.697 45.5882 93.1848 47.9776C93.6727 50.3671 92.123 52.7087 89.7314 53.1961C89.3583 53.2726 88.9948 53.3013 88.6313 53.2821ZM89.0331 45.0339C88.7174 45.0148 88.4017 45.0339 88.086 45.1103C86.0101 45.5309 84.6709 47.5571 85.0918 49.6311C85.5127 51.7051 87.5407 53.0432 89.6166 52.6227C91.6925 52.2021 93.0318 50.1759 92.6109 48.1019C92.2569 46.3528 90.7454 45.1199 89.0331 45.0339Z" fill="#FFC727"/>
<path d="M98.7717 52.5271C97.0784 52.4411 95.6244 50.6347 95.4713 48.3313C95.3948 47.1652 95.6435 46.047 96.1983 45.1772C96.7627 44.2788 97.5663 43.7531 98.4655 43.6862C99.3648 43.6193 100.235 44.0399 100.914 44.8523C101.575 45.636 101.976 46.716 102.062 47.8725C102.225 50.3097 100.886 52.3837 99.0778 52.508C98.9821 52.508 98.8865 52.508 98.7908 52.508L98.7717 52.5271ZM98.7238 44.2884C98.6473 44.2884 98.5708 44.2884 98.4942 44.2884C97.7959 44.3362 97.155 44.7663 96.6862 45.5022C96.2079 46.2668 95.9783 47.2608 96.0548 48.293C96.1983 50.4053 97.5185 52.0396 99.0204 51.9345C100.513 51.8294 101.603 50.0325 101.46 47.9298C101.393 46.8881 101.029 45.9418 100.455 45.2441C99.9579 44.6516 99.3552 44.317 98.7238 44.2884Z" fill="#FFC727"/>
<path d="M93.0798 48.4937L92.6685 48.0636C93.2998 47.4519 94.8017 46.5917 95.9592 47.6718L95.5575 48.1019C94.5243 47.1365 93.1468 48.4268 93.0894 48.4842L93.0798 48.4937Z" fill="#FFC727"/>
<path d="M74.349 51.0839L73.8037 50.8449C73.9185 50.5964 74.9134 48.3599 76.2144 48.0637C77.4293 47.7865 84.5179 47.8821 84.8527 47.8916L84.8336 48.4842C82.5473 48.4268 77.2858 48.4269 76.3388 48.6467C75.4778 48.8474 74.5977 50.4817 74.3299 51.0934L74.349 51.0839Z" fill="#FFC727"/>
<path d="M79.113 50.6729C79.113 50.6729 76.1761 45.55 73.8802 46.5535C71.5843 47.5571 73.488 54.7731 75.9752 55.9583C78.4625 57.1434 79.6008 54.8687 79.6008 54.8687L79.113 50.6729Z" fill="#F9A97D"/>
<path d="M74.4732 48.6084C74.4732 48.6084 74.4158 48.6562 74.4541 48.6753C76.1951 49.5642 76.9891 51.3228 77.4961 53.1101C77.0178 52.3933 76.3195 51.9632 75.3724 52.5175C75.3246 52.5462 75.3629 52.6227 75.4107 52.6227C76.1664 52.5271 76.683 52.7087 77.1326 53.3395C77.4483 53.7887 77.6396 54.343 77.8501 54.8496C77.9171 55.0216 78.2232 54.9547 78.1753 54.7636C78.1753 54.754 78.1753 54.7349 78.1658 54.7158C78.4145 52.4219 76.9222 49.0481 74.4732 48.5989V48.6084Z" fill="#263238"/>
<path d="M87.3208 70.7918C87.3208 70.7918 87.2729 70.7631 87.2729 70.7918C87.1294 73.6591 86.6033 80.2921 81.9828 79.3746C80.1174 79.0114 78.5389 77.702 77.2284 76.4404C75.8891 75.1501 72.9714 71.5468 71.0485 67.59C71.0103 67.5135 70.905 67.5708 70.9242 67.6569C71.2399 68.7369 72.0817 70.6675 73.1722 72.4548C74.2245 74.1656 75.4586 75.7904 76.9605 77.1763C78.3667 78.4761 80.06 79.7951 82.0402 80.0914C83.9247 80.3781 85.4362 79.4032 86.1824 77.788C87.1677 75.6662 87.426 73.0952 87.3112 70.7918H87.3208Z" fill="#263238"/>
<path d="M62.8693 71.9769C53.0161 80.6075 27.7611 114.566 33.9601 121.839C40.2068 129.17 79.132 124.066 90.3436 120.042C93.6823 118.848 83.5803 97.8112 79.8781 96.9702C76.8074 96.2725 60.1525 101.95 59.7794 100.994C59.3585 99.9044 62.6589 92.5259 67.8725 79.0973C73.8897 63.6044 67.2028 68.1634 62.8502 71.9769H62.8693Z" fill="#F9A97D"/>
<path d="M96.3323 92.1627C104.177 91.8664 106.233 92.9846 112.719 89.2189C116.976 86.7435 120.382 88.397 117.655 92.7361C113.207 99.8184 103.172 102.332 99.4413 102.198L96.3323 92.1627Z" fill="#F9A97D"/>
<path d="M75.0474 97.5436C75.0474 97.5436 84.2214 93.5963 92.5441 92.4494C98.303 91.6561 111.017 91.3312 121.788 104.913C124.342 108.134 125.701 114.537 119.607 110.791C115.283 108.124 113.351 105.132 110.548 104.043C110.548 104.043 111.304 112.387 107.974 114.824C106.482 115.913 102.349 118.781 98.8195 120.558C98.8195 120.558 98.2264 119.889 97.595 118.943C97.595 118.943 94.266 120.922 88.4975 119.784L75.0474 97.5532V97.5436Z" fill="#F9A97D"/>
<path d="M98.1595 92.5641C100.704 94.2367 106.042 97.859 109.381 102.351C113.083 107.331 118.87 117.93 115.159 120.625C112.442 122.604 109.869 118.752 109.869 118.752C109.869 118.752 111.342 123.636 108.491 124.879C105.899 126.016 104.091 122.919 104.091 122.919C104.091 122.919 104.473 126.035 101.766 126.647C98.5039 127.383 98.2456 120.731 94.2948 118.628C93.4051 118.159 98.1595 92.5641 98.1595 92.5641Z" fill="#F9A97D"/>
<path d="M103.459 105.381C105.593 107.34 109.304 113.046 109.936 118.628C109.945 118.752 109.859 118.829 109.821 118.723C107.831 112.721 104.818 107.541 103.411 105.419C103.392 105.39 103.431 105.362 103.459 105.381Z" fill="#263238"/>
<path d="M98.5325 109.261C100.207 111.144 103.765 117.194 104.205 122.871C104.215 122.996 104.119 123.072 104.09 122.957C102.263 116.602 99.7665 111.498 98.4847 109.3C98.4655 109.271 98.5134 109.242 98.5325 109.271V109.261Z" fill="#263238"/>
<path d="M110.567 103.985C113.016 104.979 114.527 106.375 116.508 108.067C117.483 108.898 118.478 109.72 119.55 110.446C120.525 111.106 121.951 112.09 123.127 111.335C123.787 110.915 123.864 110.035 123.797 109.328C123.721 108.535 123.099 107.015 122.697 106.327C122.678 106.289 122.735 106.26 122.754 106.289C123.127 106.91 123.835 108.296 124.017 108.994C124.18 109.624 124.285 110.351 124.046 110.982C123.539 112.329 121.874 112.348 120.755 111.851C120.085 111.555 119.464 111.115 118.87 110.695C118.296 110.284 117.742 109.844 117.196 109.395C116.077 108.468 115.015 107.474 113.915 106.528C112.7 105.496 111.839 104.96 110.519 104.071C110.471 104.043 110.519 103.976 110.567 103.995V103.985Z" fill="#263238"/>
<path d="M114.958 113.381C114.451 111.88 111.514 105.543 110.509 104.043C110.481 104.005 110.538 103.966 110.567 103.995C112.346 106.05 115.006 111.307 115.58 112.97C116.153 114.604 116.785 116.688 116.613 118.437C116.345 121.065 114.556 121.39 113.896 121.457C113.111 121.533 112.346 121.294 111.696 120.864C110.969 120.386 110.299 119.488 109.859 118.752C109.84 118.714 109.888 118.666 109.916 118.704C110.72 119.832 112.136 121.008 113.59 120.96C114.221 120.941 114.872 120.721 115.302 120.243C115.809 119.679 115.924 118.895 115.933 118.169C115.962 116.525 115.484 114.91 114.958 113.371V113.381Z" fill="#263238"/>
<path d="M75.0474 97.5436L84.6615 124.382C84.6615 124.382 35.9023 130.298 32.621 121.6C29.3398 112.893 51.1126 82.2992 60.411 73.6781C71.1827 63.6904 72.0436 67.5421 68.9346 77.0424C65.6821 86.9824 59.904 101.252 59.904 101.252L75.0474 97.5436Z" fill="#3191FF"/>
<path d="M44.7223 106.623C47.0756 105.304 49.5628 104.205 52.0883 103.24C54.5851 102.284 57.1776 101.596 59.7796 101.013C61.2719 100.679 62.7738 100.42 64.2757 100.153C64.3236 100.153 64.3331 100.21 64.2853 100.22C61.6546 100.765 59.0717 101.539 56.5271 102.38C53.992 103.221 51.4761 104.1 48.9793 105.027C47.5635 105.553 46.1764 106.145 44.7797 106.719C44.7127 106.748 44.6745 106.652 44.7319 106.623H44.7223Z" fill="#263238"/>
<path d="M74.9231 97.4576C74.6743 97.4958 61.205 100.487 60.7554 100.65C60.832 100.459 63.8645 93.7684 64.3141 92.7839C64.3619 92.6883 64.4002 92.5832 64.448 92.4876C64.735 92.0575 65.0124 91.637 65.2803 91.1878C65.6247 90.6239 65.9595 90.06 66.2943 89.4961C66.3039 89.477 66.2752 89.4579 66.2656 89.477C65.9021 90.0218 65.5386 90.5761 65.175 91.1209C65.0124 91.3789 64.8498 91.637 64.6967 91.8951C65.0029 91.1973 65.2898 90.5092 65.5864 89.8019C66.0551 88.6837 66.4856 87.5559 66.9065 86.4281C66.9161 86.3898 66.8683 86.3707 66.8491 86.409C65.9499 88.3587 65.0029 90.2798 64.0941 92.2296C63.1948 94.1698 59.7605 101.348 59.7892 101.338C59.8084 101.357 74.6552 97.7157 74.9518 97.6296C75.0666 97.5914 75.0379 97.4289 74.9135 97.4481L74.9231 97.4576Z" fill="#263238"/>
<path d="M74.129 114.26C73.0767 111.268 72.0435 108.258 70.8765 105.304C70.2164 103.622 69.5563 101.94 68.8771 100.268C68.8484 100.201 68.7432 100.239 68.7623 100.306C69.6998 103.355 70.6469 106.404 71.7279 109.414C72.7993 112.406 73.8516 115.397 74.9613 118.379C75.5926 120.071 76.2718 121.734 77.0084 123.388C77.0276 123.416 77.0754 123.407 77.0658 123.368C76.224 120.291 75.1813 117.28 74.1194 114.26H74.129Z" fill="#263238"/>
<path d="M85.2354 124.85C84.8336 124.009 84.3457 122.814 83.9152 121.992C83.8004 121.772 83.6378 121.801 83.7239 122.03C84.0109 122.785 84.2309 123.617 84.5179 124.391C83.8387 124.458 83.1499 124.506 82.4707 124.582C81.6767 124.668 80.8923 124.754 80.1078 124.84C78.5581 125.003 77.0179 125.146 75.4682 125.27C72.3305 125.528 69.1927 125.72 66.0454 125.853C59.7413 126.111 53.4084 126.131 47.1138 125.729C45.3536 125.614 43.5934 125.471 41.8332 125.27C40.0539 125.07 38.1311 124.84 36.6674 124.506C36.6196 124.496 36.6005 124.573 36.6483 124.592C38.1502 125.06 39.5469 125.395 41.0966 125.624C42.6751 125.863 44.2726 126.054 45.8606 126.197C49.0366 126.475 52.2222 126.589 55.4078 126.618C61.7215 126.675 68.0448 126.446 74.3394 125.978C76.0996 125.844 77.8693 125.691 79.6295 125.519C80.5192 125.433 81.4089 125.347 82.2985 125.242C83.1882 125.137 85.3023 125.003 85.2354 124.859V124.85Z" fill="#263238"/>
<path d="M148.047 124.257H86.6606V127H148.047V124.257Z" fill="#C7C7C7"/>
<path d="M148.047 124.257V127H106.319L108.424 124.257H148.047Z" fill="#A6A6A6"/>
<path d="M114.766 127H168.491L176.258 89.1329H122.534L114.766 127Z" fill="#A6A6A6"/>
<path d="M117.273 127H170.997L178.774 89.1329H125.05L117.273 127Z" fill="#C7C7C7"/>
<path d="M152.869 106.652C152.926 108.439 151.73 110.15 150.19 110.475C148.66 110.791 147.368 109.605 147.311 107.818C147.253 106.031 148.449 104.32 149.989 103.995C151.52 103.68 152.811 104.865 152.869 106.652Z" fill="white"/>
<path d="M273.155 205.612C272.352 207.696 233.799 254.394 231.207 255.245C230.222 255.57 223.085 250.361 214.648 243.814C212.821 242.4 210.946 240.928 209.052 239.427C196.74 229.678 183.902 219.05 183.902 219.05L209.597 187.739L234.039 208.976L239.405 213.631C239.405 213.631 262.173 202.343 265.119 201.713C268.056 201.091 273.949 203.519 273.146 205.603L273.155 205.612Z" fill="#64B3FF"/>
<path d="M273.155 205.612C272.351 207.696 233.799 254.394 231.207 255.245C230.011 255.637 219.727 247.867 209.052 239.427L234.039 208.976L239.405 213.631C239.405 213.631 262.173 202.343 265.119 201.713C268.056 201.091 273.949 203.519 273.145 205.603L273.155 205.612Z" fill="#EBEBEB"/>
<path d="M273.155 205.612C272.351 207.696 233.799 254.394 231.207 255.245C230.222 255.57 223.085 250.361 214.648 243.814L239.415 213.631C239.415 213.631 262.182 202.343 265.129 201.713C268.066 201.091 273.959 203.519 273.155 205.603V205.612Z" fill="#3191FF"/>
<path d="M270.725 204.742C264.067 212.417 237.951 243.977 231.963 252.062C231.915 252.129 231.963 252.167 232.011 252.101C238.774 244.646 264.631 212.866 270.859 204.847C270.993 204.675 270.869 204.58 270.735 204.742H270.725Z" fill="#263238"/>
<path d="M260.958 203.337C259.351 205.134 258.739 207.677 259.007 209.598C259.265 211.442 260.078 213.507 261.742 214.797C261.79 214.835 261.867 214.749 261.819 214.701C259.121 211.729 258.729 206.721 261.054 203.423C261.102 203.356 261.006 203.28 260.958 203.347V203.337Z" fill="#263238"/>
<path d="M242.696 211.242C240.065 214.338 238.171 218.888 239.128 222.94C239.166 223.093 239.386 223.045 239.415 222.911C240.295 218.878 241.424 215.284 243.117 211.5C243.241 211.232 242.878 211.012 242.686 211.232L242.696 211.242Z" fill="#263238"/>
<path d="M245.633 209.598C243.002 212.694 241.108 217.244 242.065 221.306C242.103 221.459 242.323 221.411 242.352 221.277C243.232 217.244 244.361 213.65 246.054 209.865C246.178 209.598 245.815 209.378 245.623 209.598H245.633Z" fill="#263238"/>
<path d="M248.579 207.963C245.949 211.06 244.054 215.609 245.011 219.662C245.049 219.815 245.269 219.767 245.298 219.633C246.178 215.6 247.307 212.006 249 208.221C249.115 207.954 248.761 207.734 248.57 207.954L248.579 207.963Z" fill="#263238"/>
<path d="M251.516 206.319C248.885 209.416 246.991 213.965 247.948 218.018C247.986 218.171 248.206 218.123 248.235 217.989C249.115 213.956 250.244 210.362 251.937 206.577C252.052 206.31 251.698 206.09 251.507 206.31L251.516 206.319Z" fill="#263238"/>
<path d="M237.119 200.958C234.498 201.455 234.134 204.513 234.689 206.625C235.598 210.037 237.798 213.679 240.362 216.078C240.429 216.135 240.496 216.106 240.534 216.049C240.812 216.164 241.223 216.049 241.252 215.695C241.548 212.188 242.304 208.479 241.51 204.991C241.051 202.955 239.606 200.48 237.119 200.958ZM240.611 210.295C240.505 212.025 240.314 213.736 240.276 215.466C239.176 213.621 237.999 211.825 237.09 209.875C236.65 208.938 236.22 207.973 235.923 206.988C235.445 205.45 235.368 200.222 239.032 202.716C241.051 204.092 240.735 208.24 240.611 210.305V210.295Z" fill="#263238"/>
<path d="M235.1 224.823C237.769 222.443 239.319 218.983 241.118 215.963C241.299 215.648 241.041 215.323 240.735 215.256C240.735 215.189 240.697 215.122 240.611 215.141C237.128 215.609 233.216 217.292 230.499 219.547C228.815 220.933 227.333 223.638 229.179 225.568C230.92 227.394 233.541 226.228 235.1 224.833V224.823ZM231.752 225.244C227.313 225.148 230.422 220.933 231.704 219.958C232.527 219.337 233.436 218.792 234.335 218.286C236.22 217.225 238.219 216.45 240.19 215.581C239.214 217.014 238.372 218.515 237.454 219.977C236.354 221.726 234.201 225.282 231.752 225.234V225.244Z" fill="#263238"/>
<path d="M232.776 204.188L204.163 238.07L117.866 176.671L109.371 170.621C109.371 170.621 106.922 172.227 103.249 174.196C98.1402 176.939 90.6594 180.399 84.0682 181.288C73.0096 182.788 56.3739 182.406 47.2285 169.866C39.5181 159.305 42.1584 145.686 42.1584 145.686L54.3363 140.639C54.3363 140.639 83.3029 117.118 101.881 116.63C109.773 116.41 121.185 122.527 131.746 128.893C142.298 135.258 232.776 204.188 232.776 204.188Z" fill="#1C367A"/>
<path d="M109.361 170.631C109.361 170.631 106.912 172.237 103.239 174.206C96.8774 166.407 83.3698 152.204 82.9585 151.707L109.361 170.631Z" fill="#121E3F"/>
<path d="M64.9358 132.783C63.2043 133.949 61.5302 135.191 59.8274 136.396C58.1533 137.581 56.4218 138.68 54.8242 139.97C53.198 141.279 51.6578 142.684 50.1272 144.109C49.3906 144.797 48.654 145.485 47.9365 146.192C47.2286 146.899 46.4346 147.597 45.8415 148.409C45.7841 148.486 45.8989 148.572 45.9659 148.534C46.7886 148.018 47.5347 147.31 48.2905 146.689C49.1036 146.03 49.9072 145.351 50.7107 144.682C52.27 143.392 53.858 142.14 55.4078 140.84C56.9479 139.559 58.3829 138.145 59.9135 136.845C61.5493 135.449 63.2712 134.159 64.974 132.84C65.0027 132.811 64.974 132.764 64.9358 132.783Z" fill="#121E3F"/>
<path d="M223.937 200.929C222.205 202.754 220.598 204.714 218.981 206.644C217.355 208.575 215.748 210.525 214.141 212.474C210.936 216.384 207.703 220.264 204.546 224.211C202.814 226.381 201.102 228.57 199.485 230.825C199.409 230.93 199.571 231.045 199.657 230.949C203.101 227.26 206.258 223.313 209.453 219.413C212.658 215.504 215.853 211.586 219 207.629C220.722 205.459 222.492 203.309 224.08 201.044C224.147 200.948 224.004 200.852 223.927 200.929H223.937Z" fill="#37474F"/>
<path d="M159.077 205.899C154.696 202.362 144.728 195.443 140.174 192.117C135.65 188.81 131.134 185.493 126.542 182.291C125.222 181.374 123.893 180.466 122.563 179.558C121.233 178.65 119.856 177.818 118.555 176.882C118.478 176.824 118.411 176.949 118.488 177.006C119.683 177.885 120.803 178.86 121.979 179.768C123.099 180.638 124.208 181.517 125.337 182.368C127.537 184.04 129.757 185.675 131.976 187.319C136.482 190.654 141.016 193.952 145.598 197.173C148.2 198.998 156.217 204.417 158.876 206.157C159.039 206.262 159.23 206.014 159.077 205.889V205.899Z" fill="#121E3F"/>
<path d="M187.422 169.551C183.376 166.12 174.135 159.496 169.897 156.323C165.601 153.102 161.335 149.862 157.021 146.66C152.744 143.487 148.468 140.324 144.192 137.151C140.05 134.083 135.917 130.957 131.536 128.233C129.135 126.742 126.676 125.356 124.141 124.104C121.683 122.891 119.119 121.648 116.479 120.874C116.402 120.855 116.354 120.969 116.421 121.008C118.583 122.25 120.86 123.302 123.051 124.496C125.213 125.681 127.346 126.924 129.441 128.233C133.794 130.948 137.898 134.016 142.021 137.055C150.582 143.373 159.135 149.709 167.763 155.931C172.594 159.42 182.208 166.617 187.231 169.819C187.384 169.914 187.575 169.675 187.432 169.561L187.422 169.551Z" fill="#121E3F"/>
</svg>
