<svg width="273" height="273" viewBox="0 0 273 273" fill="none" xmlns="http://www.w3.org/2000/svg">
<path d="M161.165 144.962C161.165 144.962 160.041 17.4046 237.123 19.6052C274.334 20.6662 184.636 131.185 161.165 144.962Z" fill="#64B3FF"/>
<path d="M158.302 150.816C158.083 150.867 157.84 150.854 157.618 150.759C157.073 150.524 156.828 149.897 157.075 149.362C157.434 148.576 193.544 70.4362 230.26 30.034C230.658 29.5906 231.34 29.5504 231.789 29.9347C232.238 30.3191 232.272 30.9849 231.874 31.4283C195.381 71.5837 159.403 149.429 159.042 150.206C158.895 150.523 158.613 150.734 158.29 150.809L158.302 150.816Z" fill="#D5F0FF"/>
<path d="M225.004 63.3762C224.909 63.3982 224.8 63.4038 224.701 63.4072L205.724 62.4794L202.912 41.7202C202.838 41.1417 203.241 40.5897 203.846 40.5185C204.436 40.4309 204.98 40.8326 205.065 41.4182L207.637 60.4462L224.83 61.2785C225.427 61.3065 225.883 61.8065 225.848 62.3906C225.82 62.8755 225.458 63.2616 225.002 63.367L225.004 63.3762Z" fill="#D5F0FF"/>
<path d="M235.031 41.6321C234.936 41.6541 234.827 41.6597 234.728 41.6631L221.869 41.0405L219.97 27.0113C219.887 26.4349 220.3 25.8808 220.904 25.8096C221.495 25.722 222.038 26.1237 222.123 26.7093L223.791 39.0051L234.869 39.5414C235.466 39.5695 235.922 40.0695 235.887 40.6536C235.858 41.1384 235.497 41.5245 235.041 41.6299L235.031 41.6321Z" fill="#D5F0FF"/>
<path d="M212.115 79.8347C212.058 79.8479 211.992 79.8633 211.931 79.8579L194.74 80.8995L191.457 63.0897C191.355 62.5178 191.767 62.0029 192.333 61.8526C192.919 61.7465 193.487 62.1231 193.589 62.695L196.539 78.6778L211.825 77.7541C212.417 77.715 212.931 78.1626 212.964 78.7406C212.994 79.2608 212.629 79.7162 212.125 79.8325L212.115 79.8347Z" fill="#D5F0FF"/>
<path d="M200.046 104.656C199.97 104.673 199.894 104.691 199.811 104.681L180.541 104.914L180.349 104.08C179.211 98.7193 176.121 84.5162 175.653 83.1404C175.465 82.5883 175.766 81.9819 176.333 81.7924C176.907 81.5914 177.51 81.9014 177.704 82.4421C178.252 84.0337 181.427 98.7346 182.299 102.77L199.813 102.562C200.413 102.56 200.9 103.023 200.896 103.61C200.893 104.118 200.54 104.542 200.055 104.653L200.046 104.656Z" fill="#D5F0FF"/>
<path d="M183.195 124.899C183.195 124.899 183.138 124.912 183.109 124.919L168.932 127.09L165.853 108.511C165.761 107.937 166.135 107.391 166.752 107.288C167.341 107.191 167.899 107.57 167.993 108.153L170.739 124.681L182.807 122.831C183.398 122.744 183.948 123.134 184.031 123.71C184.108 124.259 183.746 124.772 183.195 124.899Z" fill="#D5F0FF"/>
<path d="M138.603 148.487C138.603 148.487 104.596 -4.9172 12.6928 19.0899C-31.6725 30.6774 106.614 138.457 138.603 148.487Z" fill="#64B3FF"/>
<path d="M143.662 154.719C143.938 154.719 144.227 154.637 144.467 154.461C145.056 154.028 145.176 153.207 144.731 152.633C144.082 151.79 79.0846 68.017 23.8203 29.7041C23.2195 29.2823 22.3903 29.4229 21.9577 30.0087C21.5251 30.5945 21.6694 31.403 22.2702 31.8248C77.198 69.9033 141.955 153.36 142.604 154.192C142.869 154.531 143.265 154.707 143.674 154.707L143.662 154.719Z" fill="#D5F0FF"/>
<path d="M39.3699 68.2639C39.49 68.2639 39.6222 68.2405 39.7424 68.217L62.2615 61.8433L59.8822 36.149C59.8101 35.4343 59.1732 34.8837 58.4282 34.9657C57.6952 35.0243 57.1544 35.657 57.2145 36.3834L59.4015 59.9335L38.9973 65.698C38.2884 65.8972 37.8798 66.6236 38.0841 67.3149C38.2523 67.889 38.7931 68.2522 39.3699 68.2522V68.2639Z" fill="#D5F0FF"/>
<path d="M21.3088 44.9463C21.429 44.9463 21.5611 44.9229 21.6813 44.8994L36.9424 40.5878L35.3322 23.224C35.2721 22.5093 34.6232 21.9586 33.8782 22.0406C33.1452 22.0992 32.6044 22.7319 32.6645 23.4583L34.0704 38.678L20.9243 42.3921C20.2153 42.5913 19.8067 43.3177 20.011 44.009C20.1792 44.5831 20.72 44.9463 21.2968 44.9463H21.3088Z" fill="#D5F0FF"/>
<path d="M59.401 84.4445C59.4731 84.4445 59.5572 84.4445 59.6293 84.4211L80.5502 80.9061L79.5528 58.6214C79.5167 57.9067 78.8799 57.4029 78.1589 57.3795C77.4258 57.4146 76.8491 58.0239 76.8851 58.7386L77.7743 78.7386L59.1726 81.8669C58.4516 81.984 57.959 82.6636 58.0791 83.3666C58.1873 83.9993 58.7521 84.4445 59.3889 84.4445H59.401Z" fill="#D5F0FF"/>
<path d="M80.7668 110.888C80.8629 110.888 80.959 110.888 81.0552 110.853L104.247 105.792V104.737C104.127 97.9886 103.899 80.0859 104.079 78.305C104.151 77.5903 103.622 76.9459 102.889 76.8756C102.144 76.7936 101.507 77.3325 101.423 78.0355C101.207 80.0976 101.471 98.6213 101.543 103.706L80.4663 108.311C79.7453 108.475 79.2887 109.166 79.457 109.869C79.6012 110.478 80.1419 110.888 80.7547 110.888H80.7668Z" fill="#D5F0FF"/>
<path d="M106.602 130.513C106.602 130.513 106.674 130.513 106.71 130.513L124.327 129.189L122.873 106.038C122.825 105.323 122.224 104.772 121.455 104.819C120.722 104.866 120.157 105.475 120.205 106.202L121.491 126.799L106.494 127.924C105.761 127.983 105.208 128.604 105.268 129.318C105.329 129.998 105.905 130.513 106.602 130.513Z" fill="#D5F0FF"/>
<path d="M123.488 148.012C123.488 148.012 69.764 80.0579 29.926 114.046C10.6942 130.453 105.205 150.719 123.488 148.012Z" fill="#64B3FF"/>
<path d="M127.495 149.889C127.632 149.823 127.756 149.713 127.833 149.568C128.021 149.212 127.883 148.776 127.525 148.598C127 148.335 74.6239 122.378 37.9973 116.641C37.5979 116.576 37.2202 116.844 37.1463 117.239C37.0723 117.634 37.3381 118 37.7375 118.065C74.1409 123.767 126.322 149.625 126.844 149.882C127.057 149.987 127.296 149.979 127.498 149.881L127.495 149.889Z" fill="#D5F0FF"/>
<path d="M54.9759 132.04C55.0355 132.011 55.0955 131.967 55.1495 131.927L64.7931 123.355L57.4405 111.176C57.233 110.839 56.7847 110.719 56.4347 110.938C56.0851 111.144 55.9687 111.587 56.173 111.933L62.9151 123.094L54.1747 130.856C53.8708 131.125 53.8425 131.584 54.1099 131.878C54.3313 132.122 54.6869 132.172 54.9731 132.034L54.9759 132.04Z" fill="#D5F0FF"/>
<path d="M40.4124 124.807C40.472 124.779 40.532 124.735 40.586 124.695L47.1232 118.889L42.1533 110.66C41.9518 110.32 41.4975 110.202 41.1475 110.422C40.7979 110.627 40.6815 111.071 40.8858 111.417L45.2393 118.631L39.608 123.632C39.3041 123.901 39.2758 124.36 39.5432 124.654C39.7646 124.898 40.1202 124.949 40.4064 124.81L40.4124 124.807Z" fill="#D5F0FF"/>
<path d="M68.8024 135.257C68.8382 135.24 68.8799 135.22 68.9101 135.191L78.4473 128.421L72.5994 117.603C72.4099 117.257 71.9728 117.16 71.6094 117.321C71.2541 117.515 71.1142 117.956 71.3038 118.302L76.5492 128.013L68.07 134.033C67.7403 134.265 67.6591 134.72 67.8876 135.04C68.0932 135.328 68.4804 135.413 68.7965 135.26L68.8024 135.257Z" fill="#D5F0FF"/>
<path d="M85.7567 143.248C85.8044 143.224 85.8521 143.201 85.8914 143.161L96.184 135.078L95.9308 134.555C94.25 131.235 89.8364 122.406 89.4981 121.479C89.3622 121.107 88.945 120.914 88.5644 121.056C88.175 121.194 87.9884 121.614 88.1155 121.983C88.5035 123.058 93.0842 132.187 94.3414 134.693L84.9885 142.041C84.6701 142.295 84.6095 142.748 84.8619 143.056C85.0798 143.324 85.4466 143.398 85.7507 143.25L85.7567 143.248Z" fill="#D5F0FF"/>
<path d="M103.291 146.78C103.291 146.78 103.327 146.763 103.345 146.754L111.768 141.866L105.486 130.726C105.29 130.383 104.86 130.254 104.489 130.462C104.137 130.662 104.003 131.1 104.201 131.449L109.787 141.361L102.615 145.521C102.266 145.726 102.14 146.167 102.342 146.507C102.535 146.83 102.945 146.947 103.291 146.78Z" fill="#D5F0FF"/>
<g clip-path="url(#clip0_162_164)">
<path d="M115.9 148.87L113.53 163.1L97.4599 249.92H94.8599L106.55 163.1L108.28 148.87H115.9Z" fill="#DBDBDB"/>
<path d="M108.28 148.87H115.9L113.53 163.1H106.55L108.28 148.87Z" fill="#A6A6A6"/>
<path d="M166.39 249.92H163.8L147.72 163.1L145.35 148.87H152.97L154.7 163.1L166.39 249.92Z" fill="#9C5454"/>
<path d="M152.97 148.87L154.7 163.1H147.72L145.35 148.87H152.97Z" fill="#873B3B"/>
<path d="M214.61 249.92H212.02L195.94 163.1L193.57 148.87H201.19L202.92 163.1L214.61 249.92Z" fill="#9C5454"/>
<path d="M202.92 163.1H195.94L193.57 148.87H201.19L202.92 163.1Z" fill="#873B3B"/>
<path d="M210.5 155.55H92.6999V143.14H136.8L151.62 78.5H206.01L210.5 155.55Z" fill="#455A64"/>
<path d="M210.5 155.55H204.08L199.89 78.5H206.01L210.5 155.55Z" fill="#3E515A"/>
<path d="M26.8799 235.68C28.9799 236.91 93.7399 250.45 96.5399 249.4C97.5999 249.01 100.12 239.69 102.85 228.35C103.44 225.9 104.03 223.37 104.62 220.79C108.46 204.07 112.14 186.24 112.14 186.24L68.8499 177.06L62.5199 211.86L61.1199 219.5C61.1199 219.5 34.0099 225.41 31.0699 226.88C28.1399 228.36 24.7799 234.45 26.8799 235.67V235.68Z" fill="#EBEBEB"/>
<path d="M26.6598 235.73C28.7798 236.97 93.8898 250.58 96.7098 249.53C98.0098 249.05 101.48 235.32 104.84 220.76L62.5098 211.78L61.1098 219.46C61.1098 219.46 33.8498 225.4 30.8898 226.88C27.9398 228.37 24.5598 234.49 26.6798 235.72L26.6598 235.73Z" fill="#3191FF"/>
<path d="M28.1398 233.32C39.1098 235.33 83.1698 244.49 93.8698 247.32C93.9598 247.34 93.9398 247.4 93.8598 247.39C82.9398 245.63 38.9498 236.12 28.1098 233.5C27.8798 233.44 27.9198 233.28 28.1498 233.32H28.1398Z" fill="#263238"/>
<path d="M60.0699 216.72C64.5299 216.82 69.6499 218.57 72.2899 222.32C72.3899 222.47 72.1799 222.61 72.0499 222.54C68.0899 220.32 64.3099 218.63 59.9699 217.27C59.6599 217.17 59.7499 216.72 60.0699 216.72Z" fill="#263238"/>
<path d="M56.5799 217.94C61.0399 218.04 66.1599 219.79 68.7999 223.54C68.8999 223.69 68.6899 223.83 68.5599 223.76C64.5999 221.54 60.8199 219.85 56.4799 218.49C56.1699 218.39 56.2599 217.94 56.5799 217.94Z" fill="#263238"/>
<path d="M53.0799 219.16C57.5399 219.26 62.6599 221.01 65.2999 224.76C65.3999 224.91 65.1899 225.05 65.0599 224.98C61.0999 222.76 57.3199 221.07 52.9799 219.71C52.6699 219.61 52.7599 219.16 53.0799 219.16Z" fill="#263238"/>
<path d="M49.5899 220.38C54.0499 220.48 59.1699 222.23 61.8099 225.98C61.9099 226.13 61.6999 226.27 61.5699 226.2C57.6099 223.98 53.8299 222.29 49.4899 220.93C49.1799 220.83 49.2699 220.38 49.5899 220.38Z" fill="#263238"/>
<path d="M54.2099 205.12C56.3799 203.15 59.3099 204.85 60.7899 206.73C63.1799 209.78 64.9299 214.12 65.3499 217.95C65.3599 218.04 65.2899 218.09 65.2199 218.08C65.1399 218.4 64.7699 218.69 64.4299 218.48C61.1599 216.43 57.3999 214.63 54.8599 211.64C53.3699 209.89 52.1599 206.99 54.2099 205.12ZM60.0999 214.35C61.6799 215.4 63.3099 216.37 64.8599 217.47C63.9599 215.28 63.1699 213.07 62.0499 210.97C61.5199 209.97 60.9499 208.95 60.2899 208.03C59.2599 206.6 54.7099 203.07 54.4899 207.94C54.3599 210.63 58.2199 213.09 60.1099 214.34L60.0999 214.35Z" fill="#263238"/>
<path d="M76.4998 219.12C72.6398 219.89 68.5898 218.96 64.7498 218.54C64.3498 218.5 64.2398 218.05 64.3798 217.74C64.3198 217.7 64.2898 217.62 64.3598 217.55C67.0698 214.81 71.1298 212.49 74.8998 211.59C77.2298 211.03 80.5798 211.52 81.0598 214.41C81.5098 217.15 78.7498 218.67 76.4998 219.12ZM79.0798 216.46C81.9298 212.5 76.1698 212.45 74.4698 212.93C73.3798 213.24 72.2998 213.68 71.2698 214.14C69.0898 215.09 67.0998 216.33 65.0398 217.49C66.9398 217.58 68.8099 217.84 70.7099 218C72.9699 218.19 77.5198 218.66 79.0898 216.47L79.0798 216.46Z" fill="#263238"/>
<path d="M86.4299 271.35C88.7799 272 154.85 268.59 157.28 266.87C158.21 266.22 158.5 239.7 157.8 237.15C155.46 228.51 145.16 202.48 145.16 202.48L100.96 204.63L114.82 239.24L115.42 246.98C115.42 246.98 90.7099 259.6 88.2399 261.78C85.7799 263.96 84.0799 270.7 86.4299 271.35Z" fill="#EBEBEB"/>
<path d="M86.2299 271.46C88.5899 272.12 155.03 268.69 157.48 266.95C158.61 266.15 158.47 251.99 158.01 237.06L114.78 239.17L115.38 246.95C115.38 246.95 90.5299 259.64 88.0499 261.83C85.5799 264.02 83.8699 270.8 86.2299 271.46Z" fill="#3191FF"/>
<path d="M87.0498 268.75C98.1698 267.9 143.11 265.53 154.17 265.53C154.26 265.53 154.26 265.59 154.17 265.6C143.16 266.68 98.1998 268.69 87.0498 268.93C86.8098 268.93 86.8098 268.77 87.0498 268.75Z" fill="#263238"/>
<path d="M113.68 244.56C118.02 243.52 123.42 243.91 126.93 246.86C127.07 246.97 126.9 247.17 126.76 247.13C122.37 245.99 118.28 245.32 113.73 245.11C113.41 245.1 113.37 244.63 113.68 244.56Z" fill="#263238"/>
<path d="M110.62 246.63C114.96 245.59 120.35 245.98 123.86 248.93C124 249.04 123.83 249.24 123.69 249.2C119.3 248.06 115.21 247.39 110.66 247.18C110.34 247.17 110.3 246.7 110.61 246.63H110.62Z" fill="#263238"/>
<path d="M107.55 248.7C111.89 247.66 117.28 248.05 120.79 251C120.93 251.11 120.76 251.31 120.62 251.27C116.23 250.13 112.14 249.46 107.59 249.25C107.27 249.24 107.23 248.77 107.54 248.7H107.55Z" fill="#263238"/>
<path d="M104.49 250.77C108.83 249.73 114.23 250.12 117.74 253.07C117.88 253.18 117.71 253.38 117.57 253.34C113.18 252.2 109.09 251.53 104.54 251.32C104.22 251.31 104.18 250.84 104.49 250.77Z" fill="#263238"/>
<path d="M105.07 234.84C106.67 232.38 109.93 233.28 111.84 234.72C114.93 237.06 117.73 240.81 119.11 244.41C119.14 244.5 119.09 244.56 119.01 244.57C119.01 244.9 118.73 245.27 118.35 245.15C114.66 244 110.58 243.22 107.35 240.97C105.47 239.66 103.55 237.16 105.06 234.83L105.07 234.84ZM113.12 242.27C114.92 242.88 116.74 243.4 118.52 244.08C117.1 242.19 115.76 240.26 114.15 238.51C113.38 237.68 112.57 236.84 111.7 236.12C110.34 235 105.04 232.74 106.06 237.51C106.62 240.14 110.98 241.54 113.12 242.27Z" fill="#263238"/>
<path d="M130.18 242.7C126.65 244.43 122.49 244.56 118.67 245.13C118.27 245.19 118.05 244.78 118.11 244.45C118.04 244.42 117.99 244.36 118.04 244.27C119.96 240.93 123.3 237.65 126.72 235.82C128.83 234.69 132.19 234.3 133.39 236.98C134.53 239.51 132.25 241.69 130.18 242.69V242.7ZM132 239.47C133.74 234.92 128.17 236.33 126.65 237.23C125.67 237.81 124.75 238.51 123.86 239.21C122 240.68 120.38 242.39 118.68 244.04C120.54 243.64 122.42 243.41 124.29 243.09C126.52 242.7 131.04 241.99 132 239.48V239.47Z" fill="#263238"/>
<path d="M187.82 138.13C174.65 152.8 130.41 141.21 127.76 147.05C125.43 152.2 157.82 232.56 157.82 232.56L110.98 236.82C110.98 236.82 65.5998 148.77 80.5098 122.39C88.5598 108.14 124.05 113.82 145.46 111.22C151.92 110.43 154.95 97.11 154.95 97.11H193.22C193.22 97.11 202.87 121.36 187.82 138.13Z" fill="#1D2F5F"/>
<path d="M93.9398 114.22L134.51 145.27C147.98 144.98 177.47 149.65 187.81 138.13C202.87 121.36 193.21 97.12 193.21 97.12H154.95C154.95 97.12 151.92 110.44 145.46 111.23C130.43 113.05 108.49 110.81 93.9398 114.23V114.22Z" fill="#263238"/>
<path d="M108.29 227.72C109.62 227.3 122.15 225.91 124.91 225.61C130.44 225.01 147.85 223.39 151.01 223.39C151.09 223.39 151.11 223.52 151.03 223.54C148.29 224.11 137.18 225.41 134.42 225.7C128.88 226.27 109.86 228.11 108.32 227.96C108.18 227.95 108.17 227.77 108.3 227.72H108.29Z" fill="#263238"/>
<path d="M121.52 141.49C124.63 139.94 140.2 140.56 146.77 140.41C150.07 140.33 153.37 140.25 156.68 140.17C159.61 140.1 162.54 140.07 165.46 139.84C170.97 139.42 176.49 138.15 180.69 134.54C184.47 131.29 186.91 126.79 188.21 122.15C189.83 116.38 189.67 110.36 189.39 104.44C189.32 102.98 189.22 101.53 189.13 100.08C189.13 100 189.27 99.98 189.28 100.06C190.56 110.65 191.55 122.49 184.66 131.67C181.63 135.7 177.38 138.47 172.34 139.75C166.69 141.18 160.7 141.02 154.9 141.15C148.38 141.3 141.86 141.44 135.34 141.59C132.08 141.66 123.84 141.77 122.49 142.8C120.88 144.03 130.19 172.79 132.42 178.63C136.9 190.37 141.3 202.14 145.68 213.92C146.21 215.34 147.68 219.45 148.17 220.88C148.26 221.15 147.79 221.33 147.68 221.06C145.24 215.27 142.07 206.71 139.79 200.86C137.51 195.04 135.23 189.21 132.98 183.38C128.44 171.61 118.83 142.82 121.53 141.47L121.52 141.49Z" fill="#263238"/>
<path d="M78.7799 124.95C81.3499 119.29 86.2499 115.57 93.8999 114.19C94.0299 114.17 94.0199 114.36 93.8999 114.39C87.2299 116.34 82.4999 118.94 79.7299 124.5C78.4999 126.96 77.5199 130.97 77.6599 135.93C77.9999 147.11 81.9799 163.31 84.2599 171.06C86.5399 178.83 89.2599 186.46 92.1599 194.01C95.0799 201.6 101.76 217.34 102.2 218.31C102.24 218.4 102.12 218.46 102.07 218.38C99.0299 213.27 89.5899 190.42 84.3199 173.79C81.8199 165.9 73.2699 137.1 78.7799 124.96V124.95Z" fill="#263238"/>
<path d="M61.3098 209.65L102.15 218.36C102.15 218.36 69.0298 131.29 82.5898 120.18C86.3498 117.1 94.5398 116.02 104.27 120.23C118.8 126.51 135.63 139.31 151.49 143.99C166.35 148.37 183.98 144.34 190.05 137.66C202.8 123.63 193.21 97.11 193.21 97.11L147.83 95.14C147.83 95.14 148.76 97.16 146.25 99.39C146.25 99.39 107.95 90.99 94.5098 99.2C70.2698 114.01 61.3098 209.66 61.3098 209.66V209.65Z" fill="#1C367A"/>
<path d="M170.49 100.18C170.52 100.08 170.67 100.1 170.67 100.21C170.74 102.2 170.66 104.15 171.13 106.11C171.58 107.97 172.42 109.64 173.78 111.01C176.66 113.93 180.8 114.92 184.58 116.11C184.78 116.17 184.74 116.52 184.52 116.49C180.32 115.85 175.91 114.78 172.85 111.63C171.44 110.18 170.5 108.33 170.14 106.35C169.78 104.36 169.83 102.1 170.5 100.17L170.49 100.18Z" fill="#263238"/>
<path d="M83.4998 118.53C89.1298 115 97.9198 117.68 102.13 119.29C102.22 119.32 102.18 119.47 102.09 119.43C98.2198 118.04 88.5798 115.93 83.4298 119.58C71.5298 128.01 90.2398 183.35 102.16 217.88C102.33 218.37 101.93 218.24 101.71 217.77C99.9898 214.01 82.4498 167.49 79.5298 145.45C78.9898 141.37 75.3998 123.61 83.5098 118.52L83.4998 118.53Z" fill="#263238"/>
<path d="M66.3299 201.25C67.4399 201.22 76.9199 203.31 78.9999 203.78C83.1799 204.72 96.2399 207.92 98.4999 208.78C98.5599 208.8 98.5199 208.93 98.4599 208.92C96.2899 208.71 87.8599 206.91 85.7799 206.43C81.6099 205.46 67.3099 202.03 66.2599 201.47C66.1699 201.42 66.2199 201.25 66.3299 201.24V201.25Z" fill="#263238"/>
<path d="M85.2898 117.04C89.0798 114.97 93.5798 114.63 97.7798 115.15C102.23 115.7 106.47 117.28 110.54 119.14C119.1 123.05 127.25 127.83 135.82 131.73C144.34 135.6 153.43 138.63 162.82 138.92C170.85 139.17 181 137.75 186.16 130.53C194.11 119.41 189.48 100.23 189.39 98.99C189.39 98.89 189.51 98.9 189.54 98.99C195.71 122.57 187.77 131.72 182.42 135.57C178.17 138.63 172.05 139.4 168.02 139.74C158.68 140.53 149.32 138.24 140.66 134.79C131.79 131.26 123.47 126.5 114.97 122.15C106.82 117.98 97.7298 113.68 88.4298 116.07C87.3798 116.34 86.3398 116.71 85.3298 117.13C85.2798 117.15 85.2498 117.07 85.2898 117.04Z" fill="#263238"/>
<path d="M145.01 2.8C138.32 3.96 135.01 12.36 133.49 19.68C131.97 27 132.84 32.86 127.79 36.63C127.79 36.63 131.95 44.24 147.96 45.46C161.25 46.47 168.77 43.63 168.77 43.63C168.77 43.63 170.9 35.45 170.9 27.14C170.9 18.18 168.57 8.9 162.46 4.7C152.26 -2.32 145.01 2.8 145.01 2.8Z" fill="#171717"/>
<path d="M145.01 2.79999C143.39 3.13999 141.91 3.93999 140.65 4.94999C139.36 5.93999 138.29 7.17999 137.42 8.54999C135.66 11.27 134.67 14.42 133.85 17.6C133.01 20.78 132.5 24.04 131.7 27.28C131.29 28.89 130.84 30.52 130.1 32.04C129.35 33.54 128.25 34.94 126.76 35.7C128.13 34.74 129.07 33.35 129.66 31.84C130.28 30.33 130.65 28.73 130.96 27.12C131.56 23.89 132.06 20.6 132.88 17.36C133.72 14.15 134.78 10.88 136.77 8.11999C137.76 6.74999 138.95 5.50999 140.35 4.55999C141.76 3.64999 143.34 2.91999 145.01 2.80999V2.79999Z" fill="#263238"/>
<path d="M158.18 2.35001C161.73 3.58001 164.74 6.25001 166.94 9.43001C169.16 12.64 170.45 16.46 171.11 20.32C171.72 24.21 171.66 28.17 171.26 32.04C170.86 35.91 170.3 39.75 169.55 43.56L170.08 37.77C170.26 35.84 170.42 33.91 170.53 31.98C170.77 28.13 170.84 24.27 170.17 20.5C169.6 16.73 168.35 13.06 166.33 9.88001C165.34 8.28001 164.13 6.82001 162.76 5.55001C161.4 4.26001 159.87 3.16001 158.17 2.37001L158.18 2.35001Z" fill="#263238"/>
<path d="M158.09 49.89C154.31 65.26 145.16 89.13 137.07 89.01C129.69 88.89 113.21 75.8 106.32 71.51C99.3799 67.19 114.9 50.31 118.85 53.05C124.98 57.29 134.15 64.86 135.7 64.36C137.63 63.74 140.09 58.99 151.1 44.98C155.61 39.25 159.69 43.35 158.09 49.89Z" fill="#F6AC83"/>
<path d="M111.43 46.53C108.18 45.38 104.54 43.8 100.93 43.87C97.3198 43.94 94.3198 48.71 94.3198 50.08C94.3198 51.45 95.6798 59.97 99.2998 59.97C102.91 59.97 100.73 53.42 100.87 52.67C101.01 51.92 101.14 50.96 101.82 51.03C102.5 51.1 114.44 56.76 114.44 56.76L111.44 46.53H111.43Z" fill="#F6AC83"/>
<path d="M111.2 47.03C111 47.03 101.31 43.21 97.6998 43.28C94.0898 43.35 91.0898 48.12 91.0898 49.49C91.0898 50.86 92.4498 59.38 96.0698 59.38C99.6798 59.38 97.4998 52.83 97.6398 52.08C97.7798 51.33 97.9098 50.37 98.5898 50.44C99.2698 50.51 111.21 56.17 111.21 56.17V47.03H111.2Z" fill="#F6AC83"/>
<path d="M97.2899 58.91C97.7399 58.34 97.8099 57.48 97.8899 56.77C97.9799 56 97.9099 55.22 97.7599 54.46C97.6299 53.8 97.3499 53.15 97.3199 52.47C97.2999 51.85 97.5199 51.1 97.8199 50.56C98.0999 50.05 98.6299 50.23 99.0899 50.39C99.7599 50.63 100.42 50.96 101.06 51.28C101.75 51.62 102.43 51.98 103.12 52.33C103.82 52.69 104.57 53.03 105.22 53.48C105.27 53.51 105.24 53.6 105.18 53.58C104.55 53.36 103.95 53.04 103.35 52.76C102.66 52.44 101.98 52.12 101.28 51.81C100.63 51.52 99.9999 51.2 99.3499 50.92C99.1199 50.82 98.6599 50.58 98.3999 50.63C98.1199 50.69 97.9899 51.37 97.9299 51.59C97.7399 52.28 97.8599 52.87 98.0599 53.54C98.2399 54.19 98.3799 54.85 98.4299 55.52C98.4799 56.14 98.4599 56.8 98.2799 57.4C98.1099 57.98 97.7199 58.44 97.4199 58.95C97.3799 59.02 97.2599 58.95 97.3099 58.88L97.2899 58.91Z" fill="#263238"/>
<path d="M122.67 56.51C122.67 56.51 112.65 47.38 110.57 45.57C106.39 41.93 88.7699 34.74 86.3199 34.48C83.8699 34.22 82.9799 39.25 94.9299 44.48C101.23 47.24 102.35 50.84 102.23 52.84C102.11 54.84 100.2 58.57 96.8399 58.48C93.4799 58.39 91.2899 53.48 88.1999 52.93C85.1099 52.38 87.1499 58.05 89.3299 61.32C91.5099 64.59 95.4699 67.29 98.3799 68.38C101.29 69.47 110.29 73.35 110.29 73.35L122.66 56.5L122.67 56.51Z" fill="#F6AC83"/>
<path d="M92.6599 56.12C93.9299 57.1 95.3599 58.37 97.0299 58.43C98.7499 58.5 99.8699 57.38 100.67 55.97C101.48 54.55 101.95 52.94 101.55 51.32C101.2 49.86 100.33 48.57 99.2499 47.55C97.9099 46.28 96.3299 45.34 94.6899 44.52C94.6199 44.48 94.6899 44.38 94.7599 44.41C96.3099 45.1 101.12 47.07 102.09 51.33C102.48 53.07 101.96 54.62 101.15 56.07C100.4 57.41 99.3199 58.7 97.6899 58.83C95.6999 58.99 93.9899 57.38 92.5599 56.17C92.4999 56.12 92.5899 56.07 92.6599 56.12Z" fill="#263238"/>
<path d="M155.43 81.67L136.39 63.66C136.39 63.66 141.49 56.22 148.59 47.31C155.48 38.67 159.83 39.02 159.65 54.38C159.47 69.74 155.42 81.67 155.42 81.67H155.43Z" fill="#3191FF"/>
<path d="M139.03 60.87C140.59 62.04 141.99 63.46 143.45 64.76C144.84 66 146.23 67.24 147.58 68.53C150.38 71.2 153.12 73.92 155.81 76.7C155.86 76.75 155.78 76.83 155.73 76.79C152.87 74.25 150.04 71.68 147.24 69.07C145.85 67.77 144.49 66.44 143.14 65.1C141.75 63.73 140.24 62.44 138.95 60.96C138.91 60.91 138.97 60.83 139.03 60.87Z" fill="#263238"/>
<path opacity="0.1" d="M159.66 54.37C159.49 69.73 155.43 81.67 155.43 81.67L136.68 63.93L156.48 41.71C158.6 42.37 159.76 46.29 159.66 54.37Z" fill="black"/>
<path d="M139.64 101.77L196.89 102.7C196.89 102.7 181.82 56.07 169.91 43.57C164.49 37.88 159.25 38.81 154.84 42.54C153.74 43.47 140.14 61.05 139.03 67.15C138.05 72.54 142.47 78.47 142.47 78.47L139.64 101.77Z" fill="#64B3FF"/>
<path opacity="0.1" d="M166.43 40.78H157.36C156.83 41.07 156.31 41.4 155.8 41.78H167.92C167.42 41.39 166.93 41.06 166.43 40.78ZM171.73 45.72H152.22C152.5 45.36 152.76 45.02 153 44.72H170.92C171.19 45.04 171.46 45.37 171.72 45.72H171.73ZM174.47 49.67H149.26C149.51 49.33 149.76 48.98 150.01 48.66H173.82C174.04 48.99 174.26 49.33 174.47 49.67ZM176.79 53.61H146.45C146.69 53.27 146.92 52.93 147.15 52.61H176.22C176.41 52.94 176.59 53.28 176.78 53.61H176.79ZM178.88 57.55H143.83C144.04 57.22 144.26 56.88 144.48 56.55H178.36C178.53 56.88 178.7 57.21 178.88 57.55ZM180.82 61.5H141.46C141.63 61.17 141.82 60.84 142.02 60.5H180.33C180.49 60.83 180.66 61.16 180.82 61.5ZM182.64 65.44H139.55C139.66 65.12 139.81 64.79 139.96 64.44H182.18C182.33 64.77 182.49 65.11 182.64 65.44ZM184.38 69.39H138.9C138.88 69.06 138.87 68.72 138.9 68.39H183.95C184.09 68.72 184.24 69.06 184.38 69.39ZM186.04 73.33H139.76C139.65 73 139.53 72.67 139.43 72.33H185.62C185.76 72.66 185.9 73 186.04 73.33ZM187.64 77.28H141.69C141.51 76.98 141.31 76.65 141.11 76.27H187.24C187.37 76.61 187.51 76.95 187.64 77.28ZM189.19 81.22H142.14L142.26 80.22H188.8C188.93 80.55 189.07 80.89 189.19 81.22ZM190.69 85.16H141.66L141.78 84.16H190.31C190.44 84.49 190.58 84.84 190.69 85.16ZM192.16 89.11H141.18L141.3 88.11H191.79C191.91 88.45 192.04 88.79 192.16 89.11ZM193.58 93.05H140.7L140.81 92.05H193.22C193.35 92.39 193.47 92.73 193.58 93.05ZM194.97 97H140.23L140.34 96H194.62C194.73 96.34 194.85 96.68 194.96 97H194.97ZM196.31 100.94H139.74L139.86 99.94H195.97C196.09 100.31 196.21 100.65 196.3 100.94H196.31Z" fill="#3191FF"/>
<path d="M150.75 76.09C153.27 76.3 155.8 76.6 158.28 77.26C159.51 77.59 160.73 77.98 161.94 78.41C162.54 78.62 163.15 78.81 163.76 78.99C164.39 79.18 165.06 79.35 165.7 79.35C165.76 79.35 165.76 79.45 165.7 79.46C165.07 79.51 164.48 79.55 163.85 79.5C163.25 79.45 162.65 79.32 162.07 79.17C160.82 78.85 159.58 78.47 158.33 78.13C155.81 77.46 153.29 76.79 150.73 76.34C150.61 76.32 150.63 76.08 150.75 76.09Z" fill="#263238"/>
<path d="M144.66 79.07C146.71 78.73 148.8 78.5 150.88 78.44C151.92 78.41 152.96 78.45 154 78.53C154.5 78.57 155 78.62 155.49 78.67C156.04 78.73 156.58 78.88 157.13 78.93C157.19 78.93 157.19 79.04 157.13 79.04C156.61 79.01 156.09 79.09 155.58 79.09C155.06 79.09 154.54 79.09 154.02 79.11C152.98 79.12 151.94 79.15 150.9 79.15C148.82 79.15 146.75 79.18 144.67 79.28C144.56 79.28 144.56 79.09 144.67 79.07H144.66Z" fill="#263238"/>
<path d="M163.45 41.33C163.41 42.37 159.93 49.71 155.37 50.38C153.88 50.59 152.35 42.53 152.35 42.53L152.1 41.96L148.62 33.98L157.2 25.79L158.45 24.68C158.45 24.68 159.26 26.93 160.24 29.73C160.29 29.86 160.33 29.99 160.38 30.13C160.44 30.29 160.5 30.44 160.55 30.58C160.7 31 160.85 31.42 161 31.85C161.11 32.18 161.22 32.49 161.32 32.84C161.43 33.18 161.54 33.52 161.65 33.87C162.69 37.29 163.47 40.89 163.46 41.33H163.45Z" fill="#F6AC83"/>
<path d="M160.23 29.74C159.13 36.84 154.35 40.58 152.1 41.96L148.62 33.98L157.2 25.79L158.45 24.68C158.45 24.68 159.26 26.93 160.24 29.73L160.23 29.74Z" fill="#263238"/>
<path d="M135.41 23.75C138.41 38.73 147.72 38.63 150.95 37.98C153.88 37.39 163.79 35.01 162.36 19.8C160.93 4.58999 153.01 1.24999 146.24 2.23999C139.46 3.22999 132.42 8.76999 135.42 23.75H135.41Z" fill="#F6AC83"/>
<path d="M137.01 20.74C137.35 20.62 137.65 20.46 137.97 20.3C138.34 20.13 138.65 20.03 138.86 19.67C138.98 19.48 138.89 19.15 138.71 19.02C138.3 18.71 137.79 18.81 137.34 19C136.85 19.2 136.53 19.49 136.28 19.95C136.04 20.4 136.55 20.89 137 20.73L137.01 20.74Z" fill="#263238"/>
<path d="M147.23 18.43C146.87 18.47 146.53 18.44 146.17 18.44C145.77 18.44 145.44 18.48 145.09 18.25C144.9 18.12 144.84 17.8 144.95 17.6C145.19 17.15 145.69 17.02 146.18 17C146.71 16.98 147.12 17.1 147.55 17.41C147.96 17.72 147.71 18.37 147.23 18.42V18.43Z" fill="#263238"/>
<path d="M145.68 22.62C145.68 22.62 145.77 22.65 145.78 22.69C145.95 23.72 146.32 24.86 147.31 25.02C147.34 25.02 147.35 25.08 147.31 25.08C146.15 25.15 145.68 23.62 145.68 22.62Z" fill="#263238"/>
<path d="M146.38 21.37C148 20.92 148.78 24.19 147.28 24.6C145.81 25.01 145.02 21.74 146.38 21.37Z" fill="#263238"/>
<path d="M147.06 21.39C147.39 21.51 147.75 21.77 148.1 21.72C148.51 21.66 148.73 21.25 148.91 20.86C148.93 20.82 148.96 20.84 148.97 20.88C149.13 21.5 149.04 22.2 148.39 22.46C147.8 22.69 147.23 22.24 146.92 21.65C146.86 21.54 146.92 21.34 147.06 21.39Z" fill="#263238"/>
<path d="M140 23.75C140 23.75 139.93 23.82 139.94 23.86C140.22 24.86 140.38 26.06 139.55 26.62C139.52 26.64 139.54 26.69 139.57 26.67C140.65 26.24 140.42 24.65 140 23.75Z" fill="#263238"/>
<path d="M138.84 22.92C137.19 23.2 137.87 26.49 139.4 26.23C140.91 25.98 140.23 22.69 138.84 22.92Z" fill="#263238"/>
<path d="M138.2 23.28C137.98 23.51 137.78 23.88 137.48 23.96C137.13 24.06 136.79 23.76 136.49 23.46C136.46 23.43 136.44 23.46 136.45 23.51C136.56 24.14 136.91 24.75 137.53 24.75C138.1 24.75 138.4 24.12 138.42 23.47C138.42 23.35 138.3 23.19 138.21 23.28H138.2Z" fill="#263238"/>
<path d="M147.78 30.89C147.61 31.19 147.46 31.58 147.11 31.72C146.77 31.85 146.32 31.81 145.96 31.78C145.93 31.78 145.9 31.82 145.93 31.84C146.3 32.15 146.92 32.23 147.36 32.02C147.79 31.81 147.9 31.35 147.89 30.91C147.89 30.85 147.81 30.85 147.78 30.89Z" fill="#263238"/>
<path d="M142.71 28.19C142.71 28.19 142.84 29.75 143.01 30.47C143.03 30.54 143.21 30.53 143.45 30.49C143.46 30.49 143.47 30.49 143.48 30.49C144.79 30.4 145.96 29.68 146.49 28.47C146.52 28.39 146.42 28.34 146.36 28.4C145.58 29.31 144.57 29.72 143.46 29.99C143.36 29.8 143.32 27.31 143.2 27.32C142.8 27.38 142.09 27.82 141.66 28.06C141.28 24.81 141.43 21.53 141.01 18.31C140.99 18.2 140.82 18.2 140.81 18.31C140.41 21.74 140.76 25.48 141.06 28.85C141.09 29.27 142.44 28.4 142.7 28.21L142.71 28.19Z" fill="#263238"/>
<path d="M143.48 30.12C143.48 30.12 144.33 30.97 145.36 31.17C145.74 31.24 146.13 31.24 146.52 31.07C147.32 30.73 147.22 29.96 146.97 29.33C146.77 28.81 146.45 28.39 146.45 28.39C146.45 28.39 145.41 29.71 143.49 30.12H143.48Z" fill="#263238"/>
<path d="M145.35 31.16C145.73 31.23 146.12 31.23 146.51 31.06C147.31 30.72 147.21 29.95 146.96 29.32C146.09 29.55 145.3 30.28 145.35 31.16Z" fill="#FF9BBC"/>
<path d="M161.48 21.18C159.82 21.35 154.82 17.53 153.4 9.63999C153.4 9.63999 155.16 16.64 155.87 17.6C156.57 18.55 153.07 15.45 151.84 9.09999C151.84 9.09999 148.72 12.23 145.84 13.56C142.96 14.9 141.11 15.17 140.86 14.98C140.61 14.8 144.82 12.68 145.79 11.1C145.79 11.1 138.38 16.13 134.72 17.02C134.3 17.12 133.77 8.71999 138.88 4.04999C143.99 -0.610006 152.29 1.63999 155.1 3.58999C155.1 3.58999 158.03 3.52999 161.82 7.24999C165.61 10.97 163.25 20.99 161.47 21.17L161.48 21.18Z" fill="#171717"/>
<path d="M163.49 25.32C163.27 25.48 163.07 25.6 162.86 25.69C162.62 25.81 162.39 25.88 162.17 25.91C161.83 25.97 161.52 25.95 161.24 25.88C160.99 25.82 160.76 25.72 160.56 25.61C160.05 25.32 159.76 24.95 159.76 24.95L159.43 20.8C159.43 20.8 161.3 15.29 163.71 15.83C166.12 16.37 165.66 23.7 163.48 25.32H163.49Z" fill="#F6AC83"/>
<path d="M163.53 17.92C163.53 17.92 163.59 17.96 163.56 17.98C162.05 19.17 161.61 21.02 161.46 22.85C161.78 22.07 162.38 21.52 163.4 21.88C163.45 21.9 163.43 21.98 163.38 21.98C162.64 22.03 162.17 22.3 161.86 23C161.64 23.49 161.56 24.06 161.45 24.59C161.41 24.77 161.11 24.76 161.12 24.57C161.12 24.56 161.12 24.54 161.12 24.53C160.44 22.36 161.24 18.82 163.52 17.91L163.53 17.92Z" fill="#263238"/>
<path d="M163.1 24.76C163.13 25.15 162.84 25.49 162.45 25.53C162.06 25.56 161.72 25.27 161.68 24.88C161.65 24.49 161.94 24.15 162.33 24.11C162.72 24.08 163.06 24.37 163.1 24.76Z" fill="white"/>
<path d="M164.2 23.33C164.22 23.61 164.02 23.85 163.74 23.87C163.46 23.89 163.22 23.69 163.2 23.41C163.18 23.13 163.38 22.89 163.66 22.87C163.94 22.85 164.18 23.05 164.2 23.33Z" fill="white"/>
<path d="M171.71 56.65C169.04 72.32 159.44 102.68 150.87 105.44C140.95 108.63 104.53 97.05 97.7699 92.1C95.0799 90.13 109.45 72.21 112.83 73.36C125.84 77.76 140.01 81.11 141.03 80.59C144.01 79.06 153.55 62.01 160.9 51.95C170.14 39.32 172.91 49.61 171.72 56.64L171.71 56.65Z" fill="#F9A97D"/>
<path d="M98.6599 92.58C97.1299 92.03 86.5799 84.38 83.4699 80.78C81.4899 78.49 78.0699 74.52 75.3599 68.21C72.2299 60.92 70.7599 55.59 71.5099 53.2C72.3799 50.42 72.6299 49.97 79.9299 62.07C84.0599 68.91 87.9899 69.68 91.3999 69.62C105.39 69.36 115.63 75.04 115.63 75.04C115.63 75.04 104.55 94.68 98.6599 92.58Z" fill="#F9A97D"/>
<path d="M67.4099 46.05L85.6099 69.09C86.1099 69.73 87.0799 69.94 87.7699 69.57L100.14 62.91C100.83 62.54 100.98 61.72 100.48 61.08L82.2799 38.04C81.7799 37.4 80.8098 37.19 80.1198 37.56L67.7499 44.22C67.0599 44.59 66.9099 45.41 67.4099 46.05Z" fill="#37474F"/>
<path d="M68.5299 43.8L80.8999 37.14C81.5899 36.77 82.5599 36.98 83.0599 37.62L101.26 60.66C101.76 61.3 101.61 62.11 100.92 62.49L88.5499 69.15C87.8599 69.52 86.8899 69.31 86.3899 68.67L68.1899 45.63C67.6899 44.99 67.8399 44.17 68.5299 43.8ZM86.5999 67.53C87.0799 68.14 87.9699 68.36 88.5899 68.02L99.6499 62.06C100.27 61.73 100.38 60.97 99.9099 60.36L82.9699 38.91C81.9899 37.67 81.4499 37.88 80.8199 38.22L78.5999 39.41C78.4699 39.48 78.4699 39.67 78.5999 39.83L78.6599 39.9C78.9599 40.28 78.7299 40.41 78.4499 40.56L73.3299 43.32C73.0399 43.48 72.8099 43.6 72.5099 43.21L72.4499 43.14C72.3199 42.98 72.1099 42.9 71.9799 42.97L69.7599 44.16C69.1399 44.49 68.7699 44.93 69.6599 46.06L86.5999 67.51V67.53Z" fill="#263238"/>
<path d="M69.6598 46.08L86.5998 67.53C87.0798 68.14 87.9698 68.36 88.5898 68.02L99.6498 62.06C100.27 61.73 100.38 60.97 99.9098 60.36L82.9698 38.91C81.9898 37.67 81.4498 37.88 80.8198 38.22L78.5998 39.41C78.4698 39.48 78.4698 39.67 78.5998 39.83L78.6598 39.9C78.9598 40.28 78.7298 40.41 78.4498 40.56L73.3298 43.32C73.0398 43.48 72.8098 43.6 72.5098 43.21L72.4498 43.14C72.3198 42.98 72.1098 42.9 71.9798 42.97L69.7598 44.16C69.1398 44.49 68.7698 44.93 69.6598 46.06V46.08Z" fill="white"/>
<path d="M79.3698 39.7C79.3698 39.7 79.3899 39.7 79.4099 39.7C79.4099 39.7 79.4199 39.7 79.4299 39.7C79.4499 39.62 79.4899 39.55 79.5699 39.51C79.6499 39.47 79.7398 39.46 79.8398 39.48C79.8398 39.48 79.8398 39.47 79.8398 39.46C79.8398 39.45 79.8398 39.44 79.8398 39.43C79.8298 39.43 79.8099 39.43 79.7999 39.43C79.7699 39.43 79.7399 39.43 79.7099 39.43C79.6699 39.43 79.6398 39.43 79.6098 39.45C79.5898 39.45 79.5798 39.46 79.5598 39.47L79.5199 39.49C79.5199 39.49 79.4999 39.5 79.4899 39.51C79.4699 39.53 79.4499 39.55 79.4299 39.57C79.4199 39.59 79.4098 39.6 79.3998 39.62C79.3898 39.64 79.3799 39.66 79.3799 39.68C79.3799 39.69 79.3799 39.7 79.3799 39.71L79.3698 39.7Z" fill="#DBDBDB"/>
<path d="M79.8198 39.58C79.8198 39.58 79.8198 39.55 79.8198 39.53C79.7498 39.52 79.6898 39.52 79.6298 39.54C79.5398 39.57 79.4898 39.63 79.4698 39.71C79.4898 39.71 79.5098 39.71 79.5298 39.72C79.5398 39.67 79.5698 39.62 79.6298 39.59C79.6798 39.56 79.7398 39.55 79.8098 39.57L79.8198 39.58Z" fill="#DBDBDB"/>
<path d="M79.5998 39.75C79.5998 39.75 79.6398 39.75 79.6598 39.76C79.6598 39.73 79.6798 39.71 79.7098 39.7C79.7398 39.69 79.7698 39.68 79.7998 39.69C79.7998 39.67 79.7998 39.66 79.7998 39.64C79.7098 39.62 79.6098 39.67 79.5898 39.75H79.5998Z" fill="#DBDBDB"/>
<path d="M79.7199 39.76C79.7199 39.76 79.7599 39.78 79.7699 39.77C79.7899 39.77 79.7899 39.74 79.7699 39.73C79.7499 39.72 79.7299 39.71 79.7199 39.72C79.6999 39.72 79.6999 39.75 79.7199 39.76Z" fill="#DBDBDB"/>
<path d="M81.4998 38.63C81.4998 38.63 81.3999 38.57 81.3499 38.6C81.2999 38.63 81.2899 38.68 81.3199 38.73C81.3499 38.77 81.4198 38.79 81.4698 38.76C81.5198 38.73 81.5298 38.68 81.4998 38.63Z" fill="#DBDBDB"/>
<path d="M81.2198 38.78C81.2198 38.78 81.1198 38.72 81.0698 38.75C81.0198 38.78 81.0098 38.83 81.0398 38.88C81.0698 38.93 81.1398 38.94 81.1898 38.91C81.2398 38.88 81.2498 38.83 81.2198 38.78Z" fill="#DBDBDB"/>
<path d="M80.9499 38.93C80.9499 38.93 80.8499 38.87 80.7999 38.9C80.7499 38.93 80.7399 38.98 80.7699 39.03C80.7999 39.08 80.8699 39.09 80.9199 39.06C80.9699 39.03 80.9799 38.98 80.9499 38.93Z" fill="#DBDBDB"/>
<path d="M80.6699 39.08C80.6699 39.08 80.5699 39.02 80.5199 39.05C80.4699 39.08 80.4599 39.13 80.4899 39.18C80.5199 39.22 80.5899 39.24 80.6399 39.21C80.6899 39.18 80.6999 39.13 80.6699 39.08Z" fill="#DBDBDB"/>
<path d="M80.3899 39.23C80.3899 39.23 80.2899 39.17 80.2399 39.2C80.1899 39.23 80.1799 39.28 80.2099 39.33C80.2399 39.37 80.3099 39.39 80.3599 39.36C80.4099 39.33 80.4199 39.28 80.3899 39.23Z" fill="#DBDBDB"/>
<path d="M70.1999 44.97L70.9199 44.58L70.6799 44.28L69.9599 44.67L70.1999 44.97ZM70.8599 44.57L70.2199 44.92L70.0299 44.69L70.6699 44.34L70.8599 44.57Z" fill="#DBDBDB"/>
<path d="M70.1998 44.61L70.6598 44.36L70.8198 44.56L70.3598 44.81L70.1998 44.61Z" fill="#DBDBDB"/>
<path d="M70.0799 44.93L70.1399 44.9L70.0199 44.73L69.9499 44.77L70.0799 44.93Z" fill="#DBDBDB"/>
<path d="M96.5398 61.65L98.3098 60.7L97.0498 59.1L95.2798 60.05L96.5398 61.65Z" fill="#FFC727"/>
<path d="M96.6299 60.99L96.8399 61.01V60.58L96.8599 60.42C96.8399 60.42 96.8099 60.42 96.7899 60.42C96.7399 60.42 96.6999 60.4 96.6599 60.38V60.55L96.6399 61L96.6299 60.99Z" fill="white"/>
<path d="M96.3399 60.15C96.3399 59.94 96.5599 59.79 96.8099 59.81C97.0599 59.84 97.2499 60.03 97.2499 60.24C97.2499 60.43 97.0699 60.57 96.8599 60.58C96.8399 60.58 96.8099 60.58 96.7899 60.58C96.7399 60.58 96.6999 60.56 96.6599 60.55C96.4799 60.48 96.3499 60.32 96.3599 60.15H96.3399ZM96.7799 60.43C96.7799 60.43 96.8299 60.43 96.8499 60.43C96.9599 60.41 97.0499 60.33 97.0599 60.23C97.0599 60.1 96.9499 59.99 96.7999 59.97C96.6499 59.96 96.5299 60.05 96.5199 60.17C96.5199 60.26 96.5699 60.34 96.6499 60.38C96.6899 60.4 96.7299 60.42 96.7799 60.42V60.43Z" fill="white"/>
<path d="M82.6098 40.46L82.7098 40.07L82.2298 39.98L82.2198 40.05L82.6098 40.12L82.5398 40.44L82.6098 40.46Z" fill="#DBDBDB"/>
<path d="M81.9798 40.64C81.9798 40.64 82.0198 40.66 82.0398 40.65C82.0598 40.64 82.0598 40.62 82.0398 40.6L81.7898 40.28C81.7898 40.28 81.7698 40.26 81.7598 40.26C81.7398 40.26 81.7198 40.27 81.7198 40.29V40.64L81.5398 40.41C81.5298 40.39 81.4998 40.39 81.4798 40.4C81.4598 40.4 81.4598 40.43 81.4698 40.45L81.7198 40.77C81.7198 40.77 81.7598 40.79 81.7798 40.78C81.7798 40.78 81.7998 40.77 81.7998 40.76V40.41L81.9798 40.64Z" fill="#DBDBDB"/>
<path d="M81.5498 40.86C81.5498 40.86 81.5498 40.78 81.5198 40.74C81.4898 40.7 81.4498 40.68 81.3998 40.67C81.3498 40.66 81.2998 40.67 81.2598 40.68C81.2198 40.7 81.1998 40.74 81.1898 40.78C81.1898 40.82 81.1898 40.86 81.2198 40.9C81.2498 40.94 81.2898 40.96 81.3398 40.97C81.3898 40.98 81.4298 40.97 81.4798 40.96C81.5198 40.94 81.5398 40.9 81.5498 40.86ZM81.4498 40.78C81.4498 40.78 81.4798 40.83 81.4698 40.85C81.4698 40.87 81.4498 40.89 81.4298 40.9C81.4098 40.91 81.3798 40.91 81.3598 40.9C81.3298 40.9 81.3098 40.88 81.2898 40.85C81.2698 40.83 81.2598 40.8 81.2698 40.78C81.2698 40.76 81.2898 40.74 81.3098 40.73C81.3298 40.72 81.3598 40.72 81.3898 40.72C81.4198 40.72 81.4398 40.74 81.4598 40.77L81.4498 40.78Z" fill="#DBDBDB"/>
<path d="M80.9098 40.91C80.9098 40.91 80.9498 40.93 80.9698 40.92H80.9898L81.1098 41.07C81.0898 41.08 81.0898 41.1 81.1098 41.12C81.1198 41.14 81.1498 41.14 81.1698 41.13C81.2098 41.11 81.2198 41.07 81.1898 41.03L81.0698 40.88H81.0898C81.0898 40.88 81.1098 40.84 81.0898 40.82C81.0798 40.8 81.0498 40.8 81.0298 40.81H81.0098L80.9498 40.74C80.9398 40.72 80.9098 40.72 80.8898 40.73C80.8698 40.74 80.8698 40.76 80.8898 40.78L80.9498 40.86H80.9298C80.9298 40.86 80.9098 40.9 80.9198 40.92L80.9098 40.91Z" fill="#DBDBDB"/>
<path d="M80.9298 41.05C80.8698 40.98 80.7598 40.95 80.6698 40.99C80.5898 41.03 80.5698 41.12 80.6198 41.2C80.6298 41.21 80.6498 41.21 80.6698 41.2L80.8598 41.1C80.8598 41.1 80.8698 41.13 80.8598 41.15C80.8598 41.17 80.8398 41.19 80.8198 41.21C80.7998 41.22 80.7698 41.23 80.7498 41.23C80.7298 41.23 80.6998 41.23 80.6998 41.25C80.6998 41.26 80.6998 41.28 80.7298 41.29C80.7798 41.29 80.8198 41.29 80.8698 41.27C80.9498 41.22 80.9698 41.13 80.9098 41.05H80.9298ZM80.8398 41.05L80.6698 41.14C80.6698 41.14 80.6698 41.07 80.7098 41.03C80.7598 41 80.8198 41.03 80.8398 41.04V41.05Z" fill="#DBDBDB"/>
<path d="M80.5999 41.31C80.5999 41.31 80.5599 41.31 80.5499 41.33C80.5499 41.35 80.5299 41.38 80.4999 41.39C80.4799 41.39 80.4599 41.4 80.4499 41.4C80.4399 41.4 80.4299 41.4 80.4299 41.39C80.4299 41.39 80.4299 41.39 80.4299 41.38C80.4299 41.37 80.4499 41.35 80.4699 41.34C80.4699 41.34 80.4999 41.31 80.5099 41.3C80.5199 41.28 80.5299 41.27 80.5299 41.25C80.5299 41.24 80.5299 41.22 80.5099 41.21C80.4899 41.18 80.4599 41.17 80.4299 41.17C80.3999 41.17 80.3699 41.17 80.3399 41.19C80.2999 41.21 80.2799 41.25 80.2699 41.27C80.2699 41.29 80.2699 41.31 80.2899 41.32C80.3099 41.32 80.3299 41.32 80.3399 41.3C80.3499 41.28 80.3599 41.26 80.3799 41.25C80.3999 41.25 80.4099 41.24 80.4199 41.25C80.4299 41.25 80.4399 41.25 80.4399 41.25C80.4399 41.25 80.4199 41.27 80.4099 41.29C80.3899 41.3 80.3799 41.32 80.3699 41.34C80.3599 41.36 80.3499 41.37 80.3499 41.4C80.3499 41.42 80.3499 41.43 80.3699 41.44C80.3899 41.47 80.4299 41.48 80.4599 41.48C80.4899 41.48 80.5299 41.48 80.5599 41.46C80.6099 41.43 80.6299 41.39 80.6399 41.36C80.6399 41.34 80.6399 41.32 80.6099 41.32L80.5999 41.31Z" fill="#DBDBDB"/>
<path d="M83.5698 42.07L83.0598 41.43C83.0598 41.43 82.9798 41.39 82.9498 41.41C82.9098 41.43 82.8998 41.47 82.9298 41.51L83.3898 42.09L83.0698 42.26C83.0698 42.26 83.0298 42.32 83.0498 42.36C83.0798 42.39 83.1298 42.4 83.1598 42.38L83.5498 42.17C83.5498 42.17 83.5898 42.11 83.5698 42.07Z" fill="#FFC727"/>
<path d="M82.2898 41.87C82.2898 41.87 82.3598 41.91 82.3998 41.89C82.4398 41.87 82.4398 41.83 82.4198 41.8L82.3998 41.78C82.3998 41.78 82.3298 41.74 82.2898 41.76C82.2498 41.78 82.2498 41.82 82.2698 41.85L82.2898 41.87ZM82.4398 42.07L82.7698 42.49C82.7698 42.49 82.8398 42.53 82.8798 42.51C82.9198 42.49 82.9198 42.45 82.8998 42.42L82.5698 42C82.5698 42 82.4898 41.96 82.4598 41.98C82.4198 42 82.4198 42.04 82.4398 42.07Z" fill="#FFC727"/>
<path d="M82.5298 42.49C82.5298 42.49 82.4398 42.49 82.4298 42.53C82.4198 42.57 82.3798 42.62 82.3398 42.65C82.3098 42.67 82.2698 42.67 82.2398 42.67C82.2098 42.67 82.1998 42.66 82.1898 42.65C82.1898 42.65 82.1898 42.65 82.1898 42.64C82.1898 42.64 82.1898 42.63 82.1898 42.62C82.1898 42.6 82.2198 42.57 82.2598 42.54C82.2598 42.54 82.3198 42.48 82.3398 42.46C82.3598 42.43 82.3698 42.39 82.3698 42.35C82.3698 42.32 82.3598 42.3 82.3398 42.27C82.2998 42.22 82.2398 42.19 82.1798 42.19C82.1198 42.19 82.0598 42.19 81.9998 42.23C81.9198 42.27 81.8898 42.34 81.8698 42.39C81.8498 42.42 81.8698 42.46 81.9098 42.48C81.9498 42.5 81.9998 42.48 82.0098 42.45C82.0298 42.41 82.0498 42.37 82.0898 42.35C82.1198 42.33 82.1498 42.33 82.1798 42.33C82.1998 42.33 82.2098 42.33 82.2198 42.34C82.2198 42.34 82.2198 42.34 82.2198 42.35C82.2198 42.35 82.2198 42.35 82.2198 42.37C82.2198 42.39 82.1898 42.41 82.1498 42.44C82.1198 42.47 82.0898 42.5 82.0598 42.53C82.0398 42.56 82.0198 42.6 82.0298 42.64C82.0298 42.67 82.0398 42.7 82.0598 42.72C82.0998 42.77 82.1698 42.8 82.2298 42.81C82.2898 42.81 82.3598 42.81 82.4198 42.77C82.5098 42.72 82.5498 42.64 82.5698 42.58C82.5798 42.55 82.5598 42.51 82.5198 42.5L82.5298 42.49Z" fill="#FFC727"/>
<path d="M81.3598 42.65C81.3598 42.65 81.4398 42.69 81.4698 42.67L81.4998 42.65L81.7398 42.95C81.7398 42.95 81.6998 43.01 81.7198 43.05C81.7498 43.08 81.7998 43.09 81.8298 43.07C81.8998 43.03 81.9198 42.94 81.8698 42.88L81.6298 42.58L81.6598 42.56C81.6598 42.56 81.6998 42.5 81.6798 42.46C81.6498 42.43 81.5998 42.42 81.5698 42.44L81.5398 42.46L81.4198 42.3C81.4198 42.3 81.3398 42.26 81.3098 42.28C81.2698 42.3 81.2598 42.34 81.2898 42.38L81.4098 42.54L81.3798 42.56C81.3798 42.56 81.3298 42.62 81.3598 42.66V42.65Z" fill="#FFC727"/>
<path opacity="0.3" d="M74.6999 50.12L85.4099 44.36L84.3399 43L73.6299 48.77L74.6999 50.12Z" fill="#FFC727"/>
<path d="M83.2799 44.66H83.2699C83.2699 44.69 83.2399 44.72 83.1999 44.74C83.1699 44.75 83.1499 44.76 83.1199 44.76C83.0999 44.76 83.0799 44.75 83.0599 44.73C83.0499 44.72 83.0499 44.7 83.0599 44.68C83.0599 44.66 83.0899 44.64 83.1099 44.62C83.1099 44.62 83.1499 44.58 83.1599 44.56C83.1599 44.54 83.1599 44.52 83.1599 44.5C83.1399 44.48 83.1199 44.47 83.0899 44.47C83.0599 44.47 83.0299 44.47 83.0099 44.49C82.9699 44.51 82.9599 44.54 82.9399 44.57V44.58H82.9499C82.9599 44.55 82.9799 44.53 83.0099 44.51C83.0299 44.5 83.0599 44.49 83.0799 44.49C83.0999 44.49 83.1199 44.5 83.1299 44.51C83.1299 44.52 83.1399 44.54 83.1299 44.55C83.1299 44.57 83.1099 44.58 83.0799 44.6C83.0799 44.6 83.0399 44.64 83.0299 44.66C83.0199 44.68 83.0299 44.71 83.0299 44.73C83.0299 44.75 83.0699 44.76 83.0999 44.76C83.1299 44.76 83.1599 44.76 83.1899 44.74C83.2299 44.72 83.2599 44.68 83.2699 44.65V44.64L83.2799 44.66Z" fill="#263238"/>
<path d="M82.9699 44.76C82.9299 44.71 82.8499 44.69 82.7999 44.72C82.7499 44.75 82.7399 44.81 82.7699 44.86C82.7699 44.86 82.7799 44.86 82.7899 44.86L82.9599 44.77C82.9599 44.77 82.9799 44.86 82.9399 44.88C82.9099 44.89 82.8799 44.9 82.8499 44.88C82.8499 44.88 82.8399 44.88 82.8299 44.88V44.89C82.8699 44.91 82.9099 44.91 82.9399 44.89C82.9899 44.86 83.0099 44.8 82.9699 44.75V44.76ZM82.9399 44.76L82.7899 44.84C82.7899 44.84 82.7899 44.76 82.8199 44.74C82.8599 44.72 82.9099 44.73 82.9399 44.76Z" fill="#263238"/>
<path d="M82.5499 44.96C82.5499 44.96 82.5299 44.89 82.5699 44.87C82.5999 44.85 82.6499 44.87 82.6799 44.89L82.6299 44.82C82.6299 44.82 82.6199 44.82 82.6099 44.82C82.6099 44.82 82.6099 44.82 82.6099 44.83V44.85C82.6099 44.85 82.5699 44.85 82.5399 44.85C82.4899 44.87 82.4799 44.93 82.5199 44.97L82.5999 45.07C82.5999 45.07 82.6099 45.07 82.6199 45.07C82.6199 45.07 82.6199 45.07 82.6199 45.06L82.5399 44.96H82.5499Z" fill="#263238"/>
<path d="M82.3498 45.18C82.3498 45.18 82.4198 45.19 82.4598 45.18C82.5098 45.15 82.5298 45.09 82.4898 45.04C82.4498 44.99 82.3698 44.97 82.3198 45C82.2898 45.02 82.2698 45.05 82.2698 45.08L82.1898 44.97C82.1898 44.97 82.1798 44.97 82.1698 44.97C82.1698 44.97 82.1698 44.97 82.1698 44.98L82.2898 45.14L82.3498 45.23C82.3498 45.23 82.3598 45.23 82.3698 45.23C82.3698 45.23 82.3698 45.23 82.3698 45.22L82.3498 45.19V45.18ZM82.3098 45.13C82.3098 45.13 82.2898 45.03 82.3298 45.01C82.3698 44.99 82.4298 45.01 82.4698 45.04C82.4998 45.08 82.4898 45.13 82.4498 45.15C82.4098 45.17 82.3498 45.15 82.3198 45.12L82.3098 45.13Z" fill="#263238"/>
<path d="M81.9498 45.39C81.9498 45.39 82.0198 45.4 82.0598 45.39C82.1098 45.36 82.1298 45.3 82.0898 45.25C82.0498 45.2 81.9698 45.18 81.9198 45.21C81.8898 45.23 81.8698 45.26 81.8698 45.29L81.7898 45.18C81.7898 45.18 81.7798 45.18 81.7698 45.18C81.7698 45.18 81.7698 45.18 81.7698 45.19L81.8898 45.35L81.9498 45.44C81.9498 45.44 81.9598 45.44 81.9698 45.44C81.9698 45.44 81.9698 45.44 81.9698 45.43L81.9498 45.4V45.39ZM81.9098 45.34C81.9098 45.34 81.8898 45.24 81.9298 45.22C81.9698 45.2 82.0298 45.22 82.0698 45.25C82.0998 45.29 82.0898 45.34 82.0498 45.36C82.0098 45.38 81.9498 45.36 81.9198 45.33L81.9098 45.34Z" fill="#263238"/>
<path d="M81.6398 45.35C81.5898 45.38 81.5798 45.44 81.6198 45.49C81.6598 45.54 81.7298 45.56 81.7898 45.53C81.8398 45.5 81.8498 45.44 81.8098 45.39C81.7698 45.34 81.6998 45.32 81.6398 45.35ZM81.7698 45.51C81.7698 45.51 81.6698 45.51 81.6398 45.48C81.6098 45.44 81.6198 45.39 81.6598 45.37C81.6998 45.35 81.7598 45.37 81.7898 45.4C81.8198 45.44 81.8098 45.49 81.7698 45.51Z" fill="#263238"/>
<path d="M81.5598 45.52C81.5198 45.47 81.4399 45.45 81.3799 45.48C81.3599 45.49 81.3399 45.51 81.3299 45.53V45.54H81.3398C81.3398 45.52 81.3599 45.51 81.3799 45.5C81.4299 45.47 81.4899 45.49 81.5199 45.53C81.5499 45.57 81.5399 45.62 81.4899 45.65C81.4699 45.66 81.4499 45.66 81.4299 45.66H81.4198C81.4198 45.66 81.4199 45.67 81.4299 45.67C81.4599 45.67 81.4798 45.67 81.5098 45.66C81.5698 45.63 81.5798 45.56 81.5398 45.51L81.5598 45.52Z" fill="#263238"/>
<path d="M81.2498 45.57C81.2498 45.57 81.2398 45.57 81.2298 45.57C81.2298 45.57 81.2298 45.57 81.2298 45.58L81.3098 45.68C81.3098 45.68 81.3298 45.75 81.2898 45.77C81.2598 45.79 81.2098 45.77 81.1798 45.75L81.0998 45.65C81.0998 45.65 81.0898 45.65 81.0798 45.65C81.0798 45.65 81.0798 45.65 81.0798 45.66L81.1598 45.76C81.1598 45.76 81.2598 45.81 81.2998 45.79C81.3498 45.77 81.3598 45.71 81.3198 45.67L81.2398 45.57H81.2498Z" fill="#263238"/>
<path d="M80.7498 45.93C80.7498 45.93 80.7299 45.86 80.7699 45.84C80.7999 45.82 80.8499 45.84 80.8799 45.86C80.8799 45.86 80.8598 45.79 80.8998 45.77C80.9298 45.75 80.9798 45.77 81.0098 45.79L81.0898 45.89C81.0898 45.89 81.0899 45.89 81.0999 45.89C81.0999 45.89 81.0999 45.89 81.0999 45.88L81.0199 45.78L80.9698 45.71C80.9698 45.71 80.9598 45.71 80.9498 45.71C80.9498 45.71 80.9498 45.71 80.9498 45.72V45.74C80.9498 45.74 80.9099 45.74 80.8799 45.74C80.8499 45.76 80.8298 45.79 80.8398 45.82C80.8098 45.8 80.7699 45.8 80.7399 45.82C80.6899 45.84 80.6798 45.9 80.7198 45.94L80.7999 46.04C80.7999 46.04 80.8099 46.04 80.8199 46.04C80.8199 46.04 80.8199 46.04 80.8199 46.03L80.7399 45.93H80.7498Z" fill="#263238"/>
<path d="M80.6799 46C80.6399 45.95 80.5599 45.93 80.5099 45.96C80.4599 45.99 80.4499 46.05 80.4799 46.1C80.4799 46.1 80.4899 46.1 80.4999 46.1L80.6699 46.01C80.6699 46.01 80.6899 46.1 80.6499 46.12C80.6199 46.13 80.5899 46.14 80.5599 46.12C80.5599 46.12 80.5499 46.12 80.5399 46.12V46.13C80.5799 46.15 80.6199 46.15 80.6499 46.13C80.6999 46.1 80.7199 46.04 80.6799 45.99V46ZM80.6499 46L80.4999 46.08C80.4999 46.08 80.4999 46 80.5299 45.98C80.5699 45.96 80.6199 45.97 80.6499 46Z" fill="#263238"/>
<path d="M80.2599 46.2C80.2599 46.2 80.2399 46.13 80.2799 46.11C80.3099 46.09 80.3599 46.11 80.3899 46.13L80.4699 46.23C80.4699 46.23 80.4699 46.23 80.4799 46.23L80.3999 46.13L80.3499 46.06C80.3499 46.06 80.3399 46.06 80.3299 46.06C80.3299 46.06 80.3299 46.06 80.3299 46.07V46.09C80.3299 46.09 80.2899 46.09 80.2599 46.09C80.2099 46.11 80.1999 46.17 80.2399 46.21L80.3199 46.31C80.3199 46.31 80.3299 46.31 80.3399 46.31C80.3399 46.31 80.3399 46.31 80.3399 46.3L80.2599 46.2Z" fill="#263238"/>
<path d="M80.0299 46.23C80.0299 46.23 80.0399 46.23 80.0499 46.23H80.0799L80.1899 46.35V46.37V46.38C80.1899 46.38 80.1999 46.38 80.2099 46.38C80.2299 46.37 80.2299 46.35 80.2199 46.33L80.1099 46.2H80.1399C80.1399 46.2 80.1399 46.18 80.1399 46.17C80.1399 46.17 80.1399 46.17 80.1199 46.17H80.0899L80.0399 46.12C80.0399 46.12 80.0299 46.12 80.0199 46.12V46.13L80.0699 46.2H80.0399C80.0399 46.2 80.0399 46.22 80.0399 46.23H80.0299Z" fill="#263238"/>
<path d="M84.0598 44.55L84.7198 44.19L84.2498 43.59L83.5798 43.95L84.0598 44.55Z" fill="#FFC727"/>
<path d="M84.2898 44.31L84.3499 43.98L84.2198 43.95L84.1799 44.15L83.5999 43.9L83.5499 44.01L84.2898 44.31Z" fill="white"/>
<path opacity="0.3" d="M76.0499 51.83L86.7599 46.07L85.6899 44.71L74.9799 50.48L76.0499 51.83Z" fill="#FFC727"/>
<path d="M84.3099 46.23C84.3099 46.23 84.2499 46.28 84.2399 46.31V46.32C84.2399 46.32 84.2499 46.32 84.2599 46.32C84.2599 46.29 84.2899 46.27 84.3199 46.25C84.3899 46.21 84.4899 46.23 84.5399 46.3C84.5899 46.36 84.5699 46.44 84.4999 46.48C84.4699 46.5 84.4299 46.5 84.3999 46.5C84.3999 46.5 84.3899 46.5 84.3899 46.51C84.3899 46.51 84.3899 46.52 84.3999 46.52C84.4399 46.52 84.4799 46.52 84.5199 46.5C84.5999 46.46 84.6199 46.36 84.5699 46.29C84.5099 46.22 84.3999 46.19 84.3199 46.24L84.3099 46.23Z" fill="#263238"/>
<path d="M84.0998 46.56C84.0998 46.56 84.0898 46.49 84.1198 46.47C84.1498 46.45 84.1998 46.46 84.2298 46.49L84.1198 46.35C84.1198 46.35 84.1098 46.35 84.0998 46.35C84.0998 46.35 84.0998 46.35 84.0998 46.36L84.1798 46.46C84.1798 46.46 84.1198 46.46 84.0898 46.46C84.0398 46.48 84.0298 46.54 84.0598 46.58L84.1398 46.68C84.1398 46.68 84.1498 46.68 84.1598 46.68C84.1598 46.68 84.1598 46.68 84.1598 46.67L84.0798 46.57L84.0998 46.56Z" fill="#263238"/>
<path d="M84.0299 46.63C83.9899 46.58 83.9099 46.56 83.8599 46.59C83.8099 46.62 83.7999 46.68 83.8299 46.73C83.8299 46.73 83.8399 46.73 83.8499 46.73L84.0199 46.64C84.0199 46.64 84.0399 46.73 83.9999 46.75C83.9699 46.76 83.9399 46.77 83.9099 46.75C83.9099 46.75 83.8999 46.75 83.8899 46.75V46.76C83.9299 46.78 83.9699 46.78 83.9999 46.76C84.0499 46.73 84.0699 46.67 84.0299 46.62V46.63ZM83.9999 46.63L83.8499 46.71C83.8499 46.71 83.8499 46.63 83.8799 46.61C83.9199 46.59 83.9699 46.6 83.9999 46.63Z" fill="#263238"/>
<path d="M83.7798 46.76C83.7398 46.71 83.6598 46.69 83.5998 46.72C83.5798 46.73 83.5598 46.75 83.5498 46.77V46.78H83.5598C83.5598 46.76 83.5798 46.75 83.5998 46.74C83.6498 46.71 83.7098 46.73 83.7398 46.77C83.7698 46.81 83.7598 46.86 83.7098 46.89C83.6898 46.9 83.6698 46.9 83.6498 46.9H83.6398C83.6398 46.9 83.6398 46.91 83.6498 46.91C83.6798 46.91 83.6998 46.91 83.7298 46.9C83.7898 46.87 83.7998 46.8 83.7598 46.75L83.7798 46.76Z" fill="#263238"/>
<path d="M83.3998 46.74C83.3998 46.74 83.3898 46.74 83.3798 46.74C83.3798 46.74 83.3798 46.74 83.3798 46.75L83.5198 46.93L83.3198 46.89H83.3098V46.9L83.4398 46.93V47.06V47.07V46.94L83.5198 46.96L83.5498 47C83.5498 47 83.5598 47 83.5698 47C83.5698 47 83.5698 47 83.5698 46.99L83.3798 46.75L83.3998 46.74Z" fill="#263238"/>
<path d="M83.1798 47.09L83.1198 47.01C83.1198 47.01 83.1098 47.01 83.0998 47.01C83.0998 47.01 83.0998 47.01 83.0998 47.02L83.1198 47.05C83.1198 47.05 83.0498 47.04 83.0198 47.05C82.9698 47.08 82.9498 47.14 82.9898 47.19C83.0298 47.24 83.1098 47.26 83.1598 47.23C83.1898 47.21 83.2098 47.18 83.2098 47.15L83.2898 47.25C83.2898 47.25 83.2998 47.25 83.3098 47.25C83.3098 47.25 83.3098 47.25 83.3098 47.24L83.1898 47.08L83.1798 47.09ZM83.1598 47.09C83.1598 47.09 83.1798 47.18 83.1398 47.2C83.0998 47.22 83.0398 47.2 82.9998 47.17C82.9698 47.13 82.9798 47.08 83.0198 47.06C83.0598 47.04 83.1198 47.06 83.1498 47.09H83.1598Z" fill="#263238"/>
<path d="M82.8398 47.15C82.8398 47.15 82.8299 47.15 82.8199 47.15C82.8199 47.15 82.8199 47.15 82.8199 47.16L82.8499 47.2C82.8199 47.19 82.7698 47.18 82.7298 47.2C82.7298 47.2 82.7298 47.2 82.7298 47.21C82.7298 47.21 82.7398 47.21 82.7498 47.21C82.7798 47.2 82.8098 47.2 82.8298 47.21C82.8598 47.21 82.8798 47.23 82.8898 47.24L82.9498 47.32C82.9498 47.32 82.9598 47.32 82.9698 47.32C82.9698 47.32 82.9698 47.32 82.9698 47.31L82.8398 47.15Z" fill="#263238"/>
<path d="M82.5799 47.28C82.5299 47.31 82.5199 47.37 82.5599 47.42C82.5999 47.47 82.6699 47.49 82.7299 47.46C82.7799 47.43 82.7899 47.37 82.7499 47.32C82.7099 47.27 82.6399 47.25 82.5799 47.28ZM82.7099 47.44C82.7099 47.44 82.6099 47.44 82.5799 47.41C82.5499 47.37 82.5599 47.32 82.5999 47.3C82.6399 47.28 82.6999 47.3 82.7299 47.33C82.7599 47.37 82.7499 47.42 82.7099 47.44Z" fill="#263238"/>
<path d="M82.6199 47.59C82.6199 47.59 82.5999 47.59 82.5899 47.59L82.4199 47.38C82.4199 47.38 82.4099 47.38 82.3999 47.38C82.3999 47.38 82.3999 47.38 82.3999 47.39L82.5699 47.6C82.5699 47.6 82.6099 47.62 82.6299 47.61C82.6299 47.61 82.6299 47.61 82.6299 47.6C82.6299 47.6 82.6199 47.6 82.6099 47.6L82.6199 47.59ZM82.3799 47.31C82.3799 47.31 82.3699 47.31 82.3599 47.31C82.3599 47.31 82.3599 47.31 82.3599 47.32C82.3599 47.32 82.3699 47.34 82.3799 47.33V47.32V47.31Z" fill="#263238"/>
<path d="M82.3899 47.51C82.3499 47.46 82.2699 47.44 82.2199 47.47C82.1699 47.5 82.1599 47.56 82.1899 47.61C82.1899 47.61 82.1999 47.61 82.2099 47.61L82.3799 47.52C82.3799 47.52 82.3999 47.61 82.3599 47.63C82.3299 47.64 82.2999 47.64 82.2699 47.63C82.2699 47.63 82.2599 47.63 82.2499 47.63V47.64C82.2899 47.66 82.3299 47.66 82.3599 47.64C82.4099 47.61 82.4299 47.55 82.3899 47.5V47.51ZM82.3599 47.51L82.2099 47.59C82.2099 47.59 82.2099 47.51 82.2399 47.49C82.2799 47.47 82.3299 47.48 82.3599 47.51Z" fill="#263238"/>
<path d="M82.1398 47.65C82.0998 47.6 82.0198 47.58 81.9598 47.62C81.9398 47.63 81.9198 47.65 81.9098 47.67V47.68H81.9198C81.9198 47.66 81.9398 47.65 81.9598 47.64C82.0098 47.61 82.0698 47.63 82.0998 47.67C82.1298 47.71 82.1198 47.76 82.0698 47.79C82.0498 47.8 82.0298 47.8 82.0098 47.8H81.9998C81.9998 47.8 81.9998 47.81 82.0098 47.81C82.0398 47.81 82.0598 47.81 82.0898 47.8C82.1498 47.77 82.1598 47.7 82.1198 47.65H82.1398Z" fill="#263238"/>
<path d="M81.7498 47.74C81.7498 47.74 81.7598 47.74 81.7698 47.74H81.7998L81.9098 47.86V47.88V47.89C81.9098 47.89 81.9198 47.89 81.9298 47.89C81.9498 47.88 81.9498 47.86 81.9398 47.84L81.8298 47.71H81.8598C81.8598 47.71 81.8598 47.69 81.8598 47.68C81.8598 47.68 81.8598 47.68 81.8398 47.68H81.8098L81.7598 47.63C81.7598 47.63 81.7498 47.63 81.7398 47.63V47.64L81.7898 47.71H81.7598C81.7598 47.71 81.7598 47.73 81.7598 47.74H81.7498Z" fill="#263238"/>
<path d="M81.4399 48C81.4399 48 81.4199 47.93 81.4599 47.91C81.4899 47.89 81.5399 47.91 81.5699 47.93L81.6499 48.03C81.6499 48.03 81.6499 48.03 81.6599 48.03L81.5799 47.93L81.5299 47.86C81.5299 47.86 81.5199 47.86 81.5099 47.86C81.5099 47.86 81.5099 47.86 81.5099 47.87V47.89C81.5099 47.89 81.4699 47.89 81.4399 47.89C81.3899 47.91 81.3799 47.97 81.4199 48.01L81.4999 48.11C81.4999 48.11 81.5099 48.11 81.5199 48.11C81.5199 48.11 81.5199 48.11 81.5199 48.1L81.4399 48Z" fill="#263238"/>
<path d="M81.1898 48.03C81.1398 48.06 81.1298 48.12 81.1698 48.17C81.2098 48.22 81.2798 48.24 81.3398 48.21C81.3898 48.18 81.3998 48.12 81.3598 48.07C81.3198 48.02 81.2498 48 81.1898 48.03ZM81.3198 48.19C81.3198 48.19 81.2198 48.19 81.1898 48.16C81.1598 48.12 81.1698 48.07 81.2098 48.05C81.2498 48.03 81.3098 48.05 81.3398 48.08C81.3698 48.12 81.3598 48.17 81.3198 48.19Z" fill="#263238"/>
<path d="M80.9599 48.16C80.9599 48.16 80.9699 48.16 80.9799 48.16H81.0099L81.1099 48.28V48.3V48.31C81.1099 48.31 81.1199 48.31 81.1299 48.31C81.1499 48.3 81.1499 48.28 81.1399 48.26L81.0399 48.13H81.0699C81.0699 48.13 81.0699 48.11 81.0699 48.1C81.0699 48.1 81.0699 48.1 81.0499 48.1H81.0199L80.9699 48.05C80.9699 48.05 80.9599 48.05 80.9499 48.05V48.06L80.9999 48.13H80.9699C80.9699 48.13 80.9699 48.15 80.9699 48.16H80.9599Z" fill="#263238"/>
<path d="M80.9699 48.28C80.9299 48.23 80.8499 48.21 80.7999 48.24C80.7499 48.27 80.7399 48.33 80.7699 48.38C80.7699 48.38 80.7799 48.38 80.7899 48.38L80.9599 48.29C80.9599 48.29 80.9799 48.38 80.9399 48.4C80.9099 48.41 80.8799 48.42 80.8499 48.4C80.8499 48.4 80.8399 48.4 80.8299 48.4V48.41C80.8699 48.43 80.9099 48.43 80.9399 48.41C80.9899 48.38 81.0099 48.32 80.9699 48.27V48.28ZM80.9399 48.28L80.7899 48.36C80.7899 48.36 80.7899 48.28 80.8199 48.26C80.8599 48.24 80.9099 48.25 80.9399 48.28Z" fill="#263238"/>
<path d="M80.7599 48.47H80.7499C80.7499 48.49 80.7299 48.51 80.7099 48.52C80.6899 48.52 80.6799 48.53 80.6599 48.52C80.6499 48.52 80.6299 48.52 80.6299 48.51C80.6299 48.51 80.6299 48.49 80.6299 48.48C80.6299 48.47 80.6399 48.46 80.6599 48.44C80.6599 48.44 80.6899 48.41 80.6899 48.4C80.6899 48.39 80.6899 48.37 80.6899 48.36C80.6799 48.35 80.6599 48.34 80.6399 48.34C80.6199 48.34 80.5999 48.34 80.5799 48.35C80.5499 48.36 80.5399 48.38 80.5399 48.4V48.41C80.5399 48.41 80.5499 48.41 80.5599 48.41C80.5599 48.39 80.5799 48.38 80.5899 48.37C80.6099 48.37 80.6199 48.36 80.6399 48.36C80.6499 48.36 80.6599 48.36 80.6699 48.37C80.6699 48.37 80.6699 48.38 80.6699 48.39C80.6699 48.4 80.6599 48.41 80.6399 48.42C80.6399 48.42 80.6099 48.45 80.5999 48.46C80.5999 48.47 80.5999 48.49 80.5999 48.51C80.6099 48.53 80.6299 48.53 80.6499 48.53C80.6699 48.53 80.6899 48.53 80.7099 48.52C80.7399 48.5 80.7599 48.47 80.7599 48.45V48.44V48.47Z" fill="#263238"/>
<path d="M85.4098 46.26L86.0698 45.9L85.5998 45.3L84.9298 45.66L85.4098 46.26Z" fill="#FFC727"/>
<path d="M85.6398 46.02L85.6998 45.69L85.5698 45.66L85.5398 45.86L84.9498 45.61L84.8998 45.71L85.6398 46.02Z" fill="white"/>
<path opacity="0.3" d="M77.3999 53.54L88.1099 47.78L87.0399 46.42L76.3399 52.19L77.3999 53.54Z" fill="#FFC727"/>
<path d="M85.8999 48.18L85.8199 47.88C85.8199 47.88 85.8199 47.88 85.8099 47.88C85.8099 47.88 85.7999 47.88 85.8099 47.89L85.8799 48.17L85.5999 48C85.5999 48 85.5899 48 85.5799 48V48.01L85.8799 48.19C85.8799 48.19 85.8799 48.19 85.8899 48.19L85.8999 48.18Z" fill="#263238"/>
<path d="M85.5198 48.06C85.5198 48.06 85.5098 48.06 85.4998 48.06C85.4998 48.06 85.4998 48.06 85.4998 48.07C85.4998 48.07 85.5098 48.09 85.5198 48.08C85.5198 48.08 85.5198 48.08 85.5198 48.07V48.06ZM85.5698 48.12C85.5698 48.12 85.5598 48.12 85.5498 48.12C85.5498 48.12 85.5498 48.12 85.5498 48.13L85.6798 48.29C85.6798 48.29 85.6898 48.29 85.6998 48.29C85.6998 48.29 85.6998 48.29 85.6998 48.28L85.5698 48.12Z" fill="#263238"/>
<path d="M85.3999 48.41C85.3999 48.41 85.4699 48.42 85.5099 48.41C85.5599 48.38 85.5799 48.32 85.5399 48.27C85.4999 48.22 85.4199 48.2 85.3699 48.23C85.3399 48.25 85.3199 48.28 85.3199 48.31L85.2399 48.2C85.2399 48.2 85.2299 48.2 85.2199 48.2C85.2199 48.2 85.2199 48.2 85.2199 48.21L85.3399 48.37L85.3999 48.46C85.3999 48.46 85.4099 48.46 85.4199 48.46C85.4199 48.46 85.4199 48.46 85.4199 48.45L85.3999 48.42V48.41ZM85.3599 48.36C85.3599 48.36 85.3399 48.26 85.3799 48.24C85.4199 48.22 85.4799 48.24 85.5199 48.27C85.5499 48.31 85.5399 48.36 85.4999 48.38C85.4599 48.4 85.3999 48.38 85.3699 48.35L85.3599 48.36Z" fill="#263238"/>
<path d="M85.2699 48.4C85.2299 48.35 85.1499 48.33 85.0999 48.36C85.0499 48.39 85.0399 48.45 85.0699 48.5C85.0699 48.5 85.0799 48.5 85.0899 48.5L85.2598 48.41C85.2598 48.41 85.2799 48.5 85.2399 48.52C85.2099 48.53 85.1798 48.54 85.1498 48.52C85.1498 48.52 85.1399 48.52 85.1299 48.52V48.53C85.1699 48.55 85.2099 48.55 85.2399 48.53C85.2899 48.5 85.3099 48.44 85.2699 48.39V48.4ZM85.2399 48.4L85.0899 48.48C85.0899 48.48 85.0898 48.4 85.1198 48.38C85.1598 48.36 85.2099 48.37 85.2399 48.4Z" fill="#263238"/>
<path d="M84.8399 48.5C84.7899 48.53 84.7799 48.59 84.8199 48.64C84.8599 48.69 84.9299 48.71 84.9899 48.68C85.0399 48.65 85.0499 48.59 85.0099 48.54C84.9699 48.49 84.8999 48.47 84.8399 48.5ZM84.9699 48.66C84.9699 48.66 84.8699 48.66 84.8399 48.63C84.8099 48.6 84.8199 48.54 84.8599 48.52C84.8999 48.5 84.9599 48.52 84.9899 48.55C85.0199 48.59 85.0099 48.64 84.9699 48.66Z" fill="#263238"/>
<path d="M84.7599 48.67C84.7199 48.62 84.6399 48.6 84.5799 48.63C84.5599 48.64 84.5399 48.66 84.5299 48.68V48.69H84.5399C84.5399 48.67 84.5599 48.66 84.5799 48.65C84.6299 48.62 84.6899 48.64 84.7199 48.68C84.7499 48.72 84.7399 48.77 84.6899 48.8C84.6699 48.81 84.6499 48.81 84.6299 48.81H84.6199C84.6199 48.81 84.6199 48.82 84.6299 48.82C84.6599 48.82 84.6799 48.82 84.7099 48.81C84.7699 48.78 84.7799 48.71 84.7399 48.66L84.7599 48.67Z" fill="#263238"/>
<path d="M84.2799 48.82L84.4099 48.98C84.4099 48.98 84.4199 48.98 84.4299 48.98C84.4299 48.98 84.4299 48.98 84.4299 48.97L84.4099 48.94C84.4099 48.94 84.4799 48.95 84.5099 48.94C84.5599 48.91 84.5699 48.85 84.5299 48.8C84.4899 48.75 84.4199 48.73 84.3599 48.76C84.3299 48.78 84.3099 48.81 84.3099 48.84L84.2899 48.81C84.2899 48.81 84.2799 48.81 84.2699 48.81C84.2699 48.81 84.2699 48.81 84.2699 48.82H84.2799ZM84.3599 48.89C84.3599 48.89 84.3399 48.8 84.3799 48.78C84.4199 48.76 84.4799 48.78 84.5099 48.81C84.5399 48.85 84.5299 48.9 84.4899 48.92C84.4499 48.94 84.3899 48.92 84.3599 48.89Z" fill="#263238"/>
<path d="M84.1198 48.79C84.1198 48.79 84.1098 48.79 84.0998 48.79C84.0998 48.79 84.0998 48.79 84.0998 48.8L84.2898 49.04C84.2898 49.04 84.2998 49.04 84.3098 49.04C84.3098 49.04 84.3098 49.04 84.3098 49.03L84.1198 48.79Z" fill="#263238"/>
<path d="M84.0198 48.84C84.0198 48.84 84.0098 48.84 83.9998 48.84C83.9998 48.84 83.9998 48.84 83.9998 48.85L84.1898 49.09C84.1898 49.09 84.1998 49.09 84.2098 49.09C84.2098 49.09 84.2098 49.09 84.2098 49.08L84.0198 48.84Z" fill="#263238"/>
<path d="M83.9399 49.12C83.8999 49.07 83.8198 49.05 83.7598 49.08C83.7398 49.09 83.7199 49.11 83.7099 49.13V49.14H83.7199C83.7199 49.12 83.7398 49.11 83.7598 49.1C83.8098 49.07 83.8698 49.09 83.8998 49.13C83.9298 49.17 83.9198 49.22 83.8698 49.25C83.8498 49.26 83.8298 49.26 83.8098 49.26H83.7999C83.7999 49.26 83.7998 49.27 83.8098 49.27C83.8398 49.27 83.8598 49.27 83.8898 49.26C83.9498 49.23 83.9598 49.16 83.9198 49.11L83.9399 49.12Z" fill="#263238"/>
<path d="M83.5599 49.09C83.5599 49.09 83.5499 49.09 83.5399 49.09C83.5399 49.09 83.5399 49.09 83.5399 49.1L83.7299 49.34C83.7299 49.34 83.7399 49.34 83.7499 49.34C83.7499 49.34 83.7499 49.34 83.7499 49.33L83.5599 49.09Z" fill="#263238"/>
<path d="M83.4699 49.16C83.4699 49.16 83.4599 49.16 83.4499 49.16C83.4499 49.16 83.4499 49.16 83.4499 49.17C83.4499 49.17 83.4599 49.19 83.4699 49.18C83.4699 49.18 83.4699 49.18 83.4699 49.17V49.16ZM83.5199 49.22C83.5199 49.22 83.5099 49.22 83.4999 49.22C83.4999 49.22 83.4999 49.22 83.4999 49.23L83.6299 49.39C83.6299 49.39 83.6399 49.39 83.6499 49.39C83.6499 49.39 83.6499 49.39 83.6499 49.38L83.5199 49.22Z" fill="#263238"/>
<path d="M83.4798 49.36C83.4398 49.31 83.3598 49.29 83.3098 49.32C83.2598 49.35 83.2498 49.41 83.2798 49.46C83.2798 49.46 83.2898 49.46 83.2998 49.46L83.4698 49.37C83.4698 49.37 83.4898 49.46 83.4498 49.48C83.4198 49.49 83.3898 49.5 83.3598 49.48C83.3598 49.48 83.3498 49.48 83.3398 49.48V49.49C83.3798 49.51 83.4198 49.51 83.4498 49.49C83.4998 49.46 83.5198 49.4 83.4798 49.35V49.36ZM83.4498 49.36L83.2998 49.44C83.2998 49.44 83.2998 49.36 83.3298 49.34C83.3698 49.32 83.4198 49.33 83.4498 49.36Z" fill="#263238"/>
<path d="M83.0599 49.56C83.0599 49.56 83.0399 49.49 83.0799 49.47C83.1099 49.45 83.1599 49.47 83.1899 49.49L83.2699 49.59C83.2699 49.59 83.2699 49.59 83.2799 49.59L83.1999 49.49L83.1499 49.42C83.1499 49.42 83.1399 49.42 83.1299 49.42C83.1299 49.42 83.1299 49.42 83.1299 49.43V49.45C83.1299 49.45 83.0899 49.45 83.0599 49.45C83.0099 49.47 82.9999 49.53 83.0399 49.57L83.1199 49.67C83.1199 49.67 83.1299 49.67 83.1399 49.67C83.1399 49.67 83.1399 49.67 83.1399 49.66L83.0599 49.56Z" fill="#263238"/>
<path d="M82.8298 49.59C82.8298 49.59 82.8398 49.59 82.8498 49.59H82.8798L82.9898 49.71V49.73V49.74C82.9898 49.74 82.9998 49.74 83.0098 49.74C83.0298 49.73 83.0298 49.71 83.0198 49.69L82.9098 49.56H82.9398C82.9398 49.56 82.9398 49.54 82.9398 49.53C82.9398 49.53 82.9398 49.53 82.9198 49.53H82.8898L82.8398 49.48C82.8398 49.48 82.8298 49.48 82.8198 49.48V49.49L82.8698 49.56H82.8398C82.8398 49.56 82.8398 49.58 82.8398 49.59H82.8298Z" fill="#263238"/>
<path d="M86.7598 47.97L87.4298 47.61L86.9498 47.01L86.2798 47.37L86.7598 47.97Z" fill="#FFC727"/>
<path d="M86.9898 47.73L87.0498 47.4L86.9198 47.37L86.8898 47.57L86.2998 47.32L86.2498 47.42L86.9898 47.73Z" fill="white"/>
<path opacity="0.3" d="M78.7598 55.25L89.4598 49.49L88.3898 48.13L77.6898 53.9L78.7598 55.25Z" fill="#FFC727"/>
<path d="M87.1498 49.59C87.1498 49.59 87.1398 49.59 87.1298 49.59L87.0498 49.63C86.9998 49.65 86.9898 49.71 87.0298 49.75C87.0598 49.79 87.1298 49.8 87.1698 49.78L87.2398 49.74L87.3198 49.84C87.3198 49.84 87.3298 49.84 87.3398 49.84C87.3398 49.84 87.3398 49.84 87.3398 49.83L87.1498 49.59ZM87.1498 49.76C87.1498 49.76 87.0698 49.76 87.0398 49.74C87.0198 49.71 87.0198 49.67 87.0598 49.65L87.1298 49.61L87.2198 49.72L87.1498 49.76Z" fill="#263238"/>
<path d="M86.8099 49.89L86.9399 50.05C86.9399 50.05 86.9499 50.05 86.9599 50.05C86.9699 50.05 86.9599 50.05 86.9599 50.04L86.9399 50.01C86.9399 50.01 87.0099 50.02 87.0399 50.01C87.0899 49.98 87.0999 49.92 87.0599 49.87C87.0199 49.82 86.9499 49.8 86.8899 49.83C86.8599 49.85 86.8399 49.88 86.8399 49.91L86.8199 49.88C86.8199 49.88 86.8099 49.88 86.7999 49.88C86.7999 49.88 86.7999 49.88 86.7999 49.89H86.8099ZM86.8899 49.96C86.8899 49.96 86.8699 49.87 86.9099 49.85C86.9499 49.83 87.0099 49.85 87.0399 49.88C87.0699 49.92 87.0599 49.97 87.0199 49.99C86.9799 50.01 86.9199 49.99 86.8899 49.96Z" fill="#263238"/>
<path d="M86.7299 49.93C86.7299 49.93 86.7199 49.93 86.7099 49.93C86.7099 49.93 86.7099 49.93 86.7099 49.94L86.7899 50.04C86.7899 50.04 86.8099 50.11 86.7699 50.13C86.7399 50.15 86.6899 50.13 86.6599 50.11L86.6999 50.17C86.7399 50.22 86.8099 50.23 86.8599 50.2C86.8699 50.2 86.8899 50.18 86.8899 50.17V50.16C86.8899 50.16 86.8799 50.16 86.8699 50.16C86.8699 50.16 86.8499 50.18 86.8399 50.18C86.7999 50.2 86.7399 50.19 86.7099 50.15C86.7099 50.15 86.7699 50.15 86.7899 50.13C86.8299 50.11 86.8499 50.05 86.8099 50.01L86.7299 49.91V49.93Z" fill="#263238"/>
<path d="M86.4299 50.21C86.3899 50.16 86.3099 50.14 86.2599 50.17C86.2099 50.2 86.1999 50.26 86.2299 50.31C86.2299 50.31 86.2399 50.31 86.2499 50.31L86.4199 50.22C86.4199 50.22 86.4399 50.31 86.3999 50.33C86.3699 50.34 86.3399 50.35 86.3099 50.33C86.3099 50.33 86.2999 50.33 86.2899 50.33V50.34C86.3299 50.36 86.3699 50.36 86.3999 50.34C86.4499 50.31 86.4699 50.25 86.4299 50.2V50.21ZM86.3999 50.21L86.2499 50.29C86.2499 50.29 86.2499 50.21 86.2799 50.19C86.3199 50.17 86.3699 50.18 86.3999 50.21Z" fill="#263238"/>
<path d="M85.8598 50.49C85.8598 50.49 85.8398 50.42 85.8798 50.4C85.9098 50.38 85.9598 50.4 85.9898 50.42C85.9898 50.42 85.9698 50.35 86.0098 50.33C86.0398 50.31 86.0898 50.33 86.1198 50.35L86.1998 50.45C86.1998 50.45 86.1998 50.45 86.2098 50.45C86.2098 50.45 86.2098 50.45 86.2098 50.44L86.1298 50.34L86.0798 50.27C86.0798 50.27 86.0698 50.27 86.0598 50.27C86.0598 50.27 86.0598 50.27 86.0598 50.28V50.3C86.0598 50.3 86.0198 50.3 85.9898 50.3C85.9598 50.32 85.9398 50.35 85.9498 50.38C85.9198 50.36 85.8798 50.36 85.8498 50.38C85.7998 50.4 85.7898 50.46 85.8298 50.5L85.9098 50.6C85.9098 50.6 85.9198 50.6 85.9298 50.6C85.9298 50.6 85.9298 50.6 85.9298 50.59L85.8498 50.49H85.8598Z" fill="#263238"/>
<path d="M85.7699 50.57L85.7099 50.49C85.7099 50.49 85.6999 50.49 85.6899 50.49C85.6899 50.49 85.6899 50.49 85.6899 50.5L85.7099 50.53C85.7099 50.53 85.6399 50.52 85.6099 50.53C85.5599 50.56 85.5399 50.62 85.5799 50.67C85.6199 50.72 85.6999 50.74 85.7499 50.71C85.7799 50.69 85.7999 50.66 85.7999 50.63L85.8799 50.73C85.8799 50.73 85.8899 50.73 85.8999 50.73C85.8999 50.73 85.8999 50.73 85.8999 50.72L85.7799 50.56L85.7699 50.57ZM85.7499 50.57C85.7499 50.57 85.7699 50.66 85.7299 50.68C85.6899 50.7 85.6299 50.68 85.5899 50.65C85.5599 50.61 85.5699 50.56 85.6099 50.54C85.6499 50.52 85.7099 50.54 85.7399 50.57H85.7499Z" fill="#263238"/>
<path d="M85.3798 50.55C85.3798 50.55 85.3698 50.55 85.3598 50.55C85.3598 50.55 85.3598 50.55 85.3598 50.56L85.5498 50.8C85.5498 50.8 85.5598 50.8 85.5698 50.8C85.5698 50.8 85.5698 50.8 85.5698 50.79L85.3798 50.55Z" fill="#263238"/>
<path d="M85.2499 50.72C85.1999 50.75 85.1899 50.81 85.2299 50.86C85.2699 50.91 85.3399 50.93 85.3999 50.9C85.4499 50.87 85.4599 50.81 85.4199 50.76C85.3799 50.71 85.3099 50.69 85.2499 50.72ZM85.3799 50.88C85.3799 50.88 85.2799 50.88 85.2499 50.85C85.2199 50.81 85.2299 50.76 85.2699 50.74C85.3099 50.72 85.3699 50.74 85.3999 50.77C85.4299 50.81 85.4199 50.86 85.3799 50.88Z" fill="#263238"/>
<path d="M85.0799 50.82C85.0799 50.82 85.0699 50.82 85.0599 50.82C85.0599 50.82 85.0599 50.82 85.0599 50.83L85.1399 50.93C85.1399 50.93 85.1599 51 85.1199 51.02C85.0899 51.04 85.0399 51.02 85.0099 51L85.0599 51.06C85.0999 51.11 85.1699 51.12 85.2199 51.09C85.2299 51.09 85.2499 51.07 85.2499 51.06V51.05C85.2499 51.05 85.2399 51.05 85.2299 51.05C85.2299 51.05 85.2099 51.07 85.1999 51.07C85.1599 51.09 85.0999 51.08 85.0699 51.04C85.0699 51.04 85.1299 51.04 85.1499 51.02C85.1899 51 85.2099 50.94 85.1699 50.9L85.0899 50.8L85.0799 50.82Z" fill="#263238"/>
<path d="M84.9199 51.03C84.8799 50.98 84.7999 50.96 84.7499 50.99C84.6999 51.02 84.6899 51.08 84.7199 51.13C84.7199 51.13 84.7299 51.13 84.7399 51.13L84.9099 51.04C84.9099 51.04 84.9299 51.13 84.8899 51.15C84.8599 51.16 84.8299 51.17 84.7999 51.15C84.7999 51.15 84.7899 51.15 84.7799 51.15V51.16C84.8199 51.18 84.8599 51.18 84.8899 51.16C84.9399 51.13 84.9599 51.07 84.9199 51.02V51.03ZM84.8899 51.03L84.7399 51.11C84.7399 51.11 84.7399 51.03 84.7699 51.01C84.8099 50.99 84.8599 51 84.8899 51.03Z" fill="#263238"/>
<path d="M84.6599 51.16C84.6199 51.11 84.5399 51.09 84.4899 51.12C84.4399 51.15 84.4299 51.21 84.4599 51.26C84.4599 51.26 84.4699 51.26 84.4799 51.26L84.6499 51.17C84.6499 51.17 84.6699 51.26 84.6299 51.28C84.5999 51.29 84.5699 51.3 84.5399 51.28C84.5399 51.28 84.5299 51.28 84.5199 51.28V51.29C84.5599 51.31 84.5999 51.31 84.6299 51.29C84.6799 51.26 84.6999 51.2 84.6599 51.15V51.16ZM84.6299 51.16L84.4799 51.24C84.4799 51.24 84.4799 51.16 84.5099 51.14C84.5499 51.12 84.5999 51.13 84.6299 51.16Z" fill="#263238"/>
<path d="M84.4598 51.35H84.4498C84.4498 51.37 84.4298 51.39 84.4098 51.4C84.3898 51.4 84.3798 51.41 84.3598 51.4C84.3498 51.4 84.3298 51.4 84.3298 51.39C84.3298 51.39 84.3298 51.37 84.3298 51.36C84.3298 51.35 84.3398 51.34 84.3598 51.32C84.3598 51.32 84.3898 51.29 84.3898 51.28C84.3898 51.27 84.3898 51.25 84.3898 51.24C84.3798 51.23 84.3598 51.22 84.3398 51.22C84.3198 51.22 84.2998 51.22 84.2798 51.23C84.2498 51.24 84.2398 51.26 84.2398 51.28V51.29C84.2398 51.29 84.2498 51.29 84.2598 51.29C84.2598 51.27 84.2798 51.26 84.2898 51.25C84.3098 51.25 84.3198 51.24 84.3398 51.24C84.3498 51.24 84.3598 51.24 84.3698 51.25C84.3698 51.25 84.3698 51.26 84.3698 51.27C84.3698 51.28 84.3598 51.29 84.3398 51.3C84.3398 51.3 84.3098 51.33 84.2998 51.34C84.2998 51.35 84.2998 51.37 84.2998 51.39C84.3098 51.41 84.3298 51.41 84.3498 51.41C84.3698 51.41 84.3898 51.41 84.4098 51.4C84.4398 51.38 84.4598 51.35 84.4598 51.33V51.32V51.35Z" fill="#263238"/>
<path d="M88.1099 49.68L88.7799 49.32L88.2999 48.72L87.6299 49.08L88.1099 49.68Z" fill="#FFC727"/>
<path d="M88.3399 49.44L88.3999 49.11L88.2699 49.08L88.2399 49.28L87.6499 49.03L87.5999 49.13L88.3399 49.44Z" fill="white"/>
<path opacity="0.3" d="M80.1098 56.96L90.8098 51.2L89.7398 49.84L79.0398 55.61L80.1098 56.96Z" fill="#DBDBDB"/>
<path d="M88.6798 51.5H88.6698C88.6698 51.53 88.6398 51.56 88.5998 51.58C88.5698 51.59 88.5498 51.6 88.5198 51.6C88.4998 51.6 88.4798 51.59 88.4598 51.57C88.4498 51.56 88.4498 51.54 88.4598 51.52C88.4598 51.5 88.4898 51.48 88.5098 51.46C88.5098 51.46 88.5498 51.42 88.5598 51.4C88.5598 51.38 88.5598 51.36 88.5598 51.34C88.5398 51.32 88.5198 51.31 88.4898 51.31C88.4598 51.31 88.4298 51.31 88.4098 51.33C88.3698 51.35 88.3598 51.38 88.3398 51.41V51.42H88.3498C88.3598 51.39 88.3798 51.37 88.4098 51.35C88.4298 51.34 88.4598 51.33 88.4798 51.33C88.4998 51.33 88.5198 51.34 88.5298 51.35C88.5298 51.36 88.5398 51.38 88.5298 51.39C88.5298 51.41 88.5098 51.42 88.4798 51.44C88.4798 51.44 88.4398 51.48 88.4298 51.5C88.4198 51.52 88.4298 51.55 88.4298 51.57C88.4498 51.59 88.4698 51.6 88.4998 51.6C88.5298 51.6 88.5598 51.6 88.5898 51.58C88.6298 51.56 88.6598 51.52 88.6698 51.49V51.48L88.6798 51.5Z" fill="#263238"/>
<path d="M88.2498 51.47C88.2498 51.47 88.2398 51.47 88.2298 51.47C88.2298 51.47 88.2298 51.47 88.2298 51.48C88.2298 51.48 88.2398 51.5 88.2498 51.49C88.2498 51.49 88.2498 51.49 88.2498 51.47ZM88.2998 51.53C88.2998 51.53 88.2898 51.53 88.2798 51.53C88.2798 51.53 88.2798 51.53 88.2798 51.54L88.4098 51.7C88.4098 51.7 88.4198 51.7 88.4298 51.7C88.4298 51.7 88.4298 51.7 88.4298 51.69L88.2998 51.53Z" fill="#263238"/>
<path d="M88.1298 51.84C88.1298 51.84 88.2398 51.9 88.2898 51.87C88.2998 51.87 88.3198 51.85 88.3298 51.84V51.83C88.3298 51.83 88.3198 51.83 88.3098 51.83C88.3098 51.84 88.2898 51.85 88.2798 51.85C88.2398 51.87 88.1798 51.86 88.1498 51.82L88.1298 51.8C88.1298 51.8 88.1998 51.81 88.2298 51.8C88.2798 51.77 88.2898 51.71 88.2498 51.66C88.2098 51.61 88.1398 51.59 88.0798 51.62C88.0498 51.64 88.0298 51.67 88.0298 51.7L88.0098 51.67C88.0098 51.67 87.9998 51.67 87.9898 51.67C87.9898 51.67 87.9898 51.67 87.9898 51.68L88.1198 51.84H88.1298ZM88.0898 51.75C88.0898 51.75 88.0698 51.66 88.1098 51.64C88.1498 51.62 88.2098 51.64 88.2398 51.67C88.2698 51.71 88.2598 51.76 88.2198 51.78C88.1798 51.8 88.1198 51.78 88.0898 51.75Z" fill="#263238"/>
<path d="M87.8199 51.88C87.8199 51.88 87.7999 51.81 87.8399 51.79C87.8699 51.77 87.9199 51.79 87.9499 51.81L88.0299 51.91C88.0299 51.91 88.0299 51.91 88.0399 51.91L87.9599 51.81L87.9099 51.74C87.9099 51.74 87.8999 51.74 87.8899 51.74C87.8899 51.74 87.8899 51.74 87.8899 51.75V51.77C87.8899 51.77 87.8499 51.77 87.8199 51.77C87.7699 51.79 87.7599 51.85 87.7999 51.89L87.8799 51.99C87.8799 51.99 87.8899 51.99 87.8999 51.99C87.8999 51.99 87.8999 51.99 87.8999 51.98L87.8199 51.88Z" fill="#263238"/>
<path d="M87.5999 52.02L87.5399 51.94C87.5399 51.94 87.5299 51.94 87.5199 51.94C87.5199 51.94 87.5199 51.94 87.5199 51.95L87.5399 51.98C87.5399 51.98 87.4699 51.97 87.4399 51.98C87.3899 52.01 87.3699 52.07 87.4099 52.12C87.4499 52.17 87.5199 52.19 87.5799 52.16C87.6099 52.14 87.6299 52.11 87.6299 52.08L87.7099 52.18C87.7099 52.18 87.7199 52.18 87.7299 52.18C87.7299 52.18 87.7299 52.18 87.7299 52.17L87.6099 52.01L87.5999 52.02ZM87.5799 52.02C87.5799 52.02 87.5999 52.11 87.5599 52.13C87.5199 52.15 87.4599 52.13 87.4199 52.1C87.3899 52.06 87.3999 52.01 87.4399 51.99C87.4799 51.97 87.5399 51.99 87.5699 52.02H87.5799Z" fill="#263238"/>
<path d="M87.0898 52.17L87.2198 52.33C87.2198 52.33 87.2298 52.33 87.2398 52.33C87.2398 52.33 87.2398 52.33 87.2398 52.32L87.2198 52.29C87.2198 52.29 87.2898 52.3 87.3198 52.29C87.3698 52.26 87.3798 52.2 87.3398 52.15C87.2998 52.1 87.2298 52.08 87.1698 52.11C87.1398 52.13 87.1198 52.16 87.1198 52.19L87.0998 52.16C87.0998 52.16 87.0898 52.16 87.0798 52.16C87.0798 52.16 87.0798 52.16 87.0798 52.17H87.0898ZM87.1698 52.24C87.1698 52.24 87.1498 52.15 87.1898 52.13C87.2298 52.11 87.2898 52.13 87.3198 52.16C87.3498 52.2 87.3398 52.25 87.2998 52.27C87.2598 52.29 87.1998 52.27 87.1698 52.24Z" fill="#263238"/>
<path d="M87.0798 52.3L87.0198 52.22C87.0198 52.22 87.0098 52.22 86.9998 52.22C86.9998 52.22 86.9998 52.22 86.9998 52.23L87.0198 52.26C87.0198 52.26 86.9498 52.25 86.9198 52.26C86.8698 52.29 86.8498 52.35 86.8898 52.4C86.9298 52.45 87.0098 52.47 87.0598 52.44C87.0898 52.42 87.1098 52.39 87.1098 52.36L87.1898 52.46C87.1898 52.46 87.1998 52.46 87.2098 52.46C87.2098 52.46 87.2098 52.46 87.2098 52.45L87.0898 52.29L87.0798 52.3ZM87.0598 52.3C87.0598 52.3 87.0798 52.39 87.0398 52.41C86.9998 52.43 86.9398 52.41 86.8998 52.38C86.8698 52.34 86.8798 52.29 86.9198 52.27C86.9598 52.25 87.0198 52.27 87.0498 52.3H87.0598Z" fill="#263238"/>
<path d="M86.8199 52.44C86.7799 52.39 86.6999 52.37 86.6499 52.4C86.5999 52.43 86.5899 52.49 86.6199 52.54C86.6199 52.54 86.6299 52.54 86.6399 52.54L86.8099 52.45C86.8099 52.45 86.8299 52.54 86.7899 52.56C86.7599 52.57 86.7299 52.57 86.6999 52.56C86.6999 52.56 86.6899 52.56 86.6799 52.56V52.57C86.7199 52.59 86.7599 52.59 86.7899 52.57C86.8399 52.54 86.8599 52.48 86.8199 52.43V52.44ZM86.7899 52.44L86.6399 52.52C86.6399 52.52 86.6399 52.44 86.6699 52.42C86.7099 52.4 86.7599 52.41 86.7899 52.44Z" fill="#263238"/>
<path d="M86.4999 52.49C86.4999 52.49 86.4899 52.49 86.4799 52.49C86.4799 52.49 86.4799 52.49 86.4799 52.5L86.5099 52.54C86.4799 52.53 86.4299 52.52 86.3899 52.54C86.3899 52.54 86.3899 52.54 86.3899 52.55C86.3899 52.55 86.3999 52.55 86.4099 52.55C86.4399 52.54 86.4699 52.54 86.4899 52.55C86.5199 52.55 86.5399 52.57 86.5499 52.58L86.6099 52.66C86.6099 52.66 86.6199 52.66 86.6299 52.66C86.6299 52.66 86.6299 52.66 86.6299 52.65L86.4999 52.49Z" fill="#263238"/>
<path d="M86.4398 52.72H86.4298C86.4298 52.74 86.4098 52.76 86.3898 52.77C86.3698 52.77 86.3598 52.78 86.3398 52.77C86.3298 52.77 86.3098 52.77 86.3098 52.76C86.3098 52.76 86.3098 52.74 86.3098 52.73C86.3098 52.72 86.3198 52.71 86.3398 52.69C86.3398 52.69 86.3698 52.66 86.3698 52.65C86.3698 52.64 86.3698 52.62 86.3698 52.61C86.3598 52.6 86.3398 52.59 86.3198 52.59C86.2998 52.59 86.2798 52.59 86.2598 52.6C86.2298 52.61 86.2198 52.63 86.2198 52.65V52.66C86.2198 52.66 86.2298 52.66 86.2398 52.66C86.2398 52.64 86.2598 52.63 86.2698 52.62C86.2898 52.62 86.2998 52.61 86.3198 52.61C86.3298 52.61 86.3398 52.61 86.3498 52.62C86.3498 52.62 86.3498 52.63 86.3498 52.64C86.3498 52.65 86.3398 52.66 86.3198 52.67C86.3198 52.67 86.2898 52.7 86.2798 52.71C86.2798 52.72 86.2798 52.74 86.2798 52.76C86.2898 52.78 86.3098 52.78 86.3298 52.78C86.3498 52.78 86.3698 52.78 86.3898 52.77C86.4198 52.75 86.4398 52.72 86.4398 52.7V52.69V52.72Z" fill="#263238"/>
<path d="M89.4599 51.39L90.1299 51.03L89.6499 50.43L88.9799 50.79L89.4599 51.39Z" fill="white"/>
<path d="M89.4599 51.39C89.6799 51.28 89.9099 51.16 90.1399 51.04H90.1499L90.1399 51.02L89.6699 50.41V50.39L89.6399 50.4C89.4199 50.52 89.1999 50.64 88.9699 50.76H88.9599L88.9699 50.78C89.1299 50.98 89.2999 51.18 89.4599 51.38V51.39ZM89.4599 51.39C89.2999 51.18 89.1499 50.98 88.9999 50.78V50.8C89.2199 50.68 89.4399 50.56 89.6699 50.44H89.6399L90.1199 51.04V51.02C89.9099 51.14 89.6899 51.27 89.4699 51.39H89.4599Z" fill="#263238"/>
<path opacity="0.3" d="M81.4599 58.67L92.1599 52.91L91.0899 51.55L80.3899 57.32L81.4599 58.67Z" fill="#DBDBDB"/>
<path d="M89.8398 53.28L89.9698 53.21L90.0398 53.26H90.0498C90.0498 53.26 90.0498 53.25 90.0498 53.24L89.7598 53.05H89.7498C89.7498 53.05 89.7498 53.05 89.7498 53.06L89.8398 53.36C89.8398 53.36 89.8398 53.36 89.8498 53.36C89.8498 53.36 89.8498 53.36 89.8498 53.35L89.8298 53.27L89.8398 53.28ZM89.9498 53.2L89.8298 53.26L89.7798 53.09L89.9498 53.2Z" fill="#263238"/>
<path d="M89.7799 53.36H89.7699C89.7699 53.38 89.7499 53.4 89.7299 53.41C89.7099 53.41 89.6999 53.42 89.6799 53.41C89.6699 53.41 89.6499 53.41 89.6499 53.4C89.6499 53.4 89.6499 53.38 89.6499 53.37C89.6499 53.36 89.6599 53.35 89.6799 53.33C89.6799 53.33 89.7099 53.3 89.7099 53.29C89.7099 53.28 89.7099 53.26 89.7099 53.25C89.6999 53.24 89.6799 53.23 89.6599 53.23C89.6399 53.23 89.6199 53.23 89.5999 53.24C89.5699 53.25 89.5599 53.27 89.5599 53.29V53.3C89.5599 53.3 89.5699 53.3 89.5799 53.3C89.5799 53.28 89.5999 53.27 89.6099 53.26C89.6299 53.26 89.6399 53.25 89.6599 53.25C89.6699 53.25 89.6799 53.25 89.6899 53.26C89.6899 53.26 89.6899 53.27 89.6899 53.28C89.6899 53.29 89.6799 53.3 89.6599 53.31C89.6599 53.31 89.6299 53.34 89.6199 53.35C89.6199 53.36 89.6199 53.38 89.6199 53.4C89.6299 53.42 89.6499 53.42 89.6699 53.42C89.6899 53.42 89.7099 53.42 89.7299 53.41C89.7599 53.39 89.7799 53.36 89.7799 53.34V53.33V53.36Z" fill="#263238"/>
<path d="M89.5798 53.47H89.5698C89.5698 53.49 89.5498 53.51 89.5298 53.52C89.5098 53.52 89.4998 53.53 89.4798 53.52C89.4698 53.52 89.4498 53.52 89.4498 53.51C89.4498 53.51 89.4498 53.49 89.4498 53.48C89.4498 53.47 89.4598 53.46 89.4798 53.44C89.4798 53.44 89.5098 53.41 89.5098 53.4C89.5098 53.39 89.5098 53.37 89.5098 53.36C89.4998 53.35 89.4798 53.34 89.4598 53.34C89.4398 53.34 89.4198 53.34 89.3998 53.35C89.3698 53.36 89.3598 53.38 89.3598 53.4V53.41C89.3598 53.41 89.3698 53.41 89.3798 53.41C89.3798 53.39 89.3998 53.38 89.4098 53.37C89.4298 53.37 89.4398 53.36 89.4598 53.36C89.4698 53.36 89.4798 53.36 89.4898 53.37C89.4998 53.38 89.4898 53.38 89.4898 53.39C89.4898 53.4 89.4798 53.41 89.4598 53.42C89.4598 53.42 89.4298 53.45 89.4198 53.46C89.4198 53.47 89.4198 53.49 89.4198 53.51C89.4298 53.53 89.4498 53.53 89.4698 53.53C89.4898 53.53 89.5098 53.53 89.5298 53.52C89.5598 53.5 89.5798 53.47 89.5798 53.45V53.44V53.47Z" fill="#263238"/>
<path d="M89.2099 53.39C89.2099 53.39 89.1999 53.39 89.1899 53.39C89.1899 53.39 89.1899 53.39 89.1899 53.4C89.1899 53.4 89.1999 53.42 89.2099 53.41C89.2099 53.41 89.2099 53.41 89.2099 53.39ZM89.2599 53.45C89.2599 53.45 89.2499 53.45 89.2399 53.45C89.2399 53.45 89.2399 53.45 89.2399 53.46L89.3699 53.62C89.3699 53.62 89.3799 53.62 89.3899 53.62C89.3899 53.62 89.3899 53.62 89.3899 53.61L89.2599 53.45Z" fill="#263238"/>
<path d="M89.0899 53.76C89.0899 53.76 89.1999 53.82 89.2499 53.79C89.2599 53.79 89.2799 53.77 89.2899 53.76V53.75C89.2899 53.75 89.2799 53.75 89.2699 53.75C89.2699 53.76 89.2499 53.77 89.2399 53.77C89.1999 53.79 89.1399 53.78 89.1099 53.74L89.0899 53.72C89.0899 53.72 89.1599 53.73 89.1899 53.72C89.2399 53.69 89.2499 53.63 89.2099 53.58C89.1699 53.53 89.0999 53.51 89.0399 53.54C89.0099 53.56 88.9899 53.59 88.9899 53.62L88.9699 53.59C88.9699 53.59 88.9599 53.59 88.9499 53.59C88.9499 53.59 88.9499 53.59 88.9499 53.6L89.0799 53.76H89.0899ZM89.0499 53.67C89.0499 53.67 89.0299 53.58 89.0699 53.56C89.1099 53.54 89.1699 53.56 89.1999 53.59C89.2299 53.63 89.2199 53.68 89.1799 53.7C89.1399 53.72 89.0799 53.7 89.0499 53.67Z" fill="#263238"/>
<path d="M88.7799 53.8C88.7799 53.8 88.7599 53.73 88.7999 53.71C88.8299 53.69 88.8799 53.71 88.9099 53.73L88.9899 53.83C88.9899 53.83 88.9899 53.83 88.9999 53.83L88.9199 53.73L88.8699 53.66C88.8699 53.66 88.8599 53.66 88.8499 53.66C88.8499 53.66 88.8499 53.66 88.8499 53.67V53.69C88.8499 53.69 88.8099 53.69 88.7799 53.69C88.7299 53.71 88.7199 53.77 88.7599 53.81L88.8399 53.91C88.8399 53.91 88.8499 53.91 88.8599 53.91C88.8599 53.91 88.8599 53.91 88.8599 53.9L88.7799 53.8Z" fill="#263238"/>
<path d="M88.3999 54C88.3999 54 88.3799 53.93 88.4199 53.91C88.4499 53.89 88.4999 53.91 88.5299 53.93L88.6099 54.03C88.6099 54.03 88.6099 54.03 88.6199 54.03L88.5399 53.93L88.4899 53.86C88.4899 53.86 88.4799 53.86 88.4699 53.86C88.4699 53.86 88.4699 53.86 88.4699 53.87V53.89C88.4699 53.89 88.4299 53.89 88.3999 53.89C88.3499 53.91 88.3399 53.97 88.3799 54.01L88.4599 54.11C88.4599 54.11 88.4699 54.11 88.4799 54.11C88.4799 54.11 88.4799 54.11 88.4799 54.1L88.3999 54Z" fill="#263238"/>
<path d="M88.3199 54.07C88.2799 54.02 88.1999 54 88.1499 54.03C88.0999 54.06 88.0899 54.12 88.1199 54.17C88.1199 54.17 88.1299 54.17 88.1399 54.17L88.3099 54.08C88.3099 54.08 88.3299 54.17 88.2899 54.19C88.2599 54.2 88.2299 54.21 88.1999 54.19C88.1999 54.19 88.1899 54.19 88.1799 54.19V54.2C88.2199 54.22 88.2599 54.22 88.2899 54.2C88.3399 54.17 88.3599 54.11 88.3199 54.06V54.07ZM88.2899 54.07L88.1399 54.15C88.1399 54.15 88.1399 54.07 88.1699 54.05C88.2099 54.03 88.2599 54.04 88.2899 54.07Z" fill="#263238"/>
<path d="M88.0698 54.33L88.0198 54.13C88.0198 54.13 88.0198 54.13 88.0098 54.13C88.0098 54.13 87.9998 54.13 88.0098 54.14L88.0598 54.32L87.9298 54.24H87.9198C87.9198 54.24 87.9198 54.24 87.9198 54.25L87.9498 54.38L87.7698 54.27C87.7698 54.27 87.7598 54.27 87.7498 54.27V54.28L87.9498 54.4L87.9198 54.27L88.0498 54.35C88.0498 54.35 88.0498 54.35 88.0598 54.35L88.0698 54.33Z" fill="#263238"/>
<path d="M87.5899 54.46L87.5298 54.38C87.5298 54.38 87.5198 54.38 87.5098 54.38C87.5098 54.38 87.5098 54.38 87.5098 54.39L87.5298 54.42C87.5298 54.42 87.4598 54.41 87.4298 54.42C87.3798 54.45 87.3598 54.51 87.3998 54.56C87.4398 54.61 87.5098 54.63 87.5698 54.6C87.5998 54.58 87.6199 54.55 87.6199 54.52L87.6998 54.62C87.6998 54.62 87.7098 54.62 87.7198 54.62C87.7198 54.62 87.7198 54.62 87.7198 54.61L87.5998 54.45L87.5899 54.46ZM87.5698 54.46C87.5698 54.46 87.5899 54.55 87.5499 54.57C87.5099 54.59 87.4499 54.57 87.4099 54.54C87.3799 54.5 87.3898 54.45 87.4298 54.43C87.4698 54.41 87.5298 54.43 87.5598 54.46H87.5698Z" fill="#263238"/>
<path d="M87.1598 54.56C87.1098 54.59 87.0998 54.65 87.1398 54.7C87.1798 54.75 87.2498 54.77 87.3098 54.74C87.3598 54.71 87.3698 54.65 87.3298 54.6C87.2898 54.55 87.2198 54.53 87.1598 54.56ZM87.2898 54.72C87.2898 54.72 87.1898 54.72 87.1598 54.69C87.1298 54.66 87.1398 54.6 87.1798 54.58C87.2198 54.56 87.2798 54.58 87.3098 54.61C87.3398 54.65 87.3298 54.7 87.2898 54.72Z" fill="#263238"/>
<path d="M87.1199 54.79H87.1099C87.1099 54.81 87.0899 54.83 87.0699 54.84C87.0499 54.84 87.0399 54.85 87.0199 54.84C87.0099 54.84 86.9899 54.84 86.9899 54.83C86.9899 54.83 86.9899 54.81 86.9899 54.8C86.9899 54.79 86.9999 54.78 87.0199 54.76C87.0199 54.76 87.0499 54.73 87.0499 54.72C87.0499 54.71 87.0499 54.69 87.0499 54.68C87.0399 54.67 87.0199 54.66 86.9999 54.66C86.9799 54.66 86.9599 54.66 86.9399 54.67C86.9099 54.68 86.8999 54.7 86.8999 54.72V54.73C86.8999 54.73 86.9099 54.73 86.9199 54.73C86.9199 54.71 86.9399 54.7 86.9499 54.68C86.9699 54.68 86.9799 54.67 86.9999 54.67C87.0099 54.67 87.0199 54.67 87.0299 54.68C87.0299 54.68 87.0299 54.69 87.0299 54.7C87.0299 54.71 87.0199 54.72 86.9999 54.73C86.9999 54.73 86.9699 54.76 86.9599 54.77C86.9599 54.78 86.9599 54.8 86.9599 54.82C86.9699 54.84 86.9899 54.84 87.0099 54.84C87.0299 54.84 87.0499 54.84 87.0699 54.83C87.0999 54.81 87.1199 54.78 87.1199 54.76V54.75V54.79Z" fill="#263238"/>
<path d="M86.7399 54.71C86.7399 54.71 86.7299 54.71 86.7199 54.71C86.7199 54.71 86.7199 54.71 86.7199 54.72C86.7199 54.72 86.7299 54.74 86.7399 54.73C86.7399 54.73 86.7399 54.73 86.7399 54.71ZM86.7899 54.77C86.7899 54.77 86.7799 54.77 86.7699 54.77C86.7699 54.77 86.7699 54.77 86.7699 54.78L86.8999 54.94C86.8999 54.94 86.9099 54.94 86.9199 54.94C86.9199 54.94 86.9199 54.94 86.9199 54.93L86.7899 54.77Z" fill="#263238"/>
<path d="M86.6098 54.87C86.6098 54.87 86.6198 54.87 86.6298 54.87H86.6598L86.7698 54.99V55.01V55.02C86.7698 55.02 86.7798 55.02 86.7898 55.02C86.8098 55.01 86.8098 54.99 86.7998 54.97L86.6898 54.84H86.7198C86.7198 54.84 86.7198 54.82 86.7198 54.81C86.7198 54.8 86.7198 54.81 86.6998 54.81H86.6698L86.6198 54.76C86.6198 54.76 86.6098 54.76 86.5998 54.76V54.77L86.6498 54.84H86.6198C86.6198 54.84 86.6198 54.86 86.6198 54.87H86.6098Z" fill="#263238"/>
<path d="M86.4599 54.86C86.4599 54.86 86.4499 54.86 86.4399 54.86C86.4399 54.86 86.4399 54.86 86.4399 54.87C86.4399 54.87 86.4499 54.89 86.4599 54.88C86.4599 54.88 86.4599 54.88 86.4599 54.86ZM86.5099 54.92C86.5099 54.92 86.4999 54.92 86.4899 54.92C86.4899 54.92 86.4899 54.92 86.4899 54.93L86.6199 55.09C86.6199 55.09 86.6299 55.09 86.6399 55.09C86.6399 55.09 86.6399 55.09 86.6399 55.08L86.5099 54.92Z" fill="#263238"/>
<path d="M86.2998 55.02C86.2498 55.05 86.2398 55.11 86.2798 55.16C86.3198 55.21 86.3898 55.23 86.4498 55.2C86.4998 55.17 86.5098 55.11 86.4698 55.06C86.4298 55.01 86.3598 54.99 86.2998 55.02ZM86.4298 55.18C86.4298 55.18 86.3298 55.18 86.2998 55.15C86.2698 55.12 86.2798 55.06 86.3198 55.04C86.3598 55.02 86.4198 55.04 86.4498 55.07C86.4798 55.11 86.4698 55.16 86.4298 55.18Z" fill="#263238"/>
<path d="M86.0499 55.27C86.0499 55.27 86.0299 55.2 86.0699 55.18C86.0999 55.16 86.1499 55.18 86.1799 55.2L86.2599 55.3C86.2599 55.3 86.2599 55.3 86.2699 55.3L86.1899 55.2L86.1399 55.13C86.1399 55.13 86.1299 55.13 86.1199 55.13C86.1199 55.13 86.1199 55.13 86.1199 55.14V55.16C86.1199 55.16 86.0799 55.16 86.0499 55.16C85.9999 55.18 85.9899 55.24 86.0299 55.28L86.1099 55.38C86.1099 55.38 86.1199 55.38 86.1299 55.38C86.1299 55.38 86.1299 55.38 86.1299 55.37L86.0499 55.27Z" fill="#263238"/>
<path d="M90.8099 53.1L91.4799 52.74L90.9999 52.14L90.3299 52.5L90.8099 53.1Z" fill="white"/>
<path d="M90.8099 53.1C91.0299 52.99 91.2599 52.87 91.4899 52.75H91.4999V52.73L91.0299 52.12V52.1L90.9999 52.11C90.7799 52.23 90.5599 52.35 90.3299 52.47H90.3199L90.3299 52.49C90.4899 52.69 90.6599 52.89 90.8199 53.09L90.8099 53.1ZM90.8099 53.1C90.6499 52.89 90.4999 52.69 90.3499 52.49V52.51C90.5699 52.39 90.7899 52.27 91.0199 52.15H90.9899L91.4699 52.75V52.73C91.2599 52.85 91.0399 52.98 90.8199 53.1H90.8099Z" fill="#263238"/>
<path opacity="0.3" d="M82.8099 60.38L93.5099 54.62L92.4399 53.26L81.7399 59.03L82.8099 60.38Z" fill="#DBDBDB"/>
<path d="M91.2099 54.76L91.3799 54.97C91.3799 54.97 91.3899 54.97 91.3999 54.97C91.3999 54.97 91.3999 54.97 91.3999 54.96L91.2099 54.72C91.2099 54.72 91.2099 54.72 91.1999 54.72H91.1899V55.03L91.0199 54.82C91.0199 54.82 91.0099 54.82 90.9999 54.82C90.9999 54.82 90.9999 54.82 90.9999 54.83L91.1899 55.07C91.1899 55.07 91.1999 55.07 91.2099 55.07V54.76Z" fill="#263238"/>
<path d="M91.0299 55.04C90.9899 54.99 90.9099 54.97 90.8599 55C90.8099 55.03 90.7999 55.09 90.8299 55.14C90.8299 55.14 90.8399 55.14 90.8499 55.14L91.0199 55.05C91.0199 55.05 91.0399 55.14 90.9999 55.16C90.9699 55.17 90.9399 55.17 90.9099 55.16C90.9099 55.16 90.8999 55.16 90.8899 55.16V55.17C90.9299 55.19 90.9699 55.19 90.9999 55.17C91.0499 55.14 91.0699 55.08 91.0299 55.03V55.04ZM90.9999 55.04L90.8499 55.12C90.8499 55.12 90.8499 55.04 90.8799 55.02C90.9199 55 90.9699 55.01 90.9999 55.04Z" fill="#263238"/>
<path d="M90.7799 55.31L90.7299 55.11C90.7299 55.11 90.7299 55.11 90.7199 55.11C90.7199 55.11 90.7099 55.11 90.7199 55.12L90.7699 55.3L90.6399 55.22H90.6299C90.6299 55.22 90.6299 55.22 90.6299 55.23L90.6599 55.36L90.4799 55.25C90.4799 55.25 90.4699 55.25 90.4599 55.25V55.26L90.6599 55.38L90.6299 55.25L90.7599 55.33C90.7599 55.33 90.7599 55.33 90.7699 55.33L90.7799 55.31Z" fill="#263238"/>
<path d="M90.2998 55.44L90.2398 55.36C90.2398 55.36 90.2298 55.36 90.2198 55.36C90.2198 55.36 90.2198 55.36 90.2198 55.37L90.2398 55.4C90.2398 55.4 90.1698 55.39 90.1398 55.4C90.0898 55.43 90.0698 55.49 90.1098 55.54C90.1498 55.59 90.2298 55.61 90.2798 55.58C90.3098 55.56 90.3298 55.53 90.3298 55.5L90.4098 55.6C90.4098 55.6 90.4198 55.6 90.4298 55.6C90.4298 55.6 90.4298 55.6 90.4298 55.59L90.3098 55.43L90.2998 55.44ZM90.2798 55.44C90.2798 55.44 90.2998 55.53 90.2598 55.55C90.2198 55.57 90.1598 55.55 90.1198 55.52C90.0898 55.48 90.0998 55.43 90.1398 55.41C90.1798 55.39 90.2398 55.41 90.2698 55.44H90.2798Z" fill="#263238"/>
<path d="M89.9699 55.5C89.9699 55.5 89.9599 55.5 89.9499 55.5C89.9499 55.5 89.9499 55.5 89.9499 55.51L89.9799 55.55C89.9499 55.54 89.8999 55.53 89.8599 55.55C89.8599 55.55 89.8599 55.55 89.8599 55.56C89.8599 55.56 89.8699 55.56 89.8799 55.56C89.9099 55.55 89.9399 55.55 89.9599 55.56C89.9899 55.56 90.0099 55.58 90.0199 55.59L90.0799 55.67C90.0799 55.67 90.0899 55.67 90.0999 55.67C90.0999 55.67 90.0999 55.67 90.0999 55.66L89.9699 55.5Z" fill="#263238"/>
<path d="M89.6998 55.63C89.6498 55.66 89.6398 55.72 89.6798 55.77C89.7198 55.82 89.7898 55.84 89.8498 55.81C89.8998 55.78 89.9099 55.72 89.8699 55.67C89.8299 55.62 89.7598 55.6 89.6998 55.63ZM89.8299 55.79C89.8299 55.79 89.7298 55.79 89.6998 55.76C89.6698 55.73 89.6798 55.67 89.7198 55.65C89.7598 55.63 89.8198 55.65 89.8498 55.68C89.8798 55.72 89.8699 55.77 89.8299 55.79Z" fill="#263238"/>
<path d="M89.7499 55.94C89.7499 55.94 89.7299 55.94 89.7199 55.94L89.5499 55.73C89.5499 55.73 89.5399 55.73 89.5299 55.73C89.5299 55.73 89.5299 55.73 89.5299 55.74L89.6999 55.95C89.6999 55.95 89.7399 55.97 89.7599 55.96C89.7599 55.96 89.7599 55.96 89.7599 55.95C89.7599 55.95 89.7499 55.95 89.7399 55.95L89.7499 55.94ZM89.5099 55.66C89.5099 55.66 89.4999 55.66 89.4899 55.66C89.4899 55.66 89.4899 55.66 89.4899 55.67C89.4899 55.67 89.4999 55.69 89.5099 55.68V55.67V55.66Z" fill="#263238"/>
<path d="M89.5199 55.86C89.4799 55.81 89.3999 55.79 89.3499 55.82C89.2999 55.85 89.2899 55.91 89.3199 55.96C89.3199 55.96 89.3299 55.96 89.3399 55.96L89.5099 55.87C89.5099 55.87 89.5299 55.96 89.4899 55.98C89.4599 55.99 89.4299 55.99 89.3999 55.98C89.3999 55.98 89.3899 55.98 89.3799 55.98V55.99C89.4199 56.01 89.4599 56.01 89.4899 55.99C89.5399 55.96 89.5599 55.9 89.5199 55.85V55.86ZM89.4899 55.86L89.3399 55.94C89.3399 55.94 89.3399 55.86 89.3699 55.84C89.4099 55.82 89.4599 55.83 89.4899 55.86Z" fill="#263238"/>
<path d="M89.2599 55.99C89.2199 55.94 89.1399 55.92 89.0799 55.96C89.0599 55.97 89.0399 55.99 89.0299 56.01V56.02H89.0399C89.0399 56 89.0599 55.99 89.0799 55.98C89.1299 55.95 89.1899 55.97 89.2199 56.01C89.2499 56.05 89.2399 56.1 89.1899 56.13C89.1699 56.14 89.1499 56.14 89.1299 56.14H89.1199C89.1199 56.14 89.1199 56.15 89.1299 56.15C89.1599 56.15 89.1799 56.15 89.2099 56.14C89.2699 56.11 89.2799 56.04 89.2399 55.99H89.2599Z" fill="#263238"/>
<path d="M88.8798 56.09C88.8798 56.09 88.8899 56.09 88.8999 56.09H88.9298L89.0398 56.21V56.23V56.24C89.0398 56.24 89.0498 56.24 89.0598 56.24C89.0798 56.23 89.0798 56.21 89.0698 56.19L88.9598 56.06H88.9898C88.9898 56.06 88.9898 56.04 88.9898 56.03C88.9898 56.03 88.9898 56.03 88.9698 56.03H88.9399L88.8898 55.98C88.8898 55.98 88.8799 55.98 88.8699 55.98V55.99L88.9198 56.06H88.8898C88.8898 56.06 88.8898 56.08 88.8898 56.09H88.8798Z" fill="#263238"/>
<path d="M92.1598 54.81L92.8298 54.45L92.3498 53.85L91.6798 54.21L92.1598 54.81Z" fill="white"/>
<path d="M92.1599 54.81C92.3799 54.7 92.6099 54.58 92.8399 54.46H92.8499V54.44L92.3799 53.83V53.81H92.3499C92.1299 53.93 91.8999 54.05 91.6799 54.17H91.6699L91.6799 54.19C91.8399 54.39 92.0099 54.59 92.1699 54.79L92.1599 54.81ZM92.1599 54.81C91.9999 54.6 91.8499 54.4 91.6999 54.2V54.22C91.9199 54.1 92.1399 53.98 92.3699 53.86H92.3399L92.8199 54.46V54.44C92.6099 54.56 92.3899 54.69 92.1699 54.81H92.1599Z" fill="#263238"/>
<path d="M87.6099 66.46L89.3799 65.51L88.1099 63.91L86.3499 64.86L87.6099 66.46Z" fill="#FFC727"/>
<path d="M88.1398 65.7L88.3198 65.6L87.5898 64.67L87.4098 64.77L88.1398 65.7Z" fill="white"/>
<path d="M87.2898 65.38L87.4198 65.54L88.4398 64.99L88.3098 64.83L87.2898 65.38Z" fill="white"/>
<path d="M74.8099 41.86L76.2099 41.11C76.2099 41.11 76.2699 41.03 76.2299 40.99C76.2299 40.99 76.1299 40.93 76.0799 40.96L74.6799 41.71C74.6799 41.71 74.6199 41.79 74.6599 41.83C74.6599 41.83 74.7599 41.89 74.8099 41.86Z" fill="white"/>
<path d="M88.4498 71.42C91.9498 71.04 79.7198 65.34 79.0598 61.38C78.3998 57.42 82.4298 58.2 85.7698 60.07C97.3398 66.57 105.31 65.21 111.6 72.01C117.9 78.81 88.4498 71.42 88.4498 71.42Z" fill="#EF9666"/>
<path d="M98.6899 65.32C101.4 66.24 104.14 67.21 106.65 68.55C109.15 70 111.04 72.28 113.03 74.32C120.33 76.52 127.68 78.59 135.16 80.12C137.03 80.4 138.95 81.05 140.85 80.65C141.45 80.37 141.92 79.93 142.37 79.49C141.88 79.88 141.35 80.25 140.78 80.47C140.22 80.63 139.57 80.48 138.96 80.39C130.54 78.58 121.75 75.77 113.4 73.49L113.61 73.62C112.11 72.03 110.55 70.52 108.83 69.17C105.85 67.03 102.18 66.19 98.6799 65.33L98.6899 65.32Z" fill="#263238"/>
<path d="M169.07 85.08L150.03 67.07C150.03 67.07 154.28 59.37 161.07 50.22C167.86 41.06 173.47 42.43 173.29 57.79C173.11 73.15 169.06 85.08 169.06 85.08H169.07Z" fill="#3191FF"/>
<path d="M152.67 64.28C154.23 65.45 155.63 66.87 157.09 68.17C158.48 69.41 159.87 70.65 161.22 71.94C164.02 74.61 166.76 77.33 169.45 80.11C169.5 80.16 169.42 80.24 169.37 80.2C166.51 77.66 163.68 75.09 160.88 72.48C159.49 71.18 158.13 69.85 156.78 68.51C155.39 67.14 153.88 65.85 152.59 64.37C152.55 64.32 152.61 64.24 152.67 64.28Z" fill="#263238"/>
<path d="M151.09 64.58C151.56 63.75 152.06 62.94 152.57 62.13C152.68 61.96 152.78 61.8 152.89 61.63C153.31 60.51 153.74 59.39 154.27 58.32C154.29 58.28 154.35 58.3 154.33 58.34C154.05 59.21 153.71 60.07 153.34 60.91C154.13 59.68 154.95 58.47 155.86 57.32C155.89 57.28 155.94 57.32 155.92 57.36C155.01 59.04 153.97 60.66 153 62.3C152.53 63.1 150.11 66.97 150.15 67.01C150.15 67.01 150.63 67.48 150.7 67.62C150.77 67.77 150.69 67.72 150.64 67.68C150.6 67.65 149.69 66.99 149.69 66.99C149.69 66.96 150.68 65.28 151.09 64.57V64.58Z" fill="#263238"/>
<path d="M164.63 80.88C166.11 82.48 167.63 84.03 169.17 85.56L169.32 85.17C171.6 78.43 172.65 71.34 173.22 64.27C171.84 71.07 170.72 78.33 168.82 84.99L169.25 84.89C167.73 83.53 166.2 82.19 164.63 80.88Z" fill="#263238"/>
<path d="M173.69 66.93C172.9 68.14 172.41 69.42 172.12 70.83C173.03 69.71 173.54 68.36 173.69 66.93Z" fill="#263238"/>
</g>
<defs>
<clipPath id="clip0_162_164">
<rect width="188.61" height="270.54" fill="white" transform="matrix(-1 0 0 1 214.61 1)"/>
</clipPath>
</defs>
</svg>
